<?xml version="1.0" standalone="no"?><!DOCTYPE svg PUBLIC "-//W3C//DTD SVG 1.1//EN" "http://www.w3.org/Graphics/SVG/1.1/DTD/svg11.dtd"><svg t="1757236647376" class="icon" viewBox="0 0 1024 1024" version="1.1" xmlns="http://www.w3.org/2000/svg" p-id="1618" xmlns:xlink="http://www.w3.org/1999/xlink" width="200" height="200"><path d="M0.153585 0.409559m409.559044 0l204.472353 0q409.559044 0 409.559044 409.559044l0 204.472353q0 409.559044-409.559044 409.559044l-204.472353 0q-409.559044 0-409.559044-409.559044l0-204.472353q0-409.559044 409.559044-409.559044Z" fill="#6CABFE" p-id="1619"></path><path d="M948.589941 391.589641c0-0.409559-0.307169-0.870313-0.460754-1.331067a59.232477 59.232477 0 0 0-30.051395-34.351765c-43.515648-23.805619-73.823018-5.119488-107.048495 33.174283-23.805619 27.235676-72.952705 78.891311-98.908509 106.024597l-8.39596-4.044395c0-0.307169 39.727227-65.119888 51.19488-83.959604 0.921508-1.228677 28.105989-40.136786 19.556444-70.546546-0.716728-2.610939-1.587041-5.119488-2.457354-7.372062l-0.460754-1.279872c0-0.307169 0-0.563144-0.358364-0.819118s-0.563144-1.382262-0.870313-2.047796-0.767923-1.689431-1.177482-2.508549-0.972703-1.894211-1.433457-2.815718l-0.563144-1.023898a70.59774 70.59774 0 0 0-21.655434-24.624737 56.314369 56.314369 0 0 0-13.310669-7.935207 57.90141 57.90141 0 0 0-50.938906 2.662134A61.843416 61.843416 0 0 0 658.417358 307.169283a75.512449 75.512449 0 0 0-8.191181 13.157084c-9.163884 16.791921-12.69633 38.754525 7.832817 58.054995l0.870313 0.819118c11.826017 11.109289 20.221978 18.737326 26.109389 23.856814a154.147785 154.147785 0 0 0 12.133187 10.238976l0.511949 0.358365-35.836417 57.235876-32.764723-15.768023V211.178882a67.577242 67.577242 0 0 0-67.423658-67.423658H267.493251a67.423658 67.423658 0 0 0-67.423658 67.423658v486.351365a67.474853 67.474853 0 0 0 67.423658 67.423658h293.705029a67.423658 67.423658 0 0 0 61.024298-38.90811l53.191481 25.597441a54.112989 54.112989 0 0 0 72.184781-25.341466l71.263274-148.465154a28.105989 28.105989 0 0 0-2.354965-28.361963 27.491651 27.491651 0 0 0-5.989801-6.245776 41.570243 41.570243 0 0 0-4.658734-2.815718h-0.358364l-1.228677-0.614339-6.860114-3.276472-12.696331-6.092191-27.440455-13.208279L825.517448 440.275972s6.348165 5.733827 44.590741 28.413159c24.215178 14.436956 44.334767 5.119488 57.952605-8.447155a73.362264 73.362264 0 0 0 10.238976-11.621238 60.461154 60.461154 0 0 0 11.365263-27.542846 64.044796 64.044796 0 0 0-1.075092-29.488251z m-3.481252 14.232177c0.255974-0.767923 0.511949-1.433457 0.716728-2.252575 0 0.819118-0.460754 1.484652-0.716728 2.252575z m1.228677-4.556345c0.307169-1.331067 0.665533-2.610939 0.921508-4.044395-0.10239 1.433457-0.614339 2.713329-0.921508 4.044395z" fill="#4589F5" p-id="1620"></path><path d="M190.854515 218.192581a65.478252 65.478252 0 0 1 65.478252-65.478252h285.257874a65.171083 65.171083 0 0 1 41.877412 15.358464 65.375862 65.375862 0 0 0-50.324567-23.652035H247.834417A65.478252 65.478252 0 0 0 182.407359 209.89901v472.119188a65.171083 65.171083 0 0 0 23.60084 50.068593 65.222278 65.222278 0 0 1-15.358464-41.826217z" fill="#FFFFFF" p-id="1621"></path><path d="M533.143486 747.445255a65.478252 65.478252 0 0 0 65.427057-65.478252V209.89901a65.171083 65.171083 0 0 0-15.358464-41.826217 65.171083 65.171083 0 0 0-41.877412-15.358464H256.332767a65.478252 65.478252 0 0 0-65.478252 65.478252v472.119188a65.222278 65.222278 0 0 0 15.358464 41.826217 65.119888 65.119888 0 0 0 41.826217 15.358464z" fill="#B8D9FF" p-id="1622"></path><path d="M533.655434 175.035296H247.322468a37.321068 37.321068 0 0 0-37.372263 37.321068v414.678533a37.218678 37.218678 0 0 0 10.238976 25.904609l336.811119-469.30347a37.065093 37.065093 0 0 0-23.344866-8.60074z" fill="#DDEBFE" p-id="1623"></path><path d="M247.322468 664.151185h286.332966a37.321068 37.321068 0 0 0 37.321068-37.321068v-414.678532a37.218678 37.218678 0 0 0-13.720228-28.925108L220.445155 652.734727a37.372263 37.372263 0 0 0 26.877313 11.416458z" fill="#F2F7FC" p-id="1624"></path><path d="M451.692431 702.342566A15.768023 15.768023 0 0 1 435.207679 716.728327H345.923808a14.692931 14.692931 0 1 1 0-29.181082H435.207679a15.768023 15.768023 0 0 1 16.484752 14.795321zM286.742526 446.470553a28.105989 28.105989 0 0 0 23.908009 14.590541 29.334667 29.334667 0 0 0 18.276572-5.836216 27.389261 27.389261 0 0 0 10.238976-16.689532 25.034297 25.034297 0 0 0 0.460754-8.088791 8.856714 8.856714 0 0 0-3.634836-5.836216 22.269773 22.269773 0 0 0-9.471053-3.634837 94.505749 94.505749 0 0 0-17.611039-1.177482l3.174083-27.645235a41.621438 41.621438 0 0 0 26.416558-7.064894 30.358564 30.358564 0 0 0 11.058094-18.327767c1.9966-9.163884-1.433457-13.720228-10.238976-13.720228a27.389261 27.389261 0 0 0-14.846515 4.30037 110.478552 110.478552 0 0 0-14.129787 10.69973L296.981502 341.469853q23.088891-18.942106 45.153884-18.942106a56.314369 56.314369 0 0 1 19.658835 3.174083 32.047995 32.047995 0 0 1 13.771422 9.522248 33.686231 33.686231 0 0 1 6.860114 15.358464 54.164184 54.164184 0 0 1-0.767923 20.887511 46.075392 46.075392 0 0 1-8.907909 19.351665A47.816018 47.816018 0 0 1 354.217378 404.439556l-3.174082 0.870313a30.972903 30.972903 0 0 1 9.675832 5.785022 29.641836 29.641836 0 0 1 6.962504 9.266273 37.986601 37.986601 0 0 1 3.430057 12.59394 51.60444 51.60444 0 0 1-1.126288 15.716829 51.194881 51.194881 0 0 1-7.884011 18.9933 57.031097 57.031097 0 0 1-30.716928 22.320968 65.836616 65.836616 0 0 1-19.198081 2.866914 51.194881 51.194881 0 0 1-28.054794-6.860114 47.560044 47.560044 0 0 1-16.331167-17.457455zM398.910509 404.69553a131.058894 131.058894 0 0 1 12.645135-35.222077 104.232777 104.232777 0 0 1 19.30047-25.90461 80.785521 80.785521 0 0 1 23.549645-15.921608 64.147185 64.147185 0 0 1 25.239077-5.119488 41.365463 41.365463 0 0 1 13.208279 1.996601 46.894511 46.894511 0 0 1 10.853314 5.119488 42.491751 42.491751 0 0 1 8.70313 7.167283 58.566943 58.566943 0 0 1 6.60414 8.49835l-20.989901 22.576942a28.822718 28.822718 0 0 0-8.60074-8.651934 21.553045 21.553045 0 0 0-11.262874-2.866914 30.153785 30.153785 0 0 0-14.283372 3.788421A48.686331 48.686331 0 0 0 450.566143 370.650935a73.055094 73.055094 0 0 0-11.109289 17.252675 105.307869 105.307869 0 0 0-7.628037 22.986501q-4.812319 23.191281 0.460754 35.580442a19.044496 19.044496 0 0 0 19.044496 12.389161 31.433657 31.433657 0 0 0 17.150285-5.119488 68.805919 68.805919 0 0 0 13.822617-11.365263l13.720228 27.389261a73.259874 73.259874 0 0 1-23.344865 17.559844 59.334867 59.334867 0 0 1-24.675933 5.426657 53.652235 53.652235 0 0 1-24.624737-5.631437 44.846715 44.846715 0 0 1-17.969403-16.791921 65.734227 65.734227 0 0 1-8.907909-27.645235 121.331867 121.331867 0 0 1 2.406159-37.986602z" fill="#4589F5" p-id="1625"></path><path d="M625.755024 494.593741l-18.942105-44.232377-0.20478-0.10239 18.993301 44.232377 0.153584 0.10239z" fill="#FFFFFF" p-id="1626"></path><path d="M770.482952 529.047895h-0.30717 0.511949a0.255974 0.255974 0 0 1-0.204779 0zM768.947105 528.331167l1.228677 0.563144zM775.244076 531.966003z" fill="#B8D9FF" p-id="1627"></path><path d="M775.192881 531.914809a40.59754 40.59754 0 0 0-4.50515-2.764524 29.437056 29.437056 0 0 1 4.556345 2.815718zM781.131487 538.109389a26.160584 26.160584 0 0 0-5.836217-6.092191 25.59744 25.59744 0 0 1 5.785022 6.245776z" fill="#DDEBFE" p-id="1628"></path><path d="M625.755024 494.593741l0.255975 0.153584-13.464254-31.433656-0.409559-0.20478 13.464254 31.382462 0.153584 0.10239z" fill="#F8FBFF" p-id="1629"></path><path d="M712.683932 501.249075l-44.181182-21.245875-20.477952-9.931807-15.358465 31.484851-14.948905-34.812518-24.727127-11.877213a27.594041 27.594041 0 0 0-36.911509 12.90111l-78.020998 161.059094 145.495851 69.932207a58.259774 58.259774 0 0 0 77.867413-27.235676l61.433857-127.270473 7.423257-15.358464z" fill="#F2F7FC" p-id="1630"></path><path d="M909.374663 384.934307a70.136986 70.136986 0 0 1-5.938607 29.385861c-8.088791 17.611039-35.375662 53.191481-72.543145 31.126487s-43.310869-27.645235-43.310869-27.645235L707.615638 506.829317a17.559844 17.559844 0 0 1-25.034296 1.126287l-8.49835-7.935206a17.252675 17.252675 0 0 1-2.610939-3.174083 17.457454 17.457454 0 0 0 4.812319 17.611039l8.49835 7.884012a17.559844 17.559844 0 0 0 25.034296-1.075093l79.966404-89.232676s6.194581 5.529047 43.310869 27.59404 64.454355-13.464254 72.543145-31.126487a66.246175 66.246175 0 0 0 3.737227-43.566843z" fill="#B8D9FF" p-id="1631"></path><path d="M909.374663 384.934307l-0.460754-1.331067a70.956104 70.956104 0 0 1-5.682632 22.679332c-8.139986 17.611039-35.426857 53.191481-72.543146 31.126487s-43.310869-27.645235-43.310869-27.645235l-79.966403 89.232676a17.559844 17.559844 0 0 1-25.034297 1.075093l-8.49835-7.884012a18.071793 18.071793 0 0 0-2.354964 5.119488 17.252675 17.252675 0 0 0 2.610939 3.174083l8.49835 7.935206a17.559844 17.559844 0 0 0 25.034296-1.126287l79.966404-89.232677S793.571843 423.381662 830.892911 445.39546s64.454355-13.515448 72.543145-31.126487a70.136986 70.136986 0 0 0 5.938607-29.334666z" fill="#DDEBFE" p-id="1632"></path><path d="M877.787421 381.760224a60.563544 60.563544 0 0 1 25.597441 24.419958 69.266673 69.266673 0 0 0 5.682631-22.576942 57.440656 57.440656 0 0 0-29.181082-33.327868c-42.235776-23.140086-71.672833-4.709929-103.976802 32.20158-24.419958 27.952405-76.382762 82.474953-100.137186 107.509249a16.331167 16.331167 0 0 0-1.791821 2.40616l8.49835 7.884011a16.945505 16.945505 0 0 0 7.576842 4.095591c26.262974-27.542846 64.09599-67.577242 83.90841-90.256575 32.150385-37.116288 61.587441-55.49525 103.823217-32.355164z" fill="#FFFFFF" p-id="1633"></path><path d="M707.410859 498.9965L787.377262 409.559044s6.194581 5.580242 43.310869 27.645236 64.40316-13.515448 72.543146-31.126488a60.563544 60.563544 0 0 0-25.59744-24.419958c-42.235776-23.140086-71.672833-4.761124-103.925608 32.150385-19.812419 22.679332-57.645435 62.713729-83.908409 90.256575a17.457454 17.457454 0 0 0 17.611039-5.068294z" fill="#F2F7FC" p-id="1634"></path><path d="M861.839071 460.5025a18.993301 37.986601 35.2 1 0 43.79341-62.081115 18.993301 37.986601 35.2 1 0-43.79341 62.081115Z" fill="#4589F5" p-id="1635"></path><path d="M781.080292 538.262974l-72.850315 151.485651a55.956004 55.956004 0 0 1-74.744526 26.211779l-82.730926-39.778422a51.758024 51.758024 0 0 1-35.273273-3.634837l128.550345 61.843416a52.577142 52.577142 0 0 0 70.136986-24.624738L783.332867 565.805819a27.286871 27.286871 0 0 0-2.252575-27.542845z" fill="#B8D9FF" p-id="1636"></path><path d="M629.082692 698.246975a52.525947 52.525947 0 0 0 70.136986-24.573542l69.215478-143.960004c0-0.460754 0.307169-0.921508 0.511949-1.382262l-6.655334-3.225278-65.990201 137.20228a55.956004 55.956004 0 0 1-74.744526 26.211779l-49.09589-23.60084a47.867213 47.867213 0 0 1-5.119488 3.737226z" fill="#DDEBFE" p-id="1637"></path><path d="M699.219678 673.673433a52.525947 52.525947 0 0 1-70.136986 24.573542l-61.433857-29.590641a52.730727 52.730727 0 0 1-16.791921 7.525648l82.730927 39.778422a55.956004 55.956004 0 0 0 74.744526-26.211779l72.850315-151.485651a25.59744 25.59744 0 0 0-5.785022-6.245776 29.437056 29.437056 0 0 0-4.556344-2.815718h-0.511949l-1.228677-0.563144c0 0.460754-0.307169 0.921508-0.511949 1.382262z" fill="#DDEBFE" p-id="1638"></path><path d="M554.952505 469.405859a29.334667 29.334667 0 0 1 39.471253-13.515448l124.813118 60.0004-5.733826-14.180982-125.273873-60.256374a29.693031 29.693031 0 0 0-39.676032 13.873812l-64.351965 133.874613a51.706829 51.706829 0 0 1 25.034296-24.727127z" fill="#FFFFFF" p-id="1639"></path><path d="M504.627937 667.376462zM485.173883 644.645935a46.740926 46.740926 0 0 1-5.631437-3.174082 51.911609 51.911609 0 0 0 25.085491 25.59744l10.59734 5.119488a51.758024 51.758024 0 0 0 35.273273 3.634837z" fill="#B8D9FF" p-id="1640"></path><path d="M480.668733 623.860814l-5.631437-2.662134c0 1.894211 0 3.788421 0.409559 5.682632 4.761124 1.689431 10.648535 2.662134 14.488151 4.453954l77.611439 37.321068a47.867213 47.867213 0 0 0 5.119488-3.737226l-90.614938-43.566843z" fill="#DDEBFE" p-id="1641"></path><path d="M567.546445 668.656334l-77.611439-37.321068c-3.839616-1.791821-9.727027-2.764524-14.488151-4.453954a52.884312 52.884312 0 0 0 4.095591 14.590541 46.740926 46.740926 0 0 0 5.631437 3.174082l65.580642 31.536047a52.730727 52.730727 0 0 0 16.79192-7.525648z" fill="#DDEBFE" p-id="1642"></path><path d="M481.846215 621.352265l27.389261-56.877512a51.706829 51.706829 0 0 0-25.034296 24.727127l-4.044396 8.344765a52.986701 52.986701 0 0 0-5.119488 20.477953z" fill="#FFFFFF" p-id="1643"></path><path d="M481.846215 621.352265l-6.808919-3.276473v3.122888l5.631437 2.662134z" fill="#DDEBFE" p-id="1644"></path><path d="M678.383362 496.283172s79.352065-79.864014 97.628637-99.676433 76.792321-66.962904 120.666333-0.307169c0 0-46.075392-23.39606-59.590841-8.959104s-42.440556 4.453955-63.788821 27.850015S691.182082 503.860014 691.182082 503.860014s-4.812319 1.228677-12.79872-7.576842z" fill="#F2F7FC" p-id="1645"></path><path d="M752.615938 520.191181l-15.358464 9.573443c-13.361864 8.293571-35.119688 6.39936-53.345065-2.354965l-42.082192-20.477952c-18.174183-8.754325-34.505349-25.034297-36.348365-40.648735l-1.894211-18.327768-5.733826-2.559744 1.023897 18.890911c2.09899 17.713429 16.689531 35.375662 37.321068 45.30747l47.764824 22.986501c20.477952 9.931807 43.618038 10.238976 58.720528 0.870313l14.79532-11.006899z" fill="#DDEBFE" p-id="1646"></path><path d="M758.247375 776.882312h-105.256674a25.59744 25.59744 0 0 1-24.112789-17.40626 25.290271 25.290271 0 0 0 24.112789 33.839816h105.256674a25.290271 25.290271 0 0 0 24.112789-33.839816 25.59744 25.59744 0 0 1-24.112789 17.40626zM559.09929 831.712029H179.745225a25.59744 25.59744 0 0 1-24.112788-17.40626 25.290271 25.290271 0 0 0 24.112788 33.839816h379.354065a25.59744 25.59744 0 0 0 25.59744-25.59744 24.471153 24.471153 0 0 0-1.484651-8.242376 25.59744 25.59744 0 0 1-24.112789 17.40626z" fill="#B8D9FF" p-id="1647"></path><path d="M652.990701 776.882312h105.256674a25.59744 25.59744 0 0 0 24.112789-17.40626 25.59744 25.59744 0 0 0-24.112789-17.150285h-105.256674a25.59744 25.59744 0 0 0-24.112789 17.355065 25.59744 25.59744 0 0 0 24.112789 17.20148zM559.09929 796.950705H179.745225a25.59744 25.59744 0 0 0-24.112788 17.355064 25.59744 25.59744 0 0 0 24.112788 17.40626h379.354065a25.59744 25.59744 0 0 0 24.112789-17.40626 25.59744 25.59744 0 0 0-24.112789-17.355064z" fill="#FFFFFF" p-id="1648"></path><path d="M671.216078 480.924708c-8.907909 15.0001-15.819218 26.877312-18.532546 31.536046l31.075292 14.948905c18.225377 8.754325 39.983202 10.648535 53.345066 2.354965l15.358464-9.573443zM603.434057 448.211179l1.89421 18.327767a38.959304 38.959304 0 0 0 8.70313 18.942106l15.716828-24.471153z" fill="#B8D9FF" p-id="1649"></path><path d="M717.086691 405.924208c26.621338-40.955904 36.245975-74.539746 2.40616-108.789122s-70.290571-13.925007-82.577343-3.378862c-14.744126 12.645135-41.416658 48.686331-10.238976 78.328168s38.908109 34.044596 38.90811 34.044595l-35.836417 54.880912 41.365464 19.914809c13.617838-22.832917 31.587241-52.781922 45.973002-75.0005z" fill="#FFFFFF" p-id="1650"></path><path d="M618.475225 344.61571a18.993301 37.986601 38.84 1 0 47.646422-59.175552 18.993301 37.986601 38.84 1 0-47.646422 59.175552Z" fill="#4589F5" p-id="1651"></path><path d="M699.014899 282.493351S711.660034 302.049795 679.20248 341.009099s-52.269973 31.075292-52.269973 31.075293 31.945605 30.051395 38.447355 34.044595c0 0 15.358464-0.614339 22.320968-9.778222l-42.952505 71.672833 26.774923 13.361863s41.365463-67.782022 50.631737-83.29407c6.860114-11.518848 18.634937-31.126487 19.300469-52.269973 0.921508-23.293671-15.819218-50.887711-42.440555-63.328067z" fill="#F2F7FC" p-id="1652"></path><path d="M711.916008 290.172583s29.027497 35.375662 2.50855 83.703629-75.717228 131.622038-75.717229 131.622038l14.180982 7.064894 68.089191-112.628737s27.542846-38.652135 19.095691-68.652335a73.771823 73.771823 0 0 0-28.157185-41.109489z" fill="#B8D9FF" p-id="1653"></path><path d="M629.748225 461.009899l-15.819218 24.471153a74.488551 74.488551 0 0 0 13.0035 12.645135c2.457354-3.890811 8.293571-13.054695 18.327767-29.641835z" fill="#FFFFFF" p-id="1654"></path><path d="M711.916008 290.172583a55.648835 55.648835 0 0 0-12.901109-7.679232s34.19818 34.761324-11.314069 113.857414c-18.737326 32.508749-32.559944 55.853615-42.338166 72.133587l11.723627 5.631436c19.914809-34.40296 49.249475-85.239476 55.751225-97.270273 10.034197-19.146885 23.49845-50.426957-0.921508-86.672932z" fill="#DDEBFE" p-id="1655"></path><path d="M627.034897 498.126187a82.935706 82.935706 0 0 0 11.723627 7.525648c2.150185-3.634837 9.266273-15.870413 18.327767-31.536047l-11.723627-5.631436c-10.034197 16.587141-15.614439 25.751025-18.327767 29.641835z" fill="#DDEBFE" p-id="1656"></path></svg>