<svg xml:space="preserve" style="enable-background:new 0 0 1024 1024;" viewBox="0 0 1024 1024" y="0px" x="0px" xmlns:xlink="http://www.w3.org/1999/xlink" xmlns="http://www.w3.org/2000/svg" id="图层_1" version="1.1">
<style type="text/css">
	.st0{fill:url(#SVGID_1_);}
	.st1{fill:url(#SVGID_2_);}
	.st2{fill:url(#SVGID_3_);}
	.st3{fill:url(#SVGID_4_);}
	.st4{fill:url(#SVGID_5_);}
	.st5{fill:url(#SVGID_6_);}
	.st6{fill:url(#SVGID_7_);}
	.st7{fill:url(#SVGID_8_);}
	.st8{fill:url(#SVGID_9_);}
	.st9{fill:url(#SVGID_10_);}
	.st10{fill:url(#SVGID_11_);}
	.st11{fill:url(#SVGID_12_);}
	.st12{fill:url(#SVGID_13_);}
	.st13{fill:url(#SVGID_14_);}
	.st14{fill:url(#SVGID_15_);}
	.st15{fill:#C2BDFC;}
	.st16{fill:#5747DB;}
	.st17{fill:url(#SVGID_16_);}
	.st18{fill:url(#SVGID_17_);}
	.st19{fill:url(#SVGID_18_);}
</style>
<g>
	<g>
		<linearGradient y2="349.5206" x2="903.0493" y1="349.5206" x1="119.9221" gradientUnits="userSpaceOnUse" id="SVGID_1_">
			<stop style="stop-color:#C1B7FE" offset="5.154639e-03"></stop>
			<stop style="stop-color:#7D6FF8" offset="1"></stop>
		</linearGradient>
		<polygon points="511.5,268.8 119.9,422.1 154.3,426.5 519,289.8 876.2,430.3 903,422.1" class="st0"></polygon>
		<linearGradient y2="484.5543" x2="637.6342" y1="290.9598" x1="726.6252" gradientUnits="userSpaceOnUse" id="SVGID_2_">
			<stop style="stop-color:#C5BAFE" offset="5.154639e-03"></stop>
			<stop style="stop-color:#7D6FF8" offset="1"></stop>
		</linearGradient>
		<polygon points="880,430.3 554.1,575.5 511.5,559.4 511.5,286" class="st1"></polygon>
		<linearGradient y2="426.8895" x2="504.8766" y1="441.6569" x1="161.5339" gradientUnits="userSpaceOnUse" id="SVGID_3_">
			<stop style="stop-color:#7D6FF8" offset="0"></stop>
			<stop style="stop-color:#C5BAFE" offset="0.9948"></stop>
		</linearGradient>
		<polygon points="511.5,286 511.5,559.4 488.4,568.2 154.3,426.5" class="st2"></polygon>
	</g>
	<g>
		<g>
			<linearGradient y2="214.0526" x2="811.8089" y1="214.0526" x1="449.2667" gradientUnits="userSpaceOnUse" id="SVGID_4_">
				<stop style="stop-color:#BCACFF" offset="5.154639e-03"></stop>
				<stop style="stop-color:#7864FF" offset="1"></stop>
			</linearGradient>
			<polygon points="760.1,285.7 811.8,262.7 504.6,142.4 449.3,164" class="st3"></polygon>
			<linearGradient y2="354.8655" x2="760.0575" y1="354.8655" x1="449.2667" gradientUnits="userSpaceOnUse" id="SVGID_5_">
				<stop style="stop-color:#BCACFF" offset="5.154639e-03"></stop>
				<stop style="stop-color:#7864FF" offset="1"></stop>
			</linearGradient>
			<polygon points="449.3,164 449.3,414.3 760.1,545.7 760.1,285.4" class="st4"></polygon>
			<linearGradient y2="216.9811" x2="785.9332" y1="532.7838" x1="785.9332" gradientUnits="userSpaceOnUse" id="SVGID_6_">
				<stop style="stop-color:#7864FF" offset="0"></stop>
				<stop style="stop-color:#BCACFF" offset="0.9948"></stop>
			</linearGradient>
			<polygon points="760.1,285.7 760.1,546.8 811.8,513.7 811.8,262.7" class="st5"></polygon>
		</g>
		<g>
			<linearGradient y2="278.4852" x2="696.3594" y1="278.4852" x1="333.8173" gradientUnits="userSpaceOnUse" id="SVGID_7_">
				<stop style="stop-color:#DDE7FF" offset="5.154639e-03"></stop>
				<stop style="stop-color:#999FFF" offset="1"></stop>
			</linearGradient>
			<polygon points="644.6,350.2 696.4,327.1 389.1,206.8 333.8,228.5" class="st6"></polygon>
			<linearGradient y2="414.8226" x2="644.608" y1="414.8226" x1="333.8173" gradientUnits="userSpaceOnUse" id="SVGID_8_">
				<stop style="stop-color:#DDE7FF" offset="5.154639e-03"></stop>
				<stop style="stop-color:#999FFF" offset="1"></stop>
			</linearGradient>
			<polygon points="333.8,228.5 333.8,479.5 644.6,601.2 644.6,350.2" class="st7"></polygon>
			<linearGradient y2="597.9465" x2="670.4838" y1="345.233" x1="670.4838" gradientUnits="userSpaceOnUse" id="SVGID_9_">
				<stop style="stop-color:#DDE7FF" offset="5.154639e-03"></stop>
				<stop style="stop-color:#999FFF" offset="1"></stop>
			</linearGradient>
			<polygon points="644.6,350.2 644.6,601.2 696.4,578.1 696.4,327.1" class="st8"></polygon>
		</g>
		<g>
			<linearGradient y2="332.7584" x2="578.8875" y1="332.7584" x1="216.3452" gradientUnits="userSpaceOnUse" id="SVGID_10_">
				<stop style="stop-color:#FFE7FF" offset="5.154639e-03"></stop>
				<stop style="stop-color:#D99FFF" offset="1"></stop>
			</linearGradient>
			<polygon points="527.1,404.4 578.9,381.4 271.7,261.1 216.3,282.7" class="st9"></polygon>
			<linearGradient y2="468.5261" x2="527.136" y1="468.5261" x1="216.3452" gradientUnits="userSpaceOnUse" id="SVGID_11_">
				<stop style="stop-color:#FFE7FF" offset="5.154639e-03"></stop>
				<stop style="stop-color:#D99FFF" offset="1"></stop>
			</linearGradient>
			<polygon points="216.3,282.7 216.3,533 527.1,654.3 527.1,404.1" class="st10"></polygon>
			<linearGradient y2="337.3098" x2="553.0117" y1="641.8984" x1="553.0117" gradientUnits="userSpaceOnUse" id="SVGID_12_">
				<stop style="stop-color:#D99FFF" offset="0"></stop>
				<stop style="stop-color:#FFE7FF" offset="0.9948"></stop>
			</linearGradient>
			<polygon points="527.1,404.4 527.1,655.5 578.9,632.4 578.9,381.4" class="st11"></polygon>
		</g>
	</g>
	<g>
		<linearGradient y2="663.0969" x2="903.0493" y1="663.0969" x1="119.9221" gradientUnits="userSpaceOnUse" id="SVGID_13_">
			<stop style="stop-color:#C1B7FE" offset="5.154639e-03"></stop>
			<stop style="stop-color:#7D6FF8" offset="1"></stop>
		</linearGradient>
		<polygon points="903,617.6 511.5,792 119.9,617.6 124.8,615.7 130.3,613.5 289.9,540.9 290,540.9 295.4,538.7 
			295.5,538.7 307,534.3 307.1,534.2 469.5,606.6 469.6,606.6 511.5,625.3 554,606.4 554.1,606.4 715.9,534.2 716,534.3 
			727.4,538.7 727.5,538.7 732.9,540.9 733.1,540.9 892.7,613.5 898.2,615.7" class="st12"></polygon>
		<linearGradient y2="660.4068" x2="479.9545" y1="868.4492" x1="191.8957" gradientUnits="userSpaceOnUse" id="SVGID_14_">
			<stop style="stop-color:#6052E9" offset="5.154639e-03"></stop>
			<stop style="stop-color:#8071FE" offset="1"></stop>
		</linearGradient>
		<polygon points="119.9,617.6 119.9,766 511.5,940.5 511.5,792" class="st13"></polygon>
		<linearGradient y2="779.0322" x2="903.0493" y1="779.0322" x1="511.4857" gradientUnits="userSpaceOnUse" id="SVGID_15_">
			<stop style="stop-color:#6052E9" offset="5.154639e-03"></stop>
			<stop style="stop-color:#8071FE" offset="1"></stop>
		</linearGradient>
		<polygon points="903,617.6 903,766 511.5,940.5 511.5,792" class="st14"></polygon>
		<polygon points="753.3,720.1 753.3,740.4 695.8,766.1 695.8,745.8" class="st15"></polygon>
		<polygon points="753.3,763.3 753.3,783.7 695.8,809.3 695.8,789" class="st15"></polygon>
		<g>
			<polygon points="119.9,442.4 119.9,590.9 511.5,765.3 511.5,616.9" class="st16"></polygon>
			<polygon points="903,442.4 903,590.9 511.5,765.3 511.5,616.9" class="st16"></polygon>
		</g>
		<linearGradient y2="508.3289" x2="903.0493" y1="508.3289" x1="119.9221" gradientUnits="userSpaceOnUse" id="SVGID_16_">
			<stop style="stop-color:#C1B7FE" offset="5.154639e-03"></stop>
			<stop style="stop-color:#7D6FF8" offset="1"></stop>
		</linearGradient>
		<polygon points="903,422.7 727.5,500.9 727.4,500.9 511.5,597.1 295.5,500.9 295.4,500.9 119.9,422.7 154.3,419.5 
			511.5,576.2 862.3,421.9" class="st17"></polygon>
		<linearGradient y2="465.5221" x2="479.9545" y1="673.5645" x1="191.8957" gradientUnits="userSpaceOnUse" id="SVGID_17_">
			<stop style="stop-color:#C5BAFE" offset="5.154639e-03"></stop>
			<stop style="stop-color:#7D6FF8" offset="1"></stop>
		</linearGradient>
		<polygon points="119.9,422.7 119.9,571.1 511.5,745.6 511.5,597.1" class="st18"></polygon>
		<linearGradient y2="584.1475" x2="903.0493" y1="584.1475" x1="511.4857" gradientUnits="userSpaceOnUse" id="SVGID_18_">
			<stop style="stop-color:#C5BAFE" offset="5.154639e-03"></stop>
			<stop style="stop-color:#7D6FF8" offset="1"></stop>
		</linearGradient>
		<polygon points="903,422.7 903,571.1 511.5,745.6 511.5,597.1" class="st19"></polygon>
	</g>
</g>
</svg>
