<svg xml:space="preserve" style="enable-background:new 0 0 1024 1024;" viewBox="0 0 1024 1024" y="0px" x="0px" xmlns:xlink="http://www.w3.org/1999/xlink" xmlns="http://www.w3.org/2000/svg" id="图层_1" version="1.1">
<style type="text/css">
	.st0{fill:url(#SVGID_1_);}
	.st1{fill:url(#SVGID_2_);}
	.st2{fill:#5747DB;}
	.st3{fill:url(#SVGID_3_);}
	.st4{fill:url(#SVGID_4_);}
	.st5{fill:url(#SVGID_5_);}
	.st6{fill:url(#SVGID_6_);}
	.st7{fill:url(#SVGID_7_);}
	.st8{fill:url(#SVGID_8_);}
	.st9{opacity:0.5;}
	.st10{fill:url(#SVGID_9_);}
	.st11{fill:url(#SVGID_10_);}
	.st12{fill:#FFFFFF;}
	.st13{fill:#B1A9F7;}
	.st14{fill:url(#SVGID_11_);}
	.st15{fill:url(#SVGID_12_);}
	.st16{fill:url(#SVGID_13_);}
	.st17{fill:url(#SVGID_14_);}
	.st18{fill:url(#SVGID_15_);}
	.st19{fill:url(#SVGID_16_);}
	.st20{fill:url(#SVGID_17_);}
	.st21{fill:url(#SVGID_18_);}
	.st22{fill:url(#SVGID_19_);}
	.st23{fill:url(#SVGID_20_);}
	.st24{fill:url(#SVGID_21_);}
	.st25{fill:#F2F5FB;}
	.st26{opacity:0.5;fill:url(#SVGID_22_);}
	.st27{fill:url(#SVGID_23_);}
	.st28{fill:url(#SVGID_24_);}
	.st29{fill:url(#SVGID_25_);}
	.st30{fill:url(#SVGID_26_);}
	.st31{fill:url(#SVGID_27_);}
	.st32{fill:url(#SVGID_28_);}
	.st33{fill:url(#SVGID_29_);}
	.st34{fill:#C2BDFC;}
	.st35{fill:url(#SVGID_30_);}
	.st36{fill:url(#SVGID_31_);}
	.st37{fill:url(#SVGID_32_);}
	.st38{fill:url(#SVGID_33_);}
	.st39{fill:url(#SVGID_34_);}
	.st40{fill:#7C72ED;}
	.st41{fill:url(#SVGID_35_);}
	.st42{fill:url(#SVGID_36_);}
	.st43{fill:#6655D7;}
	.st44{fill:url(#SVGID_37_);}
	.st45{fill:#8B80FB;}
	.st46{fill:url(#SVGID_38_);}
	.st47{fill:url(#SVGID_39_);}
	.st48{fill:url(#SVGID_40_);}
	.st49{fill:url(#SVGID_41_);}
	.st50{fill:url(#SVGID_42_);}
	.st51{fill:url(#SVGID_43_);}
	.st52{fill:url(#SVGID_44_);}
	.st53{fill:url(#SVGID_45_);}
	.st54{fill:url(#SVGID_46_);}
	.st55{fill:url(#SVGID_47_);}
	.st56{fill:url(#SVGID_48_);}
	.st57{fill:url(#SVGID_49_);}
	.st58{fill:url(#SVGID_50_);}
	.st59{fill:url(#SVGID_51_);}
	.st60{fill:url(#SVGID_52_);}
	.st61{fill:url(#SVGID_53_);}
	.st62{opacity:0.5;fill:url(#SVGID_54_);}
	.st63{fill:url(#SVGID_55_);}
	.st64{fill:url(#SVGID_56_);}
	.st65{fill:url(#SVGID_57_);}
	.st66{fill:url(#SVGID_58_);}
	.st67{fill:url(#SVGID_59_);}
	.st68{fill:url(#SVGID_60_);}
	.st69{fill:url(#SVGID_61_);}
	.st70{fill:url(#SVGID_62_);}
	.st71{fill:url(#SVGID_63_);}
	.st72{fill:url(#SVGID_64_);}
	.st73{fill:url(#SVGID_65_);}
	.st74{fill:url(#SVGID_66_);}
	.st75{fill:url(#SVGID_67_);}
	.st76{fill:url(#SVGID_68_);}
	.st77{fill:url(#SVGID_69_);}
	.st78{fill:url(#SVGID_70_);}
	.st79{fill:url(#SVGID_71_);}
	.st80{fill:url(#SVGID_72_);}
	.st81{fill:url(#SVGID_73_);}
	.st82{fill:url(#SVGID_74_);}
	.st83{fill:url(#SVGID_75_);}
	.st84{opacity:0.5;fill:url(#SVGID_76_);}
	.st85{fill:url(#SVGID_77_);}
	.st86{fill:url(#SVGID_78_);}
	.st87{fill:url(#SVGID_79_);}
	.st88{fill:url(#SVGID_80_);}
	.st89{fill:url(#SVGID_81_);}
	.st90{fill:url(#SVGID_82_);}
	.st91{fill:url(#SVGID_83_);}
	.st92{fill:url(#SVGID_84_);}
	.st93{fill:url(#SVGID_85_);}
	.st94{fill:url(#SVGID_86_);}
	.st95{fill:url(#SVGID_87_);}
	.st96{fill:url(#SVGID_88_);}
	.st97{fill:url(#SVGID_89_);}
	.st98{fill:url(#SVGID_90_);}
	.st99{fill:url(#SVGID_91_);}
</style>
<g>
	<g>
		<linearGradient y2="671.1693" x2="946.0818" y1="671.1693" x1="485.9841" gradientUnits="userSpaceOnUse" id="SVGID_1_">
			<stop style="stop-color:#C5BAFE" offset="5.154639e-03"></stop>
			<stop style="stop-color:#7D6FF8" offset="1"></stop>
		</linearGradient>
		<path d="M946.1,507.8l-0.2,40.5l-0.8,84.1v0.8c-0.1,0.7-0.2,1.4-0.3,2.1c-0.1,1-0.2,2.1-0.5,3.1c0,0.2,0,0.4-0.1,0.6
			c-0.2,0.7-0.5,1.3-0.7,2c-0.3,0.9-0.7,1.9-1.1,2.9c-0.1,0.2-0.2,0.4-0.2,0.6c-0.3,0.6-0.7,1.2-1.1,1.8c-0.7,1.1-1.2,2.1-1.9,3.1
			c-0.2,0.3-0.3,0.5-0.5,0.8c-0.3,0.5-0.9,0.9-1.3,1.4c-0.9,1.2-1.9,2.3-3,3.4c-0.3,0.4-0.5,0.7-0.8,1c-0.8,0.8-1.7,1.5-2.6,2.3
			c-0.3,0.3-0.6,0.5-0.9,0.8c-1.4,1.3-3,2.4-4.6,3.6c-0.2,0.1-0.6,0.3-0.8,0.5c-1.2,0.8-2.6,1.6-4,2.5c-1.2,0.7-2.3,1.4-3.6,2.1
			c-1.5,0.8-3,1.6-4.7,2.4c-1.1,0.6-2.1,1.2-3.3,1.7c-0.5,0.3-1.1,0.5-1.6,0.8L578.2,817.9c-3.9,1.7-8,3.3-12.3,4.7
			c-1.2,0.4-2.4,0.8-3.7,1.2c-3.3,1.1-6.7,2.1-10.1,2.9c-0.8,0.2-1.6,0.5-2.3,0.7c-0.5,0.1-1,0.2-1.5,0.3c-2.1,0.5-4.4,0.9-6.7,1.4
			c-1.7,0.4-3.4,0.7-5.1,1.1c-2.4,0.4-4.8,0.8-7.2,1.1c-1.4,0.3-2.8,0.5-4.2,0.7c-0.2,0.1-0.5,0.1-0.7,0.1
			c-4.9,0.7-9.8,1.2-14.7,1.6c-0.3,0.1-0.7,0.1-1.1,0.1c-1.2,0.1-2.4,0.1-3.5,0.2c-2.9,0.2-5.8,0.3-8.8,0.4c-0.7,0-1.4,0.1-2.1,0.1
			H486V710.1c1.9,0,3.8,0,5.7-0.1c1.8,0,3.7-0.1,5.6-0.1c3-0.1,5.8-0.3,8.8-0.4c1.5-0.1,3-0.2,4.6-0.3c4.9-0.4,9.9-0.9,14.7-1.6
			c1.6-0.2,3.3-0.5,4.9-0.8c2.5-0.3,4.9-0.7,7.3-1.1c1.7-0.3,3.4-0.7,5-1.1c2.3-0.4,4.5-0.9,6.8-1.4c1.2-0.3,2.5-0.7,3.7-1
			c3.5-0.9,6.9-1.9,10.2-2.9c1.2-0.4,2.5-0.7,3.7-1.2c4.2-1.4,8.3-3,12.3-4.7l329.1-145.4c1.7-0.8,3.3-1.6,4.9-2.4
			c1.6-0.8,3.2-1.6,4.7-2.4c1.2-0.8,2.4-1.4,3.6-2.2c1.3-0.8,2.7-1.7,4-2.5c2-1.4,3.9-2.7,5.5-4.1c0.3-0.3,0.6-0.5,0.8-0.8
			c1.2-1.1,2.4-2.2,3.5-3.3c1.2-1.1,2.1-2.3,3-3.4c0.6-0.7,1.2-1.4,1.7-2.2c0.7-1,1.3-2,1.9-3.1c0.5-0.8,1-1.6,1.3-2.4
			c0.5-1,0.8-1.9,1.2-2.9c0.2-0.9,0.6-1.7,0.8-2.5c0.2-1.1,0.3-2.1,0.5-3.1C945.8,509.7,946,508.7,946.1,507.8z" class="st0"></path>
		<linearGradient y2="675.9058" x2="485.9841" y1="675.9058" x1="57.4171" gradientUnits="userSpaceOnUse" id="SVGID_2_">
			<stop style="stop-color:#C5BAFE" offset="5.154639e-03"></stop>
			<stop style="stop-color:#7D6FF8" offset="1"></stop>
		</linearGradient>
		<path d="M486,710.1v124.5h-2.4c-0.9,0-1.8,0.1-2.7,0c-1.1,0-2.1-0.1-3.3-0.1c-2.1-0.1-4.4-0.1-6.5-0.2
			c-1-0.1-2-0.1-3-0.1c-1-0.1-2.1-0.2-3-0.2c-2.2-0.2-4.4-0.4-6.5-0.6c-1-0.1-2.1-0.1-3-0.3c-0.9-0.1-1.8-0.3-2.8-0.4
			c-2.3-0.3-4.5-0.6-6.8-0.9c-1.1-0.2-2.2-0.3-3.3-0.4c-0.7-0.1-1.4-0.3-2.1-0.4c-2.7-0.4-5.4-0.9-8-1.5c-1.2-0.2-2.3-0.4-3.4-0.6
			c-0.4-0.1-0.7-0.3-1.2-0.3c-4.7-1.1-9.4-2.3-13.9-3.6c-0.2-0.1-0.5-0.1-0.7-0.2c-2.1-0.6-4-1.3-5.8-1.9c-1.2-0.4-2.3-0.7-3.4-1.1
			c-3.3-1.2-6.5-2.4-9.6-3.8L95.7,682.5c-25.6-11.2-38.4-26-38.3-40.7l0.7-76.1l0.2-48.5c0,1.9,0.2,3.7,0.6,5.5
			c0.4,1.9,1,3.7,1.8,5.5c1.6,3.6,4,7.2,7.2,10.6c6.4,7,16,13.5,28.8,19.1l298.8,135.4c3,1.4,6.3,2.6,9.5,3.8
			c1.2,0.4,2.3,0.8,3.4,1.1c2.2,0.7,4.4,1.5,6.6,2.1c4.5,1.3,9.1,2.5,13.9,3.6l4.4,0.9c2.6,0.5,5.4,1,8.1,1.5
			c1.8,0.3,3.6,0.6,5.4,0.8c2.3,0.3,4.6,0.6,6.9,0.9c1.9,0.3,3.9,0.4,5.8,0.6c2.2,0.3,4.4,0.4,6.5,0.6c2,0.2,4,0.3,6,0.4
			c2.2,0.1,4.4,0.2,6.6,0.3c2,0,4,0.1,5.9,0.1H486z" class="st1"></path>
		<g>
			
				<ellipse ry="30.5" rx="24.1" cy="719.7" cx="295.1" class="st2" transform="matrix(0.9903 -0.1387 0.1387 0.9903 -96.9759 47.8955)"></ellipse>
			
				<linearGradient gradientTransform="matrix(-1.347504e-02 -0.9796 0.9793 6.959573e-02 93.3469 8317.6006)" y2="316.4187" x2="7803.7007" y1="316.4187" x1="7752.8359" gradientUnits="userSpaceOnUse" id="SVGID_3_">
				<stop style="stop-color:#71BBFF" offset="5.154639e-03"></stop>
				<stop style="stop-color:#5DA5FF" offset="1"></stop>
			</linearGradient>
			<path d="M282.5,743.9l13.1,0.7c10.9,0.6,19.6-10,19.3-23.7c-0.2-13.7-9.3-25.3-20.2-25.9l-13.1-0.7L282.5,743.9z" class="st3"></path>
			
				<linearGradient gradientTransform="matrix(0.997 -3.421811e-02 8.624308e-03 1.0009 -24.1961 147.9281)" y2="596.9888" x2="295.2326" y1="559.1034" x1="311.4183" gradientUnits="userSpaceOnUse" id="SVGID_4_">
				<stop style="stop-color:#99FFFF" offset="5.154639e-03"></stop>
				<stop style="stop-color:#69B6FF" offset="1"></stop>
			</linearGradient>
			<path d="M281.6,694.3c10.9,0.6,20,12.2,20.2,25.9c0.2,13.7-8.4,24.3-19.3,23.7c-10.9-0.6-20-12.2-20.2-25.9
				C262,704.3,270.6,693.7,281.6,694.3z" class="st4"></path>
			
				<linearGradient gradientTransform="matrix(0.997 -3.421811e-02 8.624308e-03 1.0009 -24.1961 147.9281)" y2="586.5205" x2="318.1907" y1="576.339" x1="281.8914" gradientUnits="userSpaceOnUse" id="SVGID_5_">
				<stop style="stop-color:#71BBFF" offset="5.154639e-03"></stop>
				<stop style="stop-color:#5DA5FF" offset="1"></stop>
			</linearGradient>
			<path d="M279.7,694.9c10.9,0.6,20,12.2,20.2,25.9s-8.4,24.3-19.3,23.7c-10.9-0.6-20-12.2-20.2-25.9
				C260.2,704.9,268.8,694.3,279.7,694.9z" class="st5"></path>
		</g>
		<g>
			
				<ellipse ry="30.5" rx="24.1" cy="665.8" cx="173.8" class="st2" transform="matrix(0.9903 -0.1387 0.1387 0.9903 -90.6795 30.5515)"></ellipse>
			
				<linearGradient gradientTransform="matrix(-1.347504e-02 -0.9796 0.9793 6.959573e-02 93.3469 8317.6006)" y2="193.2063" x2="7849.9121" y1="193.2063" x1="7799.0474" gradientUnits="userSpaceOnUse" id="SVGID_6_">
				<stop style="stop-color:#D79FFF" offset="5.154639e-03"></stop>
				<stop style="stop-color:#C389FF" offset="1"></stop>
			</linearGradient>
			<path d="M161.2,690l13.1,0.7c10.9,0.6,19.6-10,19.3-23.7c-0.2-13.7-9.3-25.3-20.2-25.9l-13.1-0.7L161.2,690z" class="st6"></path>
			
				<linearGradient gradientTransform="matrix(0.997 -3.421811e-02 8.624308e-03 1.0009 -24.1961 147.9281)" y2="539.0533" x2="174.091" y1="501.1679" x1="190.2768" gradientUnits="userSpaceOnUse" id="SVGID_7_">
				<stop style="stop-color:#FFE5FF" offset="5.154639e-03"></stop>
				<stop style="stop-color:#CF9AFF" offset="1"></stop>
			</linearGradient>
			<path d="M160.3,640.4c10.9,0.6,20,12.2,20.2,25.9c0.2,13.7-8.4,24.3-19.3,23.7s-20-12.2-20.2-25.9
				C140.7,650.5,149.4,639.8,160.3,640.4z" class="st7"></path>
			
				<linearGradient gradientTransform="matrix(0.997 -3.421811e-02 8.624308e-03 1.0009 -24.1961 147.9281)" y2="528.585" x2="197.0492" y1="518.4034" x1="160.7498" gradientUnits="userSpaceOnUse" id="SVGID_8_">
				<stop style="stop-color:#D79FFF" offset="5.154639e-03"></stop>
				<stop style="stop-color:#C389FF" offset="1"></stop>
			</linearGradient>
			<path d="M158.4,641c10.9,0.6,20,12.2,20.2,25.9c0.2,13.7-8.4,24.3-19.3,23.7s-20-12.2-20.2-25.9
				C138.9,651.1,147.5,640.4,158.4,641z" class="st8"></path>
		</g>
		<g class="st9">
			<path d="M946.1,511.3l-0.2,33.4c0,16-26.4,28.2-37.6,33.2L579.2,723.3c-25.7,11.3-59.6,16.9-93.2,16.7
				c-32.8-0.2-65.4-5.8-90.4-16.7L96.7,587.9c-10.1-4.4-38.5-14.3-38.5-29.3l0.2-37.8c0,1.9,0.2,3.7,0.6,5.5c0.4,1.9,1,3.7,1.8,5.5
				c1.6,3.6,4,7.2,7.2,10.6c6.4,7,16,13.5,28.8,19.1l298.8,135.4c3,1.4,6.3,2.6,9.5,3.8c1.2,0.4,2.3,0.8,3.4,1.1
				c2.2,0.7,4.4,1.5,6.6,2.1c4.5,1.3,9.1,2.5,13.9,3.6l4.4,0.9c2.6,0.5,5.4,1,8.1,1.5c1.8,0.3,3.6,0.6,5.4,0.8
				c2.3,0.3,4.6,0.6,6.9,0.9c1.9,0.3,3.9,0.4,5.8,0.6c2.2,0.3,4.4,0.4,6.5,0.6c2,0.2,4,0.3,6,0.4c2.2,0.1,4.4,0.2,6.6,0.3
				c2,0,4,0.1,5.9,0.1h1.5c1.9,0,3.8,0,5.7-0.1c1.8,0,3.7-0.1,5.6-0.1c3-0.1,5.8-0.3,8.8-0.4c1.5-0.1,3-0.2,4.6-0.3
				c4.9-0.4,9.9-0.9,14.7-1.6c1.6-0.2,3.3-0.5,4.9-0.8c2.5-0.3,4.9-0.7,7.3-1.1c1.7-0.3,3.4-0.7,5-1.1c2.3-0.4,4.5-0.9,6.8-1.4
				c1.2-0.3,2.5-0.7,3.7-1c3.5-0.9,6.9-1.9,10.2-2.9c1.2-0.4,2.5-0.7,3.7-1.2c4.2-1.4,8.3-3,12.3-4.7l329.1-145.4
				c1.7-0.8,3.3-1.6,4.9-2.4c1.6-0.8,3.2-1.6,4.7-2.4c1.2-0.8,2.4-1.4,3.6-2.2c1.3-0.8,2.7-1.7,4-2.5c2-1.4,3.9-2.7,5.5-4.1
				c0.3-0.3,0.6-0.5,0.8-0.8c1.2-1.1,2.4-2.2,3.5-3.3c1.2-1.1,2.1-2.3,3-3.4c0.6-0.7,1.2-1.4,1.7-2.2c0.7-1,1.3-2,1.9-3.1
				c0.5-0.8,1-1.6,1.3-2.4c0.5-1,0.8-1.9,1.2-2.9c0.2-0.9,0.6-1.7,0.8-2.5c0.2-1.1,0.3-2.1,0.5-3.1
				C945.8,513.2,946,512.2,946.1,511.3z" class="st2"></path>
		</g>
		<g>
			<linearGradient y2="324.969" x2="502.1944" y1="746.1745" x1="502.1944" gradientUnits="userSpaceOnUse" id="SVGID_9_">
				<stop style="stop-color:#C1B7FE" offset="5.154639e-03"></stop>
				<stop style="stop-color:#FFFFFF" offset="1"></stop>
			</linearGradient>
			<path d="M907.7,475.3c50.9,22.3,51.2,58.5,0.6,80.9L579.2,701.7c-50.5,22.3-132.8,22.3-183.7,0L96.7,566.3
				c-50.9-22.3-51.1-58.6-0.6-80.9L425.2,340c50.6-22.3,132.8-22.3,183.7,0L907.7,475.3z" class="st10"></path>
		</g>
		<g>
			<linearGradient y2="512.472" x2="946.0471" y1="512.472" x1="58.3418" gradientUnits="userSpaceOnUse" id="SVGID_10_">
				<stop style="stop-color:#C1B7FE" offset="5.154639e-03"></stop>
				<stop style="stop-color:#7D6FF8" offset="1"></stop>
			</linearGradient>
			<path d="M907.7,467c50.9,22.3,51.2,58.5,0.6,80.9L579.2,693.3c-50.5,22.3-132.8,22.3-183.7,0L96.7,557.9
				c-50.9-22.3-51.1-58.6-0.6-80.9l329.1-145.4c50.6-22.3,132.8-22.3,183.7,0L907.7,467z" class="st11"></path>
		</g>
		<g class="st9">
			<g>
				<path d="M486.9,640.9c-22.3,0-44.6-3.7-61.7-11.2l-177.4-82.1c-17.9-7.8-27.7-18.6-27.7-30.2
					c0-11.6,9.7-22.3,27.3-30.1l208.4-92.1c34.5-15.2,88.6-15.2,123.3,0l177.4,82.1c17.9,7.8,27.7,18.6,27.7,30.2
					c0,11.6-9.7,22.3-27.3,30.1l-208.5,92.1C531.6,637.2,509.3,640.9,486.9,640.9z M517.4,394.3c-19.8,0-39.6,3.3-54.6,10
					l-208.4,92.1c-13.2,5.8-20.5,13.3-20.5,21c0,7.8,7.4,15.3,20.8,21.2l177.4,82.1c30.3,13.3,79.4,13.3,109.4,0L750,528.5
					c13.2-5.8,20.5-13.3,20.5-21c0-7.8-7.4-15.3-20.8-21.2l-177.4-82.1C557.1,397.6,537.2,394.3,517.4,394.3z" class="st12"></path>
			</g>
		</g>
		<polygon points="698.1,723.1 754.2,698.3 754.2,675.9 698.1,700.7" class="st13"></polygon>
		<g>
			<polygon points="869.4,573.4 869.4,610.1 728.3,672.6 728.3,699.5 724,699.5 724,669.8 865.1,607.2 865.1,575.3" class="st13"></polygon>
		</g>
	</g>
	<g>
		<linearGradient y2="348.2767" x2="699.8288" y1="348.2767" x1="620.1255" gradientUnits="userSpaceOnUse" id="SVGID_11_">
			<stop style="stop-color:#6052E9" offset="5.154639e-03"></stop>
			<stop style="stop-color:#8071FE" offset="1"></stop>
		</linearGradient>
		<path d="M699.8,263.5l0,9.4l-0.2,126v0.2c0,0.2-0.1,0.3-0.1,0.5c0,0.2-0.1,0.5-0.1,0.7c0,0,0,0.1,0,0.1
			c0,0.2-0.1,0.3-0.2,0.5c-0.1,0.2-0.2,0.5-0.2,0.7c0,0,0,0.1-0.1,0.1c-0.1,0.1-0.2,0.3-0.2,0.4c-0.2,0.2-0.3,0.5-0.4,0.7
			c-0.1,0.1-0.1,0.1-0.1,0.2c-0.1,0.1-0.2,0.2-0.3,0.3c-0.2,0.3-0.4,0.5-0.7,0.8c-0.1,0.1-0.1,0.2-0.2,0.2c-0.2,0.2-0.4,0.3-0.6,0.5
			c-0.1,0.1-0.1,0.1-0.2,0.2c-0.3,0.3-0.7,0.6-1.1,0.8c-0.1,0-0.1,0.1-0.2,0.1c-0.3,0.2-0.6,0.4-0.9,0.6c-0.3,0.2-0.5,0.3-0.8,0.5
			c-0.3,0.2-0.7,0.4-1.1,0.6c-0.2,0.1-0.5,0.3-0.8,0.4c-0.1,0.1-0.2,0.1-0.4,0.2l-49.2,20.9c-0.9,0.4-1.9,0.8-2.9,1.1
			c-0.3,0.1-0.6,0.2-0.9,0.3c-0.8,0.2-1.6,0.5-2.4,0.7c-0.2,0-0.4,0.1-0.5,0.2c-0.1,0-0.2,0-0.3,0.1c-0.5,0.1-1,0.2-1.6,0.3
			c-0.4,0.1-0.8,0.2-1.2,0.2c-0.6,0.1-1.1,0.2-1.7,0.3c-0.3,0.1-0.7,0.1-1,0.2c-0.1,0-0.1,0-0.2,0c-1.1,0.2-2.3,0.3-3.4,0.4
			c-0.1,0-0.2,0-0.2,0c-0.3,0-0.6,0-0.8,0c-0.7,0-1.4,0.1-2.1,0.1c-0.2,0-0.3,0-0.5,0h-1.9V297.6c0.4,0,0.9,0,1.3,0
			c0.4,0,0.9,0,1.3,0c0.7,0,1.4-0.1,2.1-0.1c0.3,0,0.7,0,1.1-0.1c1.2-0.1,2.3-0.2,3.4-0.4c0.4,0,0.8-0.1,1.1-0.2
			c0.6-0.1,1.1-0.2,1.7-0.3c0.4-0.1,0.8-0.2,1.2-0.2c0.5-0.1,1.1-0.2,1.6-0.3c0.3-0.1,0.6-0.2,0.9-0.2c0.8-0.2,1.6-0.4,2.4-0.7
			c0.3-0.1,0.6-0.2,0.9-0.3c1-0.3,1.9-0.7,2.9-1.1l49.2-20.9c0.4-0.2,0.8-0.4,1.2-0.6c0.4-0.2,0.7-0.4,1.1-0.6
			c0.3-0.2,0.6-0.3,0.8-0.5c0.3-0.2,0.6-0.4,0.9-0.6c0.5-0.3,0.9-0.6,1.3-0.9c0.1-0.1,0.1-0.1,0.2-0.2c0.3-0.3,0.6-0.5,0.8-0.8
			c0.3-0.3,0.5-0.5,0.7-0.8c0.1-0.2,0.3-0.3,0.4-0.5c0.2-0.2,0.3-0.5,0.4-0.7c0.1-0.2,0.2-0.4,0.3-0.6c0.1-0.2,0.2-0.5,0.3-0.7
			c0.1-0.2,0.1-0.4,0.2-0.6c0.1-0.2,0.1-0.5,0.1-0.7C699.8,263.9,699.8,263.7,699.8,263.5z" class="st14"></path>
		<linearGradient y2="331.0195" x2="620.1255" y1="331.0195" x1="470.1832" gradientUnits="userSpaceOnUse" id="SVGID_12_">
			<stop style="stop-color:#6052E9" offset="5.154639e-03"></stop>
			<stop style="stop-color:#8071FE" offset="1"></stop>
		</linearGradient>
		<path d="M620.1,297.6v135.5h-0.6c-0.2,0-0.4,0-0.6,0c-0.2,0-0.5,0-0.8,0c-0.5,0-1,0-1.5-0.1c-0.2,0-0.5,0-0.7,0
			c-0.2,0-0.5,0-0.7-0.1c-0.5,0-1-0.1-1.5-0.1c-0.2,0-0.5,0-0.7-0.1c-0.2,0-0.4-0.1-0.7-0.1c-0.5-0.1-1.1-0.1-1.6-0.2
			c-0.2,0-0.5-0.1-0.8-0.1c-0.2,0-0.3-0.1-0.5-0.1c-0.6-0.1-1.2-0.2-1.9-0.4c-0.3,0-0.5-0.1-0.8-0.1c-0.1,0-0.2-0.1-0.3-0.1
			c-1.1-0.2-2.2-0.5-3.2-0.8c-0.1,0-0.1,0-0.2,0c-0.5-0.1-0.9-0.3-1.4-0.5c-0.3-0.1-0.5-0.2-0.8-0.3c-0.8-0.3-1.5-0.6-2.2-0.9
			l-119.7-55.3c-6-2.6-8.9-6.1-8.9-9.5l0.2-124.2l0-11.3c0,0.4,0,0.9,0.1,1.3c0.1,0.4,0.2,0.9,0.4,1.3c0.4,0.8,0.9,1.7,1.7,2.5
			c1.5,1.6,3.7,3.1,6.7,4.5l119.7,55.3c0.7,0.3,1.5,0.6,2.2,0.9c0.3,0.1,0.5,0.2,0.8,0.3c0.5,0.2,1,0.3,1.5,0.5
			c1.1,0.3,2.1,0.6,3.2,0.8l1,0.2c0.6,0.1,1.2,0.2,1.9,0.4c0.4,0.1,0.8,0.1,1.2,0.2c0.5,0.1,1.1,0.1,1.6,0.2
			c0.4,0.1,0.9,0.1,1.3,0.1c0.5,0.1,1,0.1,1.5,0.1c0.5,0,0.9,0.1,1.4,0.1c0.5,0,1,0,1.5,0.1c0.5,0,0.9,0,1.4,0H620.1z" class="st15"></path>
		<g>
			
				<ellipse ry="7.1" rx="5.6" cy="344" cx="599.4" class="st2" transform="matrix(0.9903 -0.1387 0.1387 0.9903 -41.9275 86.4779)"></ellipse>
			
				<linearGradient gradientTransform="matrix(-1.347504e-02 -0.9796 0.9793 6.959573e-02 93.3469 8317.6006)" y2="630.2083" x2="8190.3052" y1="630.2083" x1="8178.4541" gradientUnits="userSpaceOnUse" id="SVGID_13_">
				<stop style="stop-color:#D79FFF" offset="5.154639e-03"></stop>
				<stop style="stop-color:#C389FF" offset="1"></stop>
			</linearGradient>
			<path d="M596.5,349.7l3.1,0.2c2.5,0.1,4.6-2.3,4.5-5.5c-0.1-3.2-2.2-5.9-4.7-6l-3.1-0.2L596.5,349.7z" class="st16"></path>
			
				<linearGradient gradientTransform="matrix(0.997 -3.421811e-02 8.624308e-03 1.0009 -24.1961 147.9281)" y2="220.7406" x2="618.9599" y1="211.9136" x1="622.7311" gradientUnits="userSpaceOnUse" id="SVGID_14_">
				<stop style="stop-color:#FFE5FF" offset="5.154639e-03"></stop>
				<stop style="stop-color:#CF9AFF" offset="1"></stop>
			</linearGradient>
			<path d="M596.3,338.1c2.5,0.1,4.7,2.8,4.7,6s-2,5.7-4.5,5.5c-2.5-0.1-4.7-2.8-4.7-6
				C591.7,340.5,593.7,338,596.3,338.1z" class="st17"></path>
			
				<linearGradient gradientTransform="matrix(0.997 -3.421811e-02 8.624308e-03 1.0009 -24.1961 147.9281)" y2="218.3016" x2="624.309" y1="215.9294" x1="615.8515" gradientUnits="userSpaceOnUse" id="SVGID_15_">
				<stop style="stop-color:#D79FFF" offset="5.154639e-03"></stop>
				<stop style="stop-color:#C389FF" offset="1"></stop>
			</linearGradient>
			<path d="M595.9,338.3c2.5,0.1,4.7,2.8,4.7,6s-2,5.7-4.5,5.5s-4.7-2.8-4.7-6S593.3,338.1,595.9,338.3z" class="st18"></path>
		</g>
		<g>
			
				<ellipse ry="7.1" rx="5.6" cy="318.5" cx="599.4" class="st2" transform="matrix(0.9903 -0.1387 0.1387 0.9903 -38.3787 86.2306)"></ellipse>
			
				<linearGradient gradientTransform="matrix(-1.347504e-02 -0.9796 0.9793 6.959573e-02 93.3469 8317.6006)" y2="630.5681" x2="8216.4473" y1="630.5681" x1="8204.5967" gradientUnits="userSpaceOnUse" id="SVGID_16_">
				<stop style="stop-color:#D79FFF" offset="5.154639e-03"></stop>
				<stop style="stop-color:#C389FF" offset="1"></stop>
			</linearGradient>
			<path d="M596.5,324.1l3.1,0.2c2.5,0.1,4.6-2.3,4.5-5.5c-0.1-3.2-2.2-5.9-4.7-6l-3.1-0.2L596.5,324.1z" class="st19"></path>
			
				<linearGradient gradientTransform="matrix(0.997 -3.421811e-02 8.624308e-03 1.0009 -24.1961 147.9281)" y2="195.188" x2="619.181" y1="186.361" x1="622.9521" gradientUnits="userSpaceOnUse" id="SVGID_17_">
				<stop style="stop-color:#FFE5FF" offset="5.154639e-03"></stop>
				<stop style="stop-color:#CF9AFF" offset="1"></stop>
			</linearGradient>
			<path d="M596.3,312.5c2.5,0.1,4.7,2.8,4.7,6c0.1,3.2-2,5.7-4.5,5.5s-4.7-2.8-4.7-6
				C591.7,314.9,593.7,312.4,596.3,312.5z" class="st20"></path>
			
				<linearGradient gradientTransform="matrix(0.997 -3.421811e-02 8.624308e-03 1.0009 -24.1961 147.9281)" y2="192.749" x2="624.53" y1="190.3767" x1="616.0726" gradientUnits="userSpaceOnUse" id="SVGID_18_">
				<stop style="stop-color:#D79FFF" offset="5.154639e-03"></stop>
				<stop style="stop-color:#C389FF" offset="1"></stop>
			</linearGradient>
			<path d="M595.9,312.7c2.5,0.1,4.7,2.8,4.7,6s-2,5.7-4.5,5.5c-2.5-0.1-4.7-2.8-4.7-6
				C591.3,315,593.3,312.5,595.9,312.7z" class="st21"></path>
		</g>
		<g class="st9">
			<path d="M699.8,264.3l0,7.8c0,3.7-6.1,6.6-8.8,7.7l-49.2,20.9c-6,2.6-13.9,3.9-21.7,3.9c-7.6,0-15.2-1.3-21.1-3.9
				l-119.7-55.3c-2.3-1-9-3.3-9-6.8l0-8.8c0,0.4,0,0.9,0.1,1.3c0.1,0.4,0.2,0.9,0.4,1.3c0.4,0.8,0.9,1.7,1.7,2.5
				c1.5,1.6,3.7,3.1,6.7,4.5l119.7,55.3c0.7,0.3,1.5,0.6,2.2,0.9c0.3,0.1,0.5,0.2,0.8,0.3c0.5,0.2,1,0.3,1.5,0.5
				c1.1,0.3,2.1,0.6,3.2,0.8l1,0.2c0.6,0.1,1.2,0.2,1.9,0.4c0.4,0.1,0.8,0.1,1.2,0.2c0.5,0.1,1.1,0.1,1.6,0.2
				c0.4,0.1,0.9,0.1,1.3,0.1c0.5,0.1,1,0.1,1.5,0.1c0.5,0,0.9,0.1,1.4,0.1c0.5,0,1,0,1.5,0.1c0.5,0,0.9,0,1.4,0h0.3
				c0.4,0,0.9,0,1.3,0c0.4,0,0.9,0,1.3,0c0.7,0,1.4-0.1,2.1-0.1c0.3,0,0.7,0,1.1-0.1c1.2-0.1,2.3-0.2,3.4-0.4c0.4,0,0.8-0.1,1.1-0.2
				c0.6-0.1,1.1-0.2,1.7-0.3c0.4-0.1,0.8-0.2,1.2-0.2c0.5-0.1,1.1-0.2,1.6-0.3c0.3-0.1,0.6-0.2,0.9-0.2c0.8-0.2,1.6-0.4,2.4-0.7
				c0.3-0.1,0.6-0.2,0.9-0.3c1-0.3,1.9-0.7,2.9-1.1l49.2-20.9c0.4-0.2,0.8-0.4,1.2-0.6c0.4-0.2,0.7-0.4,1.1-0.6
				c0.3-0.2,0.6-0.3,0.8-0.5c0.3-0.2,0.6-0.4,0.9-0.6c0.5-0.3,0.9-0.6,1.3-0.9c0.1-0.1,0.1-0.1,0.2-0.2c0.3-0.3,0.6-0.5,0.8-0.8
				c0.3-0.3,0.5-0.5,0.7-0.8c0.1-0.2,0.3-0.3,0.4-0.5c0.2-0.2,0.3-0.5,0.4-0.7c0.1-0.2,0.2-0.4,0.3-0.6c0.1-0.2,0.2-0.5,0.3-0.7
				c0.1-0.2,0.1-0.4,0.2-0.6c0.1-0.2,0.1-0.5,0.1-0.7C699.8,264.8,699.8,264.5,699.8,264.3z" class="st2"></path>
		</g>
		<g>
			<linearGradient y2="197.2008" x2="585.1097" y1="306.791" x1="585.1097" gradientUnits="userSpaceOnUse" id="SVGID_19_">
				<stop style="stop-color:#C1B7FE" offset="5.154639e-03"></stop>
				<stop style="stop-color:#FFFFFF" offset="1"></stop>
			</linearGradient>
			<path d="M690.9,255.9c11.9,5.2,11.9,13.6,0.1,18.8l-49.2,20.9c-11.8,5.2-30.9,5.2-42.8,0l-119.7-55.3
				c-11.9-5.2-11.9-13.6-0.1-18.8l49.2-20.9c11.8-5.2,30.9-5.2,42.8,0L690.9,255.9z" class="st22"></path>
		</g>
		<g>
			<linearGradient y2="246.2123" x2="699.8207" y1="246.2123" x1="470.3986" gradientUnits="userSpaceOnUse" id="SVGID_20_">
				<stop style="stop-color:#C1B7FE" offset="5.154639e-03"></stop>
				<stop style="stop-color:#7D6FF8" offset="1"></stop>
			</linearGradient>
			<path d="M690.9,254c11.9,5.2,11.9,13.6,0.1,18.8l-49.2,20.9c-11.8,5.2-30.9,5.2-42.8,0l-119.7-55.3
				c-11.9-5.2-11.9-13.6-0.1-18.8l49.2-20.9c11.8-5.2,30.9-5.2,42.8,0L690.9,254z" class="st23"></path>
		</g>
		<g class="st9">
			<g>
				<linearGradient y2="246.187" x2="675.5255" y1="246.187" x1="494.6937" gradientUnits="userSpaceOnUse" id="SVGID_21_">
					<stop style="stop-color:#C5BAFE" offset="5.154639e-03"></stop>
					<stop style="stop-color:#7D6FF8" offset="1"></stop>
				</linearGradient>
				<path d="M620.4,287.5c-6.2,0-12.4-1-17.1-3.1l-100.8-47c-5-2.2-7.7-5.2-7.7-8.4c0-3.2,2.7-6.2,7.6-8.4l30.4-12.6
					c9.6-4.2,24.6-4.2,34.3,0l100.8,47c5,2.2,7.7,5.2,7.7,8.4c0,3.2-2.7,6.2-7.6,8.4l-30.4,12.6
					C632.8,286.5,626.6,287.5,620.4,287.5z M549.8,207.8c-5.5,0-11,0.9-15.2,2.8l-30.4,12.6c-3.7,1.6-5.7,3.7-5.7,5.8
					c0,2.2,2.1,4.2,5.8,5.9l100.8,47c8.4,3.7,22.1,3.7,30.4,0l30.4-12.6c3.7-1.6,5.7-3.7,5.7-5.8c0-2.2-2.1-4.2-5.8-5.9l-100.8-47
					C560.8,208.7,555.3,207.8,549.8,207.8z" class="st24"></path>
			</g>
		</g>
		<g>
			<g>
				<path d="M620.4,282.8c-6.2,0-12.4-1-17.1-3.1l-100.8-47c-5-2.2-7.7-5.2-7.7-8.4c0-3.2,2.7-6.2,7.6-8.4l30.4-12.6
					c9.6-4.2,24.6-4.2,34.3,0l100.8,47c5,2.2,7.7,5.2,7.7,8.4c0,3.2-2.7,6.2-7.6,8.4l-30.4,12.6
					C632.8,281.8,626.6,282.8,620.4,282.8z" class="st25"></path>
			</g>
		</g>
		<linearGradient y2="292.6676" x2="555.7421" y1="348.6897" x1="478.173" gradientUnits="userSpaceOnUse" id="SVGID_22_">
			<stop style="stop-color:#C5BAFE" offset="5.154639e-03"></stop>
			<stop style="stop-color:#7D6FF8" offset="1"></stop>
		</linearGradient>
		<polygon points="505.7,257.7 505.7,386.1 517.3,391.5 517.3,263.2" class="st26"></polygon>
		<linearGradient y2="295.7854" x2="514.4782" y1="299.542" x1="509.2767" gradientUnits="userSpaceOnUse" id="SVGID_23_">
			<stop style="stop-color:#C5BAFE" offset="5.154639e-03"></stop>
			<stop style="stop-color:#7D6FF8" offset="1"></stop>
		</linearGradient>
		<path d="M509.1,297.1v1.6c0,0.7,0.5,1.3,1.2,1.6l0,0c1.6,0.8,3.7-0.2,3.7-1.6v-1.6c0-0.7-0.5-1.3-1.2-1.6l0,0
			C511.1,294.7,509.1,295.7,509.1,297.1z" class="st27"></path>
		<linearGradient y2="285.0987" x2="499.9927" y1="307.3886" x1="469.1297" gradientUnits="userSpaceOnUse" id="SVGID_24_">
			<stop style="stop-color:#C5BAFE" offset="5.154639e-03"></stop>
			<stop style="stop-color:#7D6FF8" offset="1"></stop>
		</linearGradient>
		<path d="M480,274v47.6c0,0.7,0.5,1.3,1.2,1.6l0,0c1.6,0.8,3.7-0.2,3.7-1.6V274c0-0.7-0.5-1.3-1.2-1.6l0,0
			C482,271.6,480,272.5,480,274z" class="st28"></path>
		<g class="st9">
			
				<linearGradient gradientTransform="matrix(-1 0 0 1 9704 0)" y2="306.2295" x2="9221.3018" y1="339.5273" x1="9221.3018" gradientUnits="userSpaceOnUse" id="SVGID_25_">
				<stop style="stop-color:#C9C4FB" offset="0"></stop>
				<stop style="stop-color:#FFFFFF;stop-opacity:0.1" offset="0.9948"></stop>
			</linearGradient>
			<path d="M492.5,304.1l-22.2-10.3v1.1l21.6,10.1c1.3,0.6,2.1,1.7,2.1,2.9v37.3c0,1.2-0.8,2.3-2.1,2.9
				c-1.3,0.6-2.9,0.6-4.2,0l-17.3-8v1.1l16.6,7.8c0.9,0.4,1.8,0.6,2.8,0.6s1.9-0.2,2.7-0.6c1.7-0.8,2.7-2.2,2.7-3.7v-37.3
				C495.1,306.2,494.1,304.8,492.5,304.1z" class="st29"></path>
		</g>
		<linearGradient y2="365.0518" x2="516.4299" y1="371.2804" x1="507.8056" gradientUnits="userSpaceOnUse" id="SVGID_26_">
			<stop style="stop-color:#C5BAFE" offset="5.154639e-03"></stop>
			<stop style="stop-color:#7D6FF8" offset="1"></stop>
		</linearGradient>
		<ellipse ry="3.8" rx="4.9" cy="368.6" cx="511.5" class="st30"></ellipse>
		<linearGradient y2="347.8978" x2="516.4299" y1="354.1264" x1="507.8056" gradientUnits="userSpaceOnUse" id="SVGID_27_">
			<stop style="stop-color:#C5BAFE" offset="5.154639e-03"></stop>
			<stop style="stop-color:#7D6FF8" offset="1"></stop>
		</linearGradient>
		<ellipse ry="3.8" rx="4.9" cy="351.4" cx="511.5" class="st31"></ellipse>
		<linearGradient y2="330.7438" x2="516.4299" y1="336.9725" x1="507.8056" gradientUnits="userSpaceOnUse" id="SVGID_28_">
			<stop style="stop-color:#C5BAFE" offset="5.154639e-03"></stop>
			<stop style="stop-color:#7D6FF8" offset="1"></stop>
		</linearGradient>
		<ellipse ry="3.8" rx="4.9" cy="334.3" cx="511.5" class="st32"></ellipse>
		<g>
			
				<linearGradient gradientTransform="matrix(0.9992 -7.177654e-02 0 1 3.7309 348.6984)" y2="35.1407" x2="660.166" y1="82.9785" x1="660.166" gradientUnits="userSpaceOnUse" id="SVGID_29_">
				<stop style="stop-color:#C9C4FB" offset="0"></stop>
				<stop style="stop-color:#FFFFFF;stop-opacity:0.1" offset="0.9948"></stop>
			</linearGradient>
			<path d="M646.6,399.6c-0.8,0.1-1.6,0-2.3-0.3c-1.5-0.6-2.3-1.7-2.3-3v-61.2c0-1.3,0.9-2.5,2.3-3.3l33.6-13.9
				c1.5-0.8,3.2-0.9,4.7-0.4c1.5,0.6,2.3,1.7,2.3,3v61.2c0,1.3-0.9,2.5-2.3,3.3L649,398.9C648.2,399.3,647.4,399.6,646.6,399.6z
				 M680.2,318.1c-0.6,0-1.3,0.2-1.8,0.5l-33.6,13.9c-1.1,0.6-1.8,1.6-1.8,2.6v61.2c0,1,0.7,1.9,1.8,2.3c1.1,0.4,2.5,0.3,3.6-0.3
				l33.6-13.9c1.1-0.6,1.8-1.6,1.8-2.6v-61.2c0-1-0.7-1.9-1.8-2.3C681.4,318.1,680.8,318,680.2,318.1z" class="st33"></path>
		</g>
		<polygon points="672.9,390.5 672.9,415.8 657.7,422.3 657.7,397" class="st34"></polygon>
		
			<linearGradient gradientTransform="matrix(0.9924 -5.817375e-02 0 1 37.0453 282.5172)" y2="92.3037" x2="631.2986" y1="109.5202" x1="631.2986" gradientUnits="userSpaceOnUse" id="SVGID_30_">
			<stop style="stop-color:#C5BAFE" offset="5.154639e-03"></stop>
			<stop style="stop-color:#7D6FF8" offset="1"></stop>
		</linearGradient>
		<polygon points="682.2,337 682.2,340.8 644.8,356.4 644.8,352.6" class="st35"></polygon>
		
			<linearGradient gradientTransform="matrix(0.9924 -5.817375e-02 0 1 37.0453 282.5172)" y2="105.3195" x2="631.2986" y1="122.536" x1="631.2986" gradientUnits="userSpaceOnUse" id="SVGID_31_">
			<stop style="stop-color:#C5BAFE" offset="5.154639e-03"></stop>
			<stop style="stop-color:#7D6FF8" offset="1"></stop>
		</linearGradient>
		<polygon points="682.2,350 682.2,353.8 644.8,369.4 644.8,365.6" class="st36"></polygon>
		
			<linearGradient gradientTransform="matrix(0.9924 -5.817375e-02 0 1 37.0453 282.5172)" y2="118.3352" x2="631.2986" y1="135.5517" x1="631.2986" gradientUnits="userSpaceOnUse" id="SVGID_32_">
			<stop style="stop-color:#C5BAFE" offset="5.154639e-03"></stop>
			<stop style="stop-color:#7D6FF8" offset="1"></stop>
		</linearGradient>
		<polygon points="682.2,363 682.2,366.9 644.8,382.4 644.8,378.6" class="st37"></polygon>
		
			<ellipse ry="2.4" rx="3.6" cy="405.5" cx="666" class="st34" transform="matrix(0.3851 -0.9229 0.9229 0.3851 35.2822 863.9782)"></ellipse>
	</g>
	<g>
		<linearGradient y2="466.0969" x2="866.5689" y1="466.0969" x1="737.2508" gradientUnits="userSpaceOnUse" id="SVGID_33_">
			<stop style="stop-color:#8574FD" offset="5.154639e-03"></stop>
			<stop style="stop-color:#715EF5" offset="1"></stop>
		</linearGradient>
		<path d="M737.3,395.1V508c0,16.1,28.9,29.1,64.7,29.1s64.7-13,64.7-29.1V395.1H737.3z" class="st38"></path>
		<linearGradient y2="492.4956" x2="866.5689" y1="492.4956" x1="737.2508" gradientUnits="userSpaceOnUse" id="SVGID_34_">
			<stop style="stop-color:#7263F3" offset="5.154639e-03"></stop>
			<stop style="stop-color:#5042D3" offset="1"></stop>
		</linearGradient>
		<path d="M801.9,498.9c-35.7,0-64.7-13-64.7-29.1v16.4c0,16.1,28.9,29.1,64.7,29.1s64.7-13,64.7-29.1v-16.4
			C866.6,485.8,837.6,498.9,801.9,498.9z" class="st39"></path>
		<path d="M801.9,515.3c-35.7,0-64.7-13-64.7-29.1v5.5c0,16.1,28.9,29.1,64.7,29.1s64.7-13,64.7-29.1v-5.5
			C866.6,502.2,837.6,515.3,801.9,515.3z" class="st40"></path>
		<path d="M801.9,493.4c-35.7,0-64.7-13-64.7-29.1v5.5c0,16.1,28.9,29.1,64.7,29.1s64.7-13,64.7-29.1v-5.5
			C866.6,480.4,837.6,493.4,801.9,493.4z" class="st40"></path>
		<linearGradient y2="445.16" x2="866.5689" y1="445.16" x1="737.2508" gradientUnits="userSpaceOnUse" id="SVGID_35_">
			<stop style="stop-color:#7263F3" offset="5.154639e-03"></stop>
			<stop style="stop-color:#5042D3" offset="1"></stop>
		</linearGradient>
		<path d="M801.9,451.5c-35.7,0-64.7-13-64.7-29.1v16.4c0,16.1,28.9,29.1,64.7,29.1s64.7-13,64.7-29.1v-16.4
			C866.6,438.5,837.6,451.5,801.9,451.5z" class="st41"></path>
		<path d="M801.9,467.9c-35.7,0-64.7-13-64.7-29.1v5.5c0,16.1,28.9,29.1,64.7,29.1s64.7-13,64.7-29.1v-5.5
			C866.6,454.9,837.6,467.9,801.9,467.9z" class="st40"></path>
		<path d="M801.9,446.1c-35.7,0-64.7-13-64.7-29.1v5.5c0,16.1,28.9,29.1,64.7,29.1s64.7-13,64.7-29.1v-5.5
			C866.6,433,837.6,446.1,801.9,446.1z" class="st40"></path>
		<linearGradient y2="395.0936" x2="866.5689" y1="395.0936" x1="737.2508" gradientUnits="userSpaceOnUse" id="SVGID_36_">
			<stop style="stop-color:#C5BAFE" offset="5.154639e-03"></stop>
			<stop style="stop-color:#E9E6FC" offset="1"></stop>
		</linearGradient>
		<ellipse ry="29.1" rx="64.7" cy="395.1" cx="801.9" class="st42"></ellipse>
		<g>
			<ellipse ry="13.7" rx="30.4" cy="393.3" cx="801.9" class="st43"></ellipse>
			<linearGradient y2="395.0936" x2="832.3376" y1="395.0936" x1="771.4821" gradientUnits="userSpaceOnUse" id="SVGID_37_">
				<stop style="stop-color:#8B7FFD" offset="5.154639e-03"></stop>
				<stop style="stop-color:#8A80FB" offset="1"></stop>
			</linearGradient>
			<ellipse ry="13.7" rx="30.4" cy="395.1" cx="801.9" class="st44"></ellipse>
		</g>
		
			<ellipse ry="3.6" rx="4.7" cy="515.3" cx="855.1" class="st13" transform="matrix(0.3415 -0.9399 0.9399 0.3415 78.6909 1143.0114)"></ellipse>
		
			<ellipse ry="4.7" rx="3.6" cy="517.2" cx="752.4" class="st13" transform="matrix(0.9399 -0.3415 0.3415 0.9399 -131.3901 288.0844)"></ellipse>
		<g>
			<path d="M845.6,449.7h-1.9v-8.8l0.6-0.2c0,0,4.7-2,8.4-4.1c2.8-1.6,4.6-3.1,5.2-3.6v-23.3l1.9-1.8v25.9l-0.3,0.3
				c-0.1,0.1-2,1.9-5.9,4.1c-3.1,1.8-6.7,3.4-8.1,4V449.7z" class="st13"></path>
		</g>
		<path d="M836.1,451.7v4.6c6.6-1.9,12.4-4.2,17.1-7v-4.5C848.4,447.4,842.6,449.7,836.1,451.7z" class="st45"></path>
		<path d="M769.6,477.1v4.6c-6.6-1.9-12.4-4.2-17.1-7v-4.5C757.3,472.9,763.1,475.2,769.6,477.1z" class="st34"></path>
		<path d="M752.8,449.6c-6.6-3.3-12.6-11-15.6-14.2v2c2.7,3.1,8,10.4,14.7,13.8l9,4.5v18.5c0.6,0.2,1.3,0.5,1.9,0.7
			v-20.3L752.8,449.6z" class="st13"></path>
	</g>
	<g>
		<linearGradient y2="393.8567" x2="464.1199" y1="393.8567" x1="334.8017" gradientUnits="userSpaceOnUse" id="SVGID_38_">
			<stop style="stop-color:#8574FD" offset="5.154639e-03"></stop>
			<stop style="stop-color:#715EF5" offset="1"></stop>
		</linearGradient>
		<path d="M334.8,322.9v112.9c0,16.1,28.9,29.1,64.7,29.1s64.7-13,64.7-29.1V322.9H334.8z" class="st46"></path>
		<linearGradient y2="420.2554" x2="464.1199" y1="420.2554" x1="334.8017" gradientUnits="userSpaceOnUse" id="SVGID_39_">
			<stop style="stop-color:#7263F3" offset="5.154639e-03"></stop>
			<stop style="stop-color:#5042D3" offset="1"></stop>
		</linearGradient>
		<path d="M399.5,426.6c-35.7,0-64.7-13-64.7-29.1v16.4c0,16.1,28.9,29.1,64.7,29.1s64.7-13,64.7-29.1v-16.4
			C464.1,413.6,435.2,426.6,399.5,426.6z" class="st47"></path>
		<path d="M399.5,443c-35.7,0-64.7-13-64.7-29.1v5.5c0,16.1,28.9,29.1,64.7,29.1s64.7-13,64.7-29.1v-5.5
			C464.1,430,435.2,443,399.5,443z" class="st40"></path>
		<path d="M399.5,421.2c-35.7,0-64.7-13-64.7-29.1v5.5c0,16.1,28.9,29.1,64.7,29.1s64.7-13,64.7-29.1V392
			C464.1,408.1,435.2,421.2,399.5,421.2z" class="st40"></path>
		<linearGradient y2="372.9198" x2="464.1199" y1="372.9198" x1="334.8017" gradientUnits="userSpaceOnUse" id="SVGID_40_">
			<stop style="stop-color:#7263F3" offset="5.154639e-03"></stop>
			<stop style="stop-color:#5042D3" offset="1"></stop>
		</linearGradient>
		<path d="M399.5,379.3c-35.7,0-64.7-13-64.7-29.1v16.4c0,16.1,28.9,29.1,64.7,29.1s64.7-13,64.7-29.1v-16.4
			C464.1,366.2,435.2,379.3,399.5,379.3z" class="st48"></path>
		<path d="M399.5,395.7c-35.7,0-64.7-13-64.7-29.1v5.5c0,16.1,28.9,29.1,64.7,29.1s64.7-13,64.7-29.1v-5.5
			C464.1,382.6,435.2,395.7,399.5,395.7z" class="st40"></path>
		<path d="M399.5,373.8c-35.7,0-64.7-13-64.7-29.1v5.5c0,16.1,28.9,29.1,64.7,29.1s64.7-13,64.7-29.1v-5.5
			C464.1,360.8,435.2,373.8,399.5,373.8z" class="st40"></path>
		<linearGradient y2="322.8534" x2="464.1199" y1="322.8534" x1="334.8017" gradientUnits="userSpaceOnUse" id="SVGID_41_">
			<stop style="stop-color:#C5BAFE" offset="5.154639e-03"></stop>
			<stop style="stop-color:#E9E6FC" offset="1"></stop>
		</linearGradient>
		<ellipse ry="29.1" rx="64.7" cy="322.9" cx="399.5" class="st49"></ellipse>
		<g>
			<ellipse ry="13.7" rx="30.4" cy="321" cx="399.5" class="st43"></ellipse>
			<linearGradient y2="322.8534" x2="429.8886" y1="322.8534" x1="369.033" gradientUnits="userSpaceOnUse" id="SVGID_42_">
				<stop style="stop-color:#8B7FFD" offset="5.154639e-03"></stop>
				<stop style="stop-color:#8A80FB" offset="1"></stop>
			</linearGradient>
			<ellipse ry="13.7" rx="30.4" cy="322.9" cx="399.5" class="st50"></ellipse>
		</g>
		
			<ellipse ry="3.6" rx="4.7" cy="443.1" cx="452.7" class="st13" transform="matrix(0.3415 -0.9399 0.9399 0.3415 -118.4065 717.1971)"></ellipse>
		
			<ellipse ry="4.7" rx="3.6" cy="444.9" cx="350" class="st13" transform="matrix(0.9399 -0.3415 0.3415 0.9399 -130.9181 146.2845)"></ellipse>
		<g>
			<path d="M443.2,377.5h-1.9v-8.8l0.6-0.2c0,0,4.7-2,8.4-4.1c2.8-1.6,4.6-3.1,5.2-3.6v-23.3l1.9-1.8v25.9l-0.3,0.3
				c-0.1,0.1-2,1.9-5.9,4.1c-3.1,1.8-6.7,3.4-8.1,4V377.5z" class="st13"></path>
		</g>
		<path d="M433.7,379.4v4.6c6.6-1.9,12.4-4.2,17.1-7v-4.5C445.9,375.1,440.2,377.5,433.7,379.4z" class="st45"></path>
		<path d="M367.1,404.9v4.6c-6.6-1.9-12.4-4.2-17.1-7v-4.5C354.9,400.6,360.7,403,367.1,404.9z" class="st34"></path>
		<path d="M350.4,377.4c-6.6-3.3-12.6-11-15.6-14.2v2c2.7,3.1,8,10.4,14.7,13.8l9,4.5v18.5c0.6,0.2,1.3,0.5,1.9,0.7
			v-20.3L350.4,377.4z" class="st13"></path>
	</g>
	<g>
		<linearGradient y2="531.4036" x2="718.8755" y1="531.4036" x1="639.1722" gradientUnits="userSpaceOnUse" id="SVGID_43_">
			<stop style="stop-color:#6052E9" offset="5.154639e-03"></stop>
			<stop style="stop-color:#8071FE" offset="1"></stop>
		</linearGradient>
		<path d="M718.9,446.6l0,9.4l-0.2,126v0.2c0,0.2-0.1,0.3-0.1,0.5c0,0.2-0.1,0.5-0.1,0.7c0,0,0,0.1,0,0.1
			c0,0.2-0.1,0.3-0.2,0.5c-0.1,0.2-0.2,0.5-0.2,0.7c0,0,0,0.1-0.1,0.1c-0.1,0.1-0.2,0.3-0.2,0.4c-0.2,0.2-0.3,0.5-0.4,0.7
			c-0.1,0.1-0.1,0.1-0.1,0.2c-0.1,0.1-0.2,0.2-0.3,0.3c-0.2,0.3-0.4,0.5-0.7,0.8c-0.1,0.1-0.1,0.2-0.2,0.2c-0.2,0.2-0.4,0.3-0.6,0.5
			c-0.1,0.1-0.1,0.1-0.2,0.2c-0.3,0.3-0.7,0.6-1.1,0.8c-0.1,0-0.1,0.1-0.2,0.1c-0.3,0.2-0.6,0.4-0.9,0.6c-0.3,0.2-0.5,0.3-0.8,0.5
			c-0.3,0.2-0.7,0.4-1.1,0.6c-0.2,0.1-0.5,0.3-0.8,0.4c-0.1,0.1-0.2,0.1-0.4,0.2l-49.2,20.9c-0.9,0.4-1.9,0.8-2.9,1.1
			c-0.3,0.1-0.6,0.2-0.9,0.3c-0.8,0.2-1.6,0.5-2.4,0.7c-0.2,0-0.4,0.1-0.5,0.2c-0.1,0-0.2,0-0.3,0.1c-0.5,0.1-1,0.2-1.6,0.3
			c-0.4,0.1-0.8,0.2-1.2,0.2c-0.6,0.1-1.1,0.2-1.7,0.3c-0.3,0.1-0.7,0.1-1,0.2c-0.1,0-0.1,0-0.2,0c-1.1,0.2-2.3,0.3-3.4,0.4
			c-0.1,0-0.2,0-0.2,0c-0.3,0-0.6,0-0.8,0c-0.7,0-1.4,0.1-2.1,0.1c-0.2,0-0.3,0-0.5,0h-1.9V480.7c0.4,0,0.9,0,1.3,0
			c0.4,0,0.9,0,1.3,0c0.7,0,1.4-0.1,2.1-0.1c0.3,0,0.7,0,1.1-0.1c1.2-0.1,2.3-0.2,3.4-0.4c0.4,0,0.8-0.1,1.1-0.2
			c0.6-0.1,1.1-0.2,1.7-0.3c0.4-0.1,0.8-0.2,1.2-0.2c0.5-0.1,1.1-0.2,1.6-0.3c0.3-0.1,0.6-0.2,0.9-0.2c0.8-0.2,1.6-0.4,2.4-0.7
			c0.3-0.1,0.6-0.2,0.9-0.3c1-0.3,1.9-0.7,2.9-1.1l49.2-20.9c0.4-0.2,0.8-0.4,1.2-0.6c0.4-0.2,0.7-0.4,1.1-0.6
			c0.3-0.2,0.6-0.3,0.8-0.5c0.3-0.2,0.6-0.4,0.9-0.6c0.5-0.3,0.9-0.6,1.3-0.9c0.1-0.1,0.1-0.1,0.2-0.2c0.3-0.3,0.6-0.5,0.8-0.8
			c0.3-0.3,0.5-0.5,0.7-0.8c0.1-0.2,0.3-0.3,0.4-0.5c0.2-0.2,0.3-0.5,0.4-0.7c0.1-0.2,0.2-0.4,0.3-0.6c0.1-0.2,0.2-0.5,0.3-0.7
			c0.1-0.2,0.1-0.4,0.2-0.6c0.1-0.2,0.1-0.5,0.1-0.7C718.8,447.1,718.9,446.8,718.9,446.6z" class="st51"></path>
		<linearGradient y2="514.1464" x2="639.1722" y1="514.1464" x1="489.2299" gradientUnits="userSpaceOnUse" id="SVGID_44_">
			<stop style="stop-color:#6052E9" offset="5.154639e-03"></stop>
			<stop style="stop-color:#8071FE" offset="1"></stop>
		</linearGradient>
		<path d="M639.2,480.7v135.5h-0.6c-0.2,0-0.4,0-0.6,0c-0.2,0-0.5,0-0.8,0c-0.5,0-1,0-1.5-0.1c-0.2,0-0.5,0-0.7,0
			c-0.2,0-0.5,0-0.7-0.1c-0.5,0-1-0.1-1.5-0.1c-0.2,0-0.5,0-0.7-0.1c-0.2,0-0.4-0.1-0.7-0.1c-0.5-0.1-1.1-0.1-1.6-0.2
			c-0.2,0-0.5-0.1-0.8-0.1c-0.2,0-0.3-0.1-0.5-0.1c-0.6-0.1-1.2-0.2-1.9-0.4c-0.3,0-0.5-0.1-0.8-0.1c-0.1,0-0.2-0.1-0.3-0.1
			c-1.1-0.2-2.2-0.5-3.2-0.8c-0.1,0-0.1,0-0.2,0c-0.5-0.1-0.9-0.3-1.4-0.5c-0.3-0.1-0.5-0.2-0.8-0.3c-0.8-0.3-1.5-0.6-2.2-0.9
			L498.2,557c-6-2.6-8.9-6.1-8.9-9.5l0.2-124.2l0-11.3c0,0.4,0,0.9,0.1,1.3c0.1,0.4,0.2,0.9,0.4,1.3c0.4,0.8,0.9,1.7,1.7,2.5
			c1.5,1.6,3.7,3.1,6.7,4.5l119.7,55.3c0.7,0.3,1.5,0.6,2.2,0.9c0.3,0.1,0.5,0.2,0.8,0.3c0.5,0.2,1,0.3,1.5,0.5
			c1.1,0.3,2.1,0.6,3.2,0.8l1,0.2c0.6,0.1,1.2,0.2,1.9,0.4c0.4,0.1,0.8,0.1,1.2,0.2c0.5,0.1,1.1,0.1,1.6,0.2
			c0.4,0.1,0.9,0.1,1.3,0.1c0.5,0.1,1,0.1,1.5,0.1c0.5,0,0.9,0.1,1.4,0.1c0.5,0,1,0,1.5,0.1c0.5,0,0.9,0,1.4,0H639.2z" class="st52"></path>
		<g>
			
				<ellipse ry="7.1" rx="5.6" cy="527.2" cx="618.5" class="st2" transform="matrix(0.9903 -0.1387 0.1387 0.9903 -67.1458 90.8904)"></ellipse>
			
				<linearGradient gradientTransform="matrix(-1.347504e-02 -0.9796 0.9793 6.959573e-02 93.3469 8317.6006)" y2="647.1023" x2="8004.563" y1="647.1023" x1="7992.7119" gradientUnits="userSpaceOnUse" id="SVGID_45_">
				<stop style="stop-color:#D79FFF" offset="5.154639e-03"></stop>
				<stop style="stop-color:#C389FF" offset="1"></stop>
			</linearGradient>
			<path d="M615.5,532.8l3.1,0.2c2.5,0.1,4.6-2.3,4.5-5.5c-0.1-3.2-2.2-5.9-4.7-6l-3.1-0.2L615.5,532.8z" class="st53"></path>
			
				<linearGradient gradientTransform="matrix(0.997 -3.421811e-02 8.624308e-03 1.0009 -24.1961 147.9281)" y2="404.2992" x2="636.4756" y1="395.4722" x1="640.2468" gradientUnits="userSpaceOnUse" id="SVGID_46_">
				<stop style="stop-color:#FFE5FF" offset="5.154639e-03"></stop>
				<stop style="stop-color:#CF9AFF" offset="1"></stop>
			</linearGradient>
			<path d="M615.3,521.2c2.5,0.1,4.7,2.8,4.7,6c0.1,3.2-2,5.7-4.5,5.5c-2.5-0.1-4.7-2.8-4.7-6
				C610.8,523.6,612.8,521.1,615.3,521.2z" class="st54"></path>
			
				<linearGradient gradientTransform="matrix(0.997 -3.421811e-02 8.624308e-03 1.0009 -24.1961 147.9281)" y2="401.8601" x2="641.8246" y1="399.4879" x1="633.3672" gradientUnits="userSpaceOnUse" id="SVGID_47_">
				<stop style="stop-color:#D79FFF" offset="5.154639e-03"></stop>
				<stop style="stop-color:#C389FF" offset="1"></stop>
			</linearGradient>
			<path d="M614.9,521.4c2.5,0.1,4.7,2.8,4.7,6c0.1,3.2-2,5.7-4.5,5.5c-2.5-0.1-4.7-2.8-4.7-6
				C610.3,523.7,612.4,521.2,614.9,521.4z" class="st55"></path>
		</g>
		<g>
			
				<ellipse ry="7.1" rx="5.6" cy="501.6" cx="618.5" class="st2" transform="matrix(0.9903 -0.1387 0.1387 0.9903 -63.597 90.6431)"></ellipse>
			
				<linearGradient gradientTransform="matrix(-1.347504e-02 -0.9796 0.9793 6.959573e-02 93.3469 8317.6006)" y2="647.462" x2="8030.7051" y1="647.462" x1="8018.854" gradientUnits="userSpaceOnUse" id="SVGID_48_">
				<stop style="stop-color:#D79FFF" offset="5.154639e-03"></stop>
				<stop style="stop-color:#C389FF" offset="1"></stop>
			</linearGradient>
			<path d="M615.5,507.2l3.1,0.2c2.5,0.1,4.6-2.3,4.5-5.5c-0.1-3.2-2.2-5.9-4.7-6l-3.1-0.2L615.5,507.2z" class="st56"></path>
			
				<linearGradient gradientTransform="matrix(0.997 -3.421811e-02 8.624308e-03 1.0009 -24.1961 147.9281)" y2="378.7466" x2="636.6966" y1="369.9195" x1="640.4678" gradientUnits="userSpaceOnUse" id="SVGID_49_">
				<stop style="stop-color:#FFE5FF" offset="5.154639e-03"></stop>
				<stop style="stop-color:#CF9AFF" offset="1"></stop>
			</linearGradient>
			<path d="M615.3,495.7c2.5,0.1,4.7,2.8,4.7,6s-2,5.7-4.5,5.5c-2.5-0.1-4.7-2.8-4.7-6
				C610.8,498,612.8,495.5,615.3,495.7z" class="st57"></path>
			
				<linearGradient gradientTransform="matrix(0.997 -3.421811e-02 8.624308e-03 1.0009 -24.1961 147.9281)" y2="376.3075" x2="642.0457" y1="373.9353" x1="633.5882" gradientUnits="userSpaceOnUse" id="SVGID_50_">
				<stop style="stop-color:#D79FFF" offset="5.154639e-03"></stop>
				<stop style="stop-color:#C389FF" offset="1"></stop>
			</linearGradient>
			<path d="M614.9,495.8c2.5,0.1,4.7,2.8,4.7,6s-2,5.7-4.5,5.5c-2.5-0.1-4.7-2.8-4.7-6
				C610.3,498.1,612.4,495.7,614.9,495.8z" class="st58"></path>
		</g>
		<g class="st9">
			<path d="M718.9,447.4l0,7.8c0,3.7-6.1,6.6-8.8,7.7l-49.2,20.9c-6,2.6-13.9,3.9-21.7,3.9c-7.6,0-15.2-1.3-21.1-3.9
				l-119.7-55.3c-2.3-1-9-3.3-9-6.8l0-8.8c0,0.4,0,0.9,0.1,1.3c0.1,0.4,0.2,0.9,0.4,1.3c0.4,0.8,0.9,1.7,1.7,2.5
				c1.5,1.6,3.7,3.1,6.7,4.5l119.7,55.3c0.7,0.3,1.5,0.6,2.2,0.9c0.3,0.1,0.5,0.2,0.8,0.3c0.5,0.2,1,0.3,1.5,0.5
				c1.1,0.3,2.1,0.6,3.2,0.8l1,0.2c0.6,0.1,1.2,0.2,1.9,0.4c0.4,0.1,0.8,0.1,1.2,0.2c0.5,0.1,1.1,0.1,1.6,0.2
				c0.4,0.1,0.9,0.1,1.3,0.1c0.5,0.1,1,0.1,1.5,0.1c0.5,0,0.9,0.1,1.4,0.1c0.5,0,1,0,1.5,0.1c0.5,0,0.9,0,1.4,0h0.3
				c0.4,0,0.9,0,1.3,0c0.4,0,0.9,0,1.3,0c0.7,0,1.4-0.1,2.1-0.1c0.3,0,0.7,0,1.1-0.1c1.2-0.1,2.3-0.2,3.4-0.4c0.4,0,0.8-0.1,1.1-0.2
				c0.6-0.1,1.1-0.2,1.7-0.3c0.4-0.1,0.8-0.2,1.2-0.2c0.5-0.1,1.1-0.2,1.6-0.3c0.3-0.1,0.6-0.2,0.9-0.2c0.8-0.2,1.6-0.4,2.4-0.7
				c0.3-0.1,0.6-0.2,0.9-0.3c1-0.3,1.9-0.7,2.9-1.1l49.2-20.9c0.4-0.2,0.8-0.4,1.2-0.6c0.4-0.2,0.7-0.4,1.1-0.6
				c0.3-0.2,0.6-0.3,0.8-0.5c0.3-0.2,0.6-0.4,0.9-0.6c0.5-0.3,0.9-0.6,1.3-0.9c0.1-0.1,0.1-0.1,0.2-0.2c0.3-0.3,0.6-0.5,0.8-0.8
				c0.3-0.3,0.5-0.5,0.7-0.8c0.1-0.2,0.3-0.3,0.4-0.5c0.2-0.2,0.3-0.5,0.4-0.7c0.1-0.2,0.2-0.4,0.3-0.6c0.1-0.2,0.2-0.5,0.3-0.7
				c0.1-0.2,0.1-0.4,0.2-0.6c0.1-0.2,0.1-0.5,0.1-0.7C718.8,447.9,718.9,447.6,718.9,447.4z" class="st2"></path>
		</g>
		<g>
			<linearGradient y2="380.3276" x2="604.1564" y1="489.9178" x1="604.1564" gradientUnits="userSpaceOnUse" id="SVGID_51_">
				<stop style="stop-color:#C1B7FE" offset="5.154639e-03"></stop>
				<stop style="stop-color:#FFFFFF" offset="1"></stop>
			</linearGradient>
			<path d="M709.9,439c11.9,5.2,11.9,13.6,0.1,18.8l-49.2,20.9c-11.8,5.2-30.9,5.2-42.8,0l-119.7-55.3
				c-11.9-5.2-11.9-13.6-0.1-18.8l49.2-20.9c11.8-5.2,30.9-5.2,42.8,0L709.9,439z" class="st59"></path>
		</g>
		<g>
			<linearGradient y2="429.3391" x2="718.8674" y1="429.3391" x1="489.4453" gradientUnits="userSpaceOnUse" id="SVGID_52_">
				<stop style="stop-color:#C1B7FE" offset="5.154639e-03"></stop>
				<stop style="stop-color:#7D6FF8" offset="1"></stop>
			</linearGradient>
			<path d="M709.9,437.1c11.9,5.2,11.9,13.6,0.1,18.8l-49.2,20.9c-11.8,5.2-30.9,5.2-42.8,0l-119.7-55.3
				c-11.9-5.2-11.9-13.6-0.1-18.8l49.2-20.9c11.8-5.2,30.9-5.2,42.8,0L709.9,437.1z" class="st60"></path>
		</g>
		<g class="st9">
			<g>
				<linearGradient y2="429.3138" x2="694.5721" y1="429.3138" x1="513.7404" gradientUnits="userSpaceOnUse" id="SVGID_53_">
					<stop style="stop-color:#C5BAFE" offset="5.154639e-03"></stop>
					<stop style="stop-color:#7D6FF8" offset="1"></stop>
				</linearGradient>
				<path d="M639.4,470.6c-6.2,0-12.4-1-17.1-3.1l-100.8-47c-5-2.2-7.7-5.2-7.7-8.4c0-3.2,2.7-6.2,7.6-8.4l30.4-12.6
					c9.6-4.2,24.6-4.2,34.3,0l100.8,47c5,2.2,7.7,5.2,7.7,8.4c0,3.2-2.7,6.2-7.6,8.4l-30.4,12.6
					C651.8,469.6,645.6,470.6,639.4,470.6z M568.9,390.9c-5.5,0-11,0.9-15.2,2.8l-30.4,12.6c-3.7,1.6-5.7,3.7-5.7,5.8
					c0,2.2,2.1,4.2,5.8,5.9l100.8,47c8.4,3.7,22.1,3.7,30.4,0l30.4-12.6c3.7-1.6,5.7-3.7,5.7-5.8c0-2.2-2.1-4.2-5.8-5.9l-100.8-47
					C579.9,391.8,574.4,390.9,568.9,390.9z" class="st61"></path>
			</g>
		</g>
		<g>
			<g>
				<path d="M639.4,465.9c-6.2,0-12.4-1-17.1-3.1l-100.8-47c-5-2.2-7.7-5.2-7.7-8.4c0-3.2,2.7-6.2,7.6-8.4l30.4-12.6
					c9.6-4.2,24.6-4.2,34.3,0l100.8,47c5,2.2,7.7,5.2,7.7,8.4c0,3.2-2.7,6.2-7.6,8.4l-30.4,12.6
					C651.8,464.9,645.6,465.9,639.4,465.9z" class="st25"></path>
			</g>
		</g>
		<linearGradient y2="475.7944" x2="574.7888" y1="531.8166" x1="497.2197" gradientUnits="userSpaceOnUse" id="SVGID_54_">
			<stop style="stop-color:#C5BAFE" offset="5.154639e-03"></stop>
			<stop style="stop-color:#7D6FF8" offset="1"></stop>
		</linearGradient>
		<polygon points="524.7,440.9 524.7,569.2 536.4,574.6 536.4,446.3" class="st62"></polygon>
		<linearGradient y2="478.9122" x2="533.5249" y1="482.6688" x1="528.3234" gradientUnits="userSpaceOnUse" id="SVGID_55_">
			<stop style="stop-color:#C5BAFE" offset="5.154639e-03"></stop>
			<stop style="stop-color:#7D6FF8" offset="1"></stop>
		</linearGradient>
		<path d="M528.1,480.3v1.6c0,0.7,0.5,1.3,1.2,1.6l0,0c1.6,0.8,3.7-0.2,3.7-1.6v-1.6c0-0.7-0.5-1.3-1.2-1.6l0,0
			C530.2,477.9,528.1,478.8,528.1,480.3z" class="st63"></path>
		<linearGradient y2="468.2255" x2="519.0394" y1="490.5154" x1="488.1765" gradientUnits="userSpaceOnUse" id="SVGID_56_">
			<stop style="stop-color:#C5BAFE" offset="5.154639e-03"></stop>
			<stop style="stop-color:#7D6FF8" offset="1"></stop>
		</linearGradient>
		<path d="M499,457.1v47.6c0,0.7,0.5,1.3,1.2,1.6l0,0c1.6,0.8,3.7-0.2,3.7-1.6v-47.6c0-0.7-0.5-1.3-1.2-1.6h0
			C501.1,454.8,499,455.7,499,457.1z" class="st64"></path>
		<g class="st9">
			
				<linearGradient gradientTransform="matrix(-1 0 0 1 9704 0)" y2="489.3564" x2="9202.2549" y1="522.6542" x1="9202.2549" gradientUnits="userSpaceOnUse" id="SVGID_57_">
				<stop style="stop-color:#C9C4FB" offset="0"></stop>
				<stop style="stop-color:#FFFFFF;stop-opacity:0.1" offset="0.9948"></stop>
			</linearGradient>
			<path d="M511.5,487.2l-22.2-10.3v1.1l21.6,10.1c1.3,0.6,2.1,1.7,2.1,2.9v37.3c0,1.2-0.8,2.3-2.1,2.9
				c-1.3,0.6-2.9,0.6-4.2,0l-17.3-8v1.1l16.6,7.8c0.9,0.4,1.8,0.6,2.8,0.6c0.9,0,1.9-0.2,2.7-0.6c1.7-0.8,2.7-2.2,2.7-3.7v-37.3
				C514.2,489.4,513.2,487.9,511.5,487.2z" class="st65"></path>
		</g>
		<linearGradient y2="548.1786" x2="535.4766" y1="554.4072" x1="526.8523" gradientUnits="userSpaceOnUse" id="SVGID_58_">
			<stop style="stop-color:#C5BAFE" offset="5.154639e-03"></stop>
			<stop style="stop-color:#7D6FF8" offset="1"></stop>
		</linearGradient>
		<ellipse ry="3.8" rx="4.9" cy="551.7" cx="530.6" class="st66"></ellipse>
		<linearGradient y2="531.0247" x2="535.4766" y1="537.2533" x1="526.8523" gradientUnits="userSpaceOnUse" id="SVGID_59_">
			<stop style="stop-color:#C5BAFE" offset="5.154639e-03"></stop>
			<stop style="stop-color:#7D6FF8" offset="1"></stop>
		</linearGradient>
		<ellipse ry="3.8" rx="4.9" cy="534.6" cx="530.6" class="st67"></ellipse>
		<linearGradient y2="513.8707" x2="535.4766" y1="520.0993" x1="526.8523" gradientUnits="userSpaceOnUse" id="SVGID_60_">
			<stop style="stop-color:#C5BAFE" offset="5.154639e-03"></stop>
			<stop style="stop-color:#7D6FF8" offset="1"></stop>
		</linearGradient>
		<ellipse ry="3.8" rx="4.9" cy="517.4" cx="530.6" class="st68"></ellipse>
		<g>
			
				<linearGradient gradientTransform="matrix(0.9992 -7.177654e-02 0 1 3.7309 348.6984)" y2="219.6357" x2="679.2275" y1="267.4735" x1="679.2275" gradientUnits="userSpaceOnUse" id="SVGID_61_">
				<stop style="stop-color:#C9C4FB" offset="0"></stop>
				<stop style="stop-color:#FFFFFF;stop-opacity:0.1" offset="0.9948"></stop>
			</linearGradient>
			<path d="M665.6,582.7c-0.8,0.1-1.6,0-2.3-0.3c-1.5-0.6-2.3-1.7-2.3-3v-61.2c0-1.3,0.9-2.5,2.3-3.3l33.6-13.9
				c1.5-0.8,3.2-0.9,4.7-0.4c1.5,0.6,2.3,1.7,2.3,3v61.2c0,1.3-0.9,2.5-2.3,3.3L668,582.1C667.3,582.5,666.5,582.7,665.6,582.7z
				 M699.2,501.2c-0.6,0-1.3,0.2-1.8,0.5l-33.6,13.9c-1.1,0.6-1.8,1.6-1.8,2.6v61.2c0,1,0.7,1.9,1.8,2.3c1.1,0.4,2.5,0.3,3.6-0.3
				l33.6-13.9c1.1-0.6,1.8-1.6,1.8-2.6v-61.2c0-1-0.7-1.9-1.8-2.3C700.4,501.2,699.8,501.2,699.2,501.2z" class="st69"></path>
		</g>
		<polygon points="692,573.6 692,599 676.8,605.4 676.8,580.1" class="st34"></polygon>
		
			<linearGradient gradientTransform="matrix(0.9924 -5.817375e-02 0 1 37.0453 282.5172)" y2="276.5471" x2="650.4918" y1="293.7636" x1="650.4918" gradientUnits="userSpaceOnUse" id="SVGID_62_">
			<stop style="stop-color:#C5BAFE" offset="5.154639e-03"></stop>
			<stop style="stop-color:#7D6FF8" offset="1"></stop>
		</linearGradient>
		<polygon points="701.3,520.1 701.3,524 663.9,539.5 663.9,535.7" class="st70"></polygon>
		
			<linearGradient gradientTransform="matrix(0.9924 -5.817375e-02 0 1 37.0453 282.5172)" y2="289.5629" x2="650.4918" y1="306.7793" x1="650.4918" gradientUnits="userSpaceOnUse" id="SVGID_63_">
			<stop style="stop-color:#C5BAFE" offset="5.154639e-03"></stop>
			<stop style="stop-color:#7D6FF8" offset="1"></stop>
		</linearGradient>
		<polygon points="701.3,533.1 701.3,537 663.9,552.6 663.9,548.7" class="st71"></polygon>
		
			<linearGradient gradientTransform="matrix(0.9924 -5.817375e-02 0 1 37.0453 282.5172)" y2="302.5786" x2="650.4918" y1="319.7951" x1="650.4918" gradientUnits="userSpaceOnUse" id="SVGID_64_">
			<stop style="stop-color:#C5BAFE" offset="5.154639e-03"></stop>
			<stop style="stop-color:#7D6FF8" offset="1"></stop>
		</linearGradient>
		<polygon points="701.3,546.2 701.3,550 663.9,565.6 663.9,561.7" class="st72"></polygon>
		
			<ellipse ry="2.4" rx="3.6" cy="588.6" cx="685.1" class="st34" transform="matrix(0.3851 -0.9229 0.9229 0.3851 -122.0067 994.1526)"></ellipse>
	</g>
	<g>
		<linearGradient y2="514.3252" x2="357.0513" y1="514.3252" x1="277.348" gradientUnits="userSpaceOnUse" id="SVGID_65_">
			<stop style="stop-color:#6052E9" offset="5.154639e-03"></stop>
			<stop style="stop-color:#8071FE" offset="1"></stop>
		</linearGradient>
		<path d="M357.1,429.5l0,9.4l-0.2,126v0.2c0,0.2-0.1,0.3-0.1,0.5c0,0.2-0.1,0.5-0.1,0.7c0,0,0,0.1,0,0.1
			c0,0.2-0.1,0.3-0.2,0.5c-0.1,0.2-0.2,0.5-0.2,0.7c0,0,0,0.1-0.1,0.1c-0.1,0.1-0.2,0.3-0.2,0.4c-0.2,0.2-0.3,0.5-0.4,0.7
			c-0.1,0.1-0.1,0.1-0.1,0.2c-0.1,0.1-0.2,0.2-0.3,0.3c-0.2,0.3-0.4,0.5-0.7,0.8c-0.1,0.1-0.1,0.2-0.2,0.2c-0.2,0.2-0.4,0.3-0.6,0.5
			c-0.1,0.1-0.1,0.1-0.2,0.2c-0.3,0.3-0.7,0.6-1.1,0.8c-0.1,0-0.1,0.1-0.2,0.1c-0.3,0.2-0.6,0.4-0.9,0.6c-0.3,0.2-0.5,0.3-0.8,0.5
			c-0.3,0.2-0.7,0.4-1.1,0.6c-0.2,0.1-0.5,0.3-0.8,0.4c-0.1,0.1-0.2,0.1-0.4,0.2l-49.2,20.9c-0.9,0.4-1.9,0.8-2.9,1.1
			c-0.3,0.1-0.6,0.2-0.9,0.3c-0.8,0.2-1.6,0.5-2.4,0.7c-0.2,0-0.4,0.1-0.5,0.2c-0.1,0-0.2,0-0.3,0.1c-0.5,0.1-1,0.2-1.6,0.3
			c-0.4,0.1-0.8,0.2-1.2,0.2c-0.6,0.1-1.1,0.2-1.7,0.3c-0.3,0.1-0.7,0.1-1,0.2c-0.1,0-0.1,0-0.2,0c-1.1,0.2-2.3,0.3-3.4,0.4
			c-0.1,0-0.2,0-0.2,0c-0.3,0-0.6,0-0.8,0c-0.7,0-1.4,0.1-2.1,0.1c-0.2,0-0.3,0-0.5,0h-1.9V463.7c0.4,0,0.9,0,1.3,0
			c0.4,0,0.9,0,1.3,0c0.7,0,1.4-0.1,2.1-0.1c0.3,0,0.7,0,1.1-0.1c1.2-0.1,2.3-0.2,3.4-0.4c0.4,0,0.8-0.1,1.1-0.2
			c0.6-0.1,1.1-0.2,1.7-0.3c0.4-0.1,0.8-0.2,1.2-0.2c0.5-0.1,1.1-0.2,1.6-0.3c0.3-0.1,0.6-0.2,0.9-0.2c0.8-0.2,1.6-0.4,2.4-0.7
			c0.3-0.1,0.6-0.2,0.9-0.3c1-0.3,1.9-0.7,2.9-1.1l49.2-20.9c0.4-0.2,0.8-0.4,1.2-0.6c0.4-0.2,0.7-0.4,1.1-0.6
			c0.3-0.2,0.6-0.3,0.8-0.5c0.3-0.2,0.6-0.4,0.9-0.6c0.5-0.3,0.9-0.6,1.3-0.9c0.1-0.1,0.1-0.1,0.2-0.2c0.3-0.3,0.6-0.5,0.8-0.8
			c0.3-0.3,0.5-0.5,0.7-0.8c0.1-0.2,0.3-0.3,0.4-0.5c0.2-0.2,0.3-0.5,0.4-0.7c0.1-0.2,0.2-0.4,0.3-0.6c0.1-0.2,0.2-0.5,0.3-0.7
			c0.1-0.2,0.1-0.4,0.2-0.6c0.1-0.2,0.1-0.5,0.1-0.7C357,430,357,429.7,357.1,429.5z" class="st73"></path>
		<linearGradient y2="497.068" x2="277.348" y1="497.068" x1="127.4057" gradientUnits="userSpaceOnUse" id="SVGID_66_">
			<stop style="stop-color:#6052E9" offset="5.154639e-03"></stop>
			<stop style="stop-color:#8071FE" offset="1"></stop>
		</linearGradient>
		<path d="M277.3,463.7v135.5h-0.6c-0.2,0-0.4,0-0.6,0c-0.2,0-0.5,0-0.8,0c-0.5,0-1,0-1.5-0.1c-0.2,0-0.5,0-0.7,0
			c-0.2,0-0.5,0-0.7-0.1c-0.5,0-1-0.1-1.5-0.1c-0.2,0-0.5,0-0.7-0.1c-0.2,0-0.4-0.1-0.7-0.1c-0.5-0.1-1.1-0.1-1.6-0.2
			c-0.2,0-0.5-0.1-0.8-0.1c-0.2,0-0.3-0.1-0.5-0.1c-0.6-0.1-1.2-0.2-1.9-0.4c-0.3,0-0.5-0.1-0.8-0.1c-0.1,0-0.2-0.1-0.3-0.1
			c-1.1-0.2-2.2-0.5-3.2-0.8c-0.1,0-0.1,0-0.2,0c-0.5-0.1-0.9-0.3-1.4-0.5c-0.3-0.1-0.5-0.2-0.8-0.3c-0.8-0.3-1.5-0.6-2.2-0.9
			L136.3,540c-6-2.6-8.9-6.1-8.9-9.5l0.2-124.2l0-11.3c0,0.4,0,0.9,0.1,1.3c0.1,0.4,0.2,0.9,0.4,1.3c0.4,0.8,0.9,1.7,1.7,2.5
			c1.5,1.6,3.7,3.1,6.7,4.5l119.7,55.3c0.7,0.3,1.5,0.6,2.2,0.9c0.3,0.1,0.5,0.2,0.8,0.3c0.5,0.2,1,0.3,1.5,0.5
			c1.1,0.3,2.1,0.6,3.2,0.8l1,0.2c0.6,0.1,1.2,0.2,1.9,0.4c0.4,0.1,0.8,0.1,1.2,0.2c0.5,0.1,1.1,0.1,1.6,0.2
			c0.4,0.1,0.9,0.1,1.3,0.1c0.5,0.1,1,0.1,1.5,0.1c0.5,0,0.9,0.1,1.4,0.1c0.5,0,1,0,1.5,0.1c0.5,0,0.9,0,1.4,0H277.3z" class="st74"></path>
		<g>
			
				<ellipse ry="7.1" rx="5.6" cy="510.1" cx="256.7" class="st2" transform="matrix(0.9903 -0.1387 0.1387 0.9903 -68.2747 40.535)"></ellipse>
			
				<linearGradient gradientTransform="matrix(-1.347504e-02 -0.9796 0.9793 6.959573e-02 93.3469 8317.6006)" y2="277.4984" x2="7995.7383" y1="277.4984" x1="7983.8872" gradientUnits="userSpaceOnUse" id="SVGID_67_">
				<stop style="stop-color:#D79FFF" offset="5.154639e-03"></stop>
				<stop style="stop-color:#C389FF" offset="1"></stop>
			</linearGradient>
			<path d="M253.7,515.7l3.1,0.2c2.5,0.1,4.6-2.3,4.5-5.5s-2.2-5.9-4.7-6l-3.1-0.2L253.7,515.7z" class="st75"></path>
			
				<linearGradient gradientTransform="matrix(0.997 -3.421811e-02 8.624308e-03 1.0009 -24.1961 147.9281)" y2="374.8386" x2="273.8282" y1="366.0116" x1="277.5994" gradientUnits="userSpaceOnUse" id="SVGID_68_">
				<stop style="stop-color:#FFE5FF" offset="5.154639e-03"></stop>
				<stop style="stop-color:#CF9AFF" offset="1"></stop>
			</linearGradient>
			<path d="M253.5,504.2c2.5,0.1,4.7,2.8,4.7,6s-2,5.7-4.5,5.5c-2.5-0.1-4.7-2.8-4.7-6
				C248.9,506.5,251,504,253.5,504.2z" class="st76"></path>
			
				<linearGradient gradientTransform="matrix(0.997 -3.421811e-02 8.624308e-03 1.0009 -24.1961 147.9281)" y2="372.3996" x2="279.1773" y1="370.0273" x1="270.7198" gradientUnits="userSpaceOnUse" id="SVGID_69_">
				<stop style="stop-color:#D79FFF" offset="5.154639e-03"></stop>
				<stop style="stop-color:#C389FF" offset="1"></stop>
			</linearGradient>
			<path d="M253.1,504.3c2.5,0.1,4.7,2.8,4.7,6c0.1,3.2-2,5.7-4.5,5.5s-4.7-2.8-4.7-6
				C248.5,506.6,250.5,504.2,253.1,504.3z" class="st77"></path>
		</g>
		<g>
			
				<ellipse ry="7.1" rx="5.6" cy="484.5" cx="256.7" class="st2" transform="matrix(0.9903 -0.1387 0.1387 0.9903 -64.7259 40.2876)"></ellipse>
			
				<linearGradient gradientTransform="matrix(-1.347504e-02 -0.9796 0.9793 6.959573e-02 93.3469 8317.6006)" y2="277.8581" x2="8021.8804" y1="277.8581" x1="8010.0293" gradientUnits="userSpaceOnUse" id="SVGID_70_">
				<stop style="stop-color:#D79FFF" offset="5.154639e-03"></stop>
				<stop style="stop-color:#C389FF" offset="1"></stop>
			</linearGradient>
			<path d="M253.7,490.1l3.1,0.2c2.5,0.1,4.6-2.3,4.5-5.5s-2.2-5.9-4.7-6l-3.1-0.2L253.7,490.1z" class="st78"></path>
			
				<linearGradient gradientTransform="matrix(0.997 -3.421811e-02 8.624308e-03 1.0009 -24.1961 147.9281)" y2="349.286" x2="274.0493" y1="340.459" x1="277.8205" gradientUnits="userSpaceOnUse" id="SVGID_71_">
				<stop style="stop-color:#FFE5FF" offset="5.154639e-03"></stop>
				<stop style="stop-color:#CF9AFF" offset="1"></stop>
			</linearGradient>
			<path d="M253.5,478.6c2.5,0.1,4.7,2.8,4.7,6c0.1,3.2-2,5.7-4.5,5.5c-2.5-0.1-4.7-2.8-4.7-6
				C248.9,480.9,251,478.4,253.5,478.6z" class="st79"></path>
			
				<linearGradient gradientTransform="matrix(0.997 -3.421811e-02 8.624308e-03 1.0009 -24.1961 147.9281)" y2="346.847" x2="279.3984" y1="344.4747" x1="270.9409" gradientUnits="userSpaceOnUse" id="SVGID_72_">
				<stop style="stop-color:#D79FFF" offset="5.154639e-03"></stop>
				<stop style="stop-color:#C389FF" offset="1"></stop>
			</linearGradient>
			<path d="M253.1,478.7c2.5,0.1,4.7,2.8,4.7,6c0.1,3.2-2,5.7-4.5,5.5c-2.5-0.1-4.7-2.8-4.7-6
				C248.5,481.1,250.5,478.6,253.1,478.7z" class="st80"></path>
		</g>
		<g class="st9">
			<path d="M357.1,430.4l0,7.8c0,3.7-6.1,6.6-8.8,7.7l-49.2,20.9c-6,2.6-13.9,3.9-21.7,3.9c-7.6,0-15.2-1.3-21.1-3.9
				l-119.7-55.3c-2.3-1-9-3.3-9-6.8l0-8.8c0,0.4,0,0.9,0.1,1.3c0.1,0.4,0.2,0.9,0.4,1.3c0.4,0.8,0.9,1.7,1.7,2.5
				c1.5,1.6,3.7,3.1,6.7,4.5l119.7,55.3c0.7,0.3,1.5,0.6,2.2,0.9c0.3,0.1,0.5,0.2,0.8,0.3c0.5,0.2,1,0.3,1.5,0.5
				c1.1,0.3,2.1,0.6,3.2,0.8l1,0.2c0.6,0.1,1.2,0.2,1.9,0.4c0.4,0.1,0.8,0.1,1.2,0.2c0.5,0.1,1.1,0.1,1.6,0.2
				c0.4,0.1,0.9,0.1,1.3,0.1c0.5,0.1,1,0.1,1.5,0.1c0.5,0,0.9,0.1,1.4,0.1c0.5,0,1,0,1.5,0.1c0.5,0,0.9,0,1.4,0h0.3
				c0.4,0,0.9,0,1.3,0c0.4,0,0.9,0,1.3,0c0.7,0,1.4-0.1,2.1-0.1c0.3,0,0.7,0,1.1-0.1c1.2-0.1,2.3-0.2,3.4-0.4c0.4,0,0.8-0.1,1.1-0.2
				c0.6-0.1,1.1-0.2,1.7-0.3c0.4-0.1,0.8-0.2,1.2-0.2c0.5-0.1,1.1-0.2,1.6-0.3c0.3-0.1,0.6-0.2,0.9-0.2c0.8-0.2,1.6-0.4,2.4-0.7
				c0.3-0.1,0.6-0.2,0.9-0.3c1-0.3,1.9-0.7,2.9-1.1l49.2-20.9c0.4-0.2,0.8-0.4,1.2-0.6c0.4-0.2,0.7-0.4,1.1-0.6
				c0.3-0.2,0.6-0.3,0.8-0.5c0.3-0.2,0.6-0.4,0.9-0.6c0.5-0.3,0.9-0.6,1.3-0.9c0.1-0.1,0.1-0.1,0.2-0.2c0.3-0.3,0.6-0.5,0.8-0.8
				c0.3-0.3,0.5-0.5,0.7-0.8c0.1-0.2,0.3-0.3,0.4-0.5c0.2-0.2,0.3-0.5,0.4-0.7c0.1-0.2,0.2-0.4,0.3-0.6c0.1-0.2,0.2-0.5,0.3-0.7
				c0.1-0.2,0.1-0.4,0.2-0.6c0.1-0.2,0.1-0.5,0.1-0.7C357,430.8,357,430.6,357.1,430.4z" class="st2"></path>
		</g>
		<g>
			<linearGradient y2="363.2493" x2="242.3321" y1="472.8394" x1="242.3321" gradientUnits="userSpaceOnUse" id="SVGID_73_">
				<stop style="stop-color:#C1B7FE" offset="5.154639e-03"></stop>
				<stop style="stop-color:#FFFFFF" offset="1"></stop>
			</linearGradient>
			<path d="M348.1,422c11.9,5.2,11.9,13.6,0.1,18.8l-49.2,20.9c-11.8,5.2-30.9,5.2-42.8,0l-119.7-55.3
				c-11.9-5.2-11.9-13.6-0.1-18.8l49.2-20.9c11.8-5.2,30.9-5.2,42.8,0L348.1,422z" class="st81"></path>
		</g>
		<g>
			<linearGradient y2="412.2607" x2="357.0432" y1="412.2607" x1="127.6211" gradientUnits="userSpaceOnUse" id="SVGID_74_">
				<stop style="stop-color:#C1B7FE" offset="5.154639e-03"></stop>
				<stop style="stop-color:#7D6FF8" offset="1"></stop>
			</linearGradient>
			<path d="M348.1,420c11.9,5.2,11.9,13.6,0.1,18.8l-49.2,20.9c-11.8,5.2-30.9,5.2-42.8,0l-119.7-55.3
				c-11.9-5.2-11.9-13.6-0.1-18.8l49.2-20.9c11.8-5.2,30.9-5.2,42.8,0L348.1,420z" class="st82"></path>
		</g>
		<g class="st9">
			<g>
				<linearGradient y2="412.2354" x2="332.748" y1="412.2354" x1="151.9162" gradientUnits="userSpaceOnUse" id="SVGID_75_">
					<stop style="stop-color:#C5BAFE" offset="5.154639e-03"></stop>
					<stop style="stop-color:#7D6FF8" offset="1"></stop>
				</linearGradient>
				<path d="M277.6,453.6c-6.2,0-12.4-1-17.1-3.1l-100.8-47c-5-2.2-7.7-5.2-7.7-8.4c0-3.2,2.7-6.2,7.6-8.4l30.4-12.6
					c9.6-4.2,24.6-4.2,34.3,0l100.8,47c5,2.2,7.7,5.2,7.7,8.4c0,3.2-2.7,6.2-7.6,8.4l-30.4,12.6C290,452.5,283.8,453.6,277.6,453.6z
					 M207,373.8c-5.5,0-11,0.9-15.2,2.8l-30.4,12.6c-3.7,1.6-5.7,3.7-5.7,5.8c0,2.2,2.1,4.2,5.8,5.9l100.8,47
					c8.4,3.7,22.1,3.7,30.4,0l30.4-12.6c3.7-1.6,5.7-3.7,5.7-5.8c0-2.2-2.1-4.2-5.8-5.9l-100.8-47
					C218.1,374.8,212.6,373.8,207,373.8z" class="st83"></path>
			</g>
		</g>
		<g>
			<g>
				<path d="M277.6,448.9c-6.2,0-12.4-1-17.1-3.1l-100.8-47c-5-2.2-7.7-5.2-7.7-8.4c0-3.2,2.7-6.2,7.6-8.4l30.4-12.6
					c9.6-4.2,24.6-4.2,34.3,0l100.8,47c5,2.2,7.7,5.2,7.7,8.4c0,3.2-2.7,6.2-7.6,8.4l-30.4,12.6C290,447.8,283.8,448.9,277.6,448.9z" class="st25"></path>
			</g>
		</g>
		<linearGradient y2="458.7161" x2="212.9646" y1="514.7382" x1="135.3955" gradientUnits="userSpaceOnUse" id="SVGID_76_">
			<stop style="stop-color:#C5BAFE" offset="5.154639e-03"></stop>
			<stop style="stop-color:#7D6FF8" offset="1"></stop>
		</linearGradient>
		<polygon points="162.9,423.8 162.9,552.1 174.6,557.5 174.6,429.2" class="st84"></polygon>
		<linearGradient y2="461.8338" x2="171.7007" y1="465.5905" x1="166.4992" gradientUnits="userSpaceOnUse" id="SVGID_77_">
			<stop style="stop-color:#C5BAFE" offset="5.154639e-03"></stop>
			<stop style="stop-color:#7D6FF8" offset="1"></stop>
		</linearGradient>
		<path d="M166.3,463.2v1.6c0,0.7,0.5,1.3,1.2,1.6l0,0c1.6,0.8,3.7-0.2,3.7-1.6v-1.6c0-0.7-0.5-1.3-1.2-1.6l0,0
			C168.4,460.8,166.3,461.7,166.3,463.2z" class="st85"></path>
		<linearGradient y2="451.1472" x2="157.2152" y1="473.437" x1="126.3522" gradientUnits="userSpaceOnUse" id="SVGID_78_">
			<stop style="stop-color:#C5BAFE" offset="5.154639e-03"></stop>
			<stop style="stop-color:#7D6FF8" offset="1"></stop>
		</linearGradient>
		<path d="M137.2,440.1v47.6c0,0.7,0.5,1.3,1.2,1.6l0,0c1.6,0.8,3.7-0.2,3.7-1.6v-47.6c0-0.7-0.5-1.3-1.2-1.6h0
			C139.2,437.7,137.2,438.6,137.2,440.1z" class="st86"></path>
		<g class="st9">
			
				<linearGradient gradientTransform="matrix(-1 0 0 1 9704 0)" y2="472.278" x2="9564.0791" y1="505.5758" x1="9564.0791" gradientUnits="userSpaceOnUse" id="SVGID_79_">
				<stop style="stop-color:#C9C4FB" offset="0"></stop>
				<stop style="stop-color:#FFFFFF;stop-opacity:0.1" offset="0.9948"></stop>
			</linearGradient>
			<path d="M149.7,470.1l-22.2-10.3v1.1l21.6,10.1c1.3,0.6,2.1,1.7,2.1,2.9v37.3c0,1.2-0.8,2.3-2.1,2.9
				c-1.3,0.6-2.9,0.6-4.2,0l-17.3-8v1.1l16.6,7.8c0.9,0.4,1.8,0.6,2.8,0.6s1.9-0.2,2.7-0.6c1.7-0.8,2.7-2.2,2.7-3.7v-37.3
				C152.4,472.3,151.3,470.9,149.7,470.1z" class="st87"></path>
		</g>
		<linearGradient y2="531.1002" x2="173.6523" y1="537.3289" x1="165.0281" gradientUnits="userSpaceOnUse" id="SVGID_80_">
			<stop style="stop-color:#C5BAFE" offset="5.154639e-03"></stop>
			<stop style="stop-color:#7D6FF8" offset="1"></stop>
		</linearGradient>
		<ellipse ry="3.8" rx="4.9" cy="534.7" cx="168.7" class="st88"></ellipse>
		<linearGradient y2="513.9463" x2="173.6523" y1="520.1749" x1="165.0281" gradientUnits="userSpaceOnUse" id="SVGID_81_">
			<stop style="stop-color:#C5BAFE" offset="5.154639e-03"></stop>
			<stop style="stop-color:#7D6FF8" offset="1"></stop>
		</linearGradient>
		<ellipse ry="3.8" rx="4.9" cy="517.5" cx="168.7" class="st89"></ellipse>
		<linearGradient y2="496.7923" x2="173.6523" y1="503.021" x1="165.0281" gradientUnits="userSpaceOnUse" id="SVGID_82_">
			<stop style="stop-color:#C5BAFE" offset="5.154639e-03"></stop>
			<stop style="stop-color:#7D6FF8" offset="1"></stop>
		</linearGradient>
		<ellipse ry="3.8" rx="4.9" cy="500.3" cx="168.7" class="st90"></ellipse>
		<g>
			
				<linearGradient gradientTransform="matrix(0.9992 -7.177654e-02 0 1 3.7309 348.6984)" y2="176.5665" x2="317.1206" y1="224.4043" x1="317.1206" gradientUnits="userSpaceOnUse" id="SVGID_83_">
				<stop style="stop-color:#C9C4FB" offset="0"></stop>
				<stop style="stop-color:#FFFFFF;stop-opacity:0.1" offset="0.9948"></stop>
			</linearGradient>
			<path d="M303.8,565.7c-0.8,0.1-1.6,0-2.3-0.3c-1.5-0.6-2.3-1.7-2.3-3v-61.2c0-1.3,0.9-2.5,2.3-3.3L335,484
				c1.5-0.8,3.2-0.9,4.7-0.4c1.5,0.6,2.3,1.7,2.3,3v61.2c0,1.3-0.9,2.5-2.3,3.3L306.2,565C305.4,565.4,304.6,565.6,303.8,565.7z
				 M337.4,484.1c-0.6,0-1.3,0.2-1.8,0.5L302,498.5c-1.1,0.6-1.8,1.6-1.8,2.6v61.2c0,1,0.7,1.9,1.8,2.3c1.1,0.4,2.5,0.3,3.6-0.3
				l33.6-13.9c1.1-0.6,1.8-1.6,1.8-2.6v-61.2c0-1-0.7-1.9-1.8-2.3C338.6,484.2,338,484.1,337.4,484.1z" class="st91"></path>
		</g>
		<polygon points="330.2,556.5 330.2,581.9 314.9,588.4 314.9,563" class="st34"></polygon>
		
			<linearGradient gradientTransform="matrix(0.9924 -5.817375e-02 0 1 37.0453 282.5172)" y2="238.2583" x2="285.8863" y1="255.4747" x1="285.8863" gradientUnits="userSpaceOnUse" id="SVGID_84_">
			<stop style="stop-color:#C5BAFE" offset="5.154639e-03"></stop>
			<stop style="stop-color:#7D6FF8" offset="1"></stop>
		</linearGradient>
		<polygon points="339.5,503 339.5,506.9 302,522.5 302,518.6" class="st92"></polygon>
		
			<linearGradient gradientTransform="matrix(0.9924 -5.817375e-02 0 1 37.0453 282.5172)" y2="251.274" x2="285.8863" y1="268.4905" x1="285.8863" gradientUnits="userSpaceOnUse" id="SVGID_85_">
			<stop style="stop-color:#C5BAFE" offset="5.154639e-03"></stop>
			<stop style="stop-color:#7D6FF8" offset="1"></stop>
		</linearGradient>
		<polygon points="339.5,516.1 339.5,519.9 302,535.5 302,531.6" class="st93"></polygon>
		
			<linearGradient gradientTransform="matrix(0.9924 -5.817375e-02 0 1 37.0453 282.5172)" y2="264.2898" x2="285.8863" y1="281.5063" x1="285.8863" gradientUnits="userSpaceOnUse" id="SVGID_86_">
			<stop style="stop-color:#C5BAFE" offset="5.154639e-03"></stop>
			<stop style="stop-color:#7D6FF8" offset="1"></stop>
		</linearGradient>
		<polygon points="339.5,529.1 339.5,532.9 302,548.5 302,544.7" class="st94"></polygon>
		
			<ellipse ry="2.4" rx="3.6" cy="571.6" cx="323.2" class="st34" transform="matrix(0.3851 -0.9229 0.9229 0.3851 -328.7164 649.7397)"></ellipse>
	</g>
	<g>
		<linearGradient y2="606.6125" x2="524.6732" y1="606.6125" x1="395.3551" gradientUnits="userSpaceOnUse" id="SVGID_87_">
			<stop style="stop-color:#8574FD" offset="5.154639e-03"></stop>
			<stop style="stop-color:#715EF5" offset="1"></stop>
		</linearGradient>
		<path d="M395.4,535.6v112.9c0,16.1,28.9,29.1,64.7,29.1s64.7-13,64.7-29.1V535.6H395.4z" class="st95"></path>
		<linearGradient y2="633.0112" x2="524.6732" y1="633.0112" x1="395.3551" gradientUnits="userSpaceOnUse" id="SVGID_88_">
			<stop style="stop-color:#7263F3" offset="5.154639e-03"></stop>
			<stop style="stop-color:#5042D3" offset="1"></stop>
		</linearGradient>
		<path d="M460,639.4c-35.7,0-64.7-13-64.7-29.1v16.4c0,16.1,28.9,29.1,64.7,29.1s64.7-13,64.7-29.1v-16.4
			C524.7,626.3,495.7,639.4,460,639.4z" class="st96"></path>
		<path d="M460,655.8c-35.7,0-64.7-13-64.7-29.1v5.5c0,16.1,28.9,29.1,64.7,29.1s64.7-13,64.7-29.1v-5.5
			C524.7,642.7,495.7,655.8,460,655.8z" class="st40"></path>
		<path d="M460,633.9c-35.7,0-64.7-13-64.7-29.1v5.5c0,16.1,28.9,29.1,64.7,29.1s64.7-13,64.7-29.1v-5.5
			C524.7,620.9,495.7,633.9,460,633.9z" class="st40"></path>
		<linearGradient y2="585.6756" x2="524.6732" y1="585.6756" x1="395.3551" gradientUnits="userSpaceOnUse" id="SVGID_89_">
			<stop style="stop-color:#7263F3" offset="5.154639e-03"></stop>
			<stop style="stop-color:#5042D3" offset="1"></stop>
		</linearGradient>
		<path d="M460,592c-35.7,0-64.7-13-64.7-29.1v16.4c0,16.1,28.9,29.1,64.7,29.1s64.7-13,64.7-29.1v-16.4
			C524.7,579,495.7,592,460,592z" class="st97"></path>
		<path d="M460,608.4c-35.7,0-64.7-13-64.7-29.1v5.5c0,16.1,28.9,29.1,64.7,29.1s64.7-13,64.7-29.1v-5.5
			C524.7,595.4,495.7,608.4,460,608.4z" class="st40"></path>
		<path d="M460,586.6c-35.7,0-64.7-13-64.7-29.1v5.5c0,16.1,28.9,29.1,64.7,29.1s64.7-13,64.7-29.1v-5.5
			C524.7,573.5,495.7,586.6,460,586.6z" class="st40"></path>
		<linearGradient y2="535.6091" x2="524.6732" y1="535.6091" x1="395.3551" gradientUnits="userSpaceOnUse" id="SVGID_90_">
			<stop style="stop-color:#C5BAFE" offset="5.154639e-03"></stop>
			<stop style="stop-color:#E9E6FC" offset="1"></stop>
		</linearGradient>
		<ellipse ry="29.1" rx="64.7" cy="535.6" cx="460" class="st98"></ellipse>
		<g>
			<ellipse ry="13.7" rx="30.4" cy="533.8" cx="460" class="st43"></ellipse>
			<linearGradient y2="535.6091" x2="490.442" y1="535.6091" x1="429.5864" gradientUnits="userSpaceOnUse" id="SVGID_91_">
				<stop style="stop-color:#8B7FFD" offset="5.154639e-03"></stop>
				<stop style="stop-color:#8A80FB" offset="1"></stop>
			</linearGradient>
			<ellipse ry="13.7" rx="30.4" cy="535.6" cx="460" class="st99"></ellipse>
		</g>
		
			<ellipse ry="3.6" rx="4.7" cy="655.9" cx="513.2" class="st13" transform="matrix(0.3415 -0.9399 0.9399 0.3415 -278.4965 914.1985)"></ellipse>
		
			<ellipse ry="4.7" rx="3.6" cy="657.7" cx="410.5" class="st13" transform="matrix(0.9399 -0.3415 0.3415 0.9399 -199.943 179.7606)"></ellipse>
		<g>
			<path d="M503.8,590.2h-1.9v-8.8l0.6-0.2c0,0,4.7-2,8.4-4.1c2.8-1.6,4.6-3.1,5.2-3.6v-23.3l1.9-1.8v25.9l-0.3,0.3
				c-0.1,0.1-2,1.9-5.9,4.1c-3.1,1.8-6.7,3.4-8.1,4V590.2z" class="st13"></path>
		</g>
		<path d="M494.2,592.2v4.6c6.6-1.9,12.4-4.2,17.1-7v-4.5C506.5,587.9,500.7,590.3,494.2,592.2z" class="st45"></path>
		<path d="M427.7,617.7v4.6c-6.6-1.9-12.4-4.2-17.1-7v-4.5C415.4,613.4,421.2,615.7,427.7,617.7z" class="st34"></path>
		<path d="M411,590.2c-6.6-3.3-12.6-11-15.6-14.2v2c2.7,3.1,8,10.4,14.7,13.8l9,4.5v18.5c0.6,0.2,1.3,0.5,1.9,0.7
			v-20.3L411,590.2z" class="st13"></path>
	</g>
	<g>
		<path d="M58.2,557.8c0,0,0-7.3,0-7.3c0,12.8,15.8,21,18.1,22.2l234.9,104.1c7.9,3.5,14.2,9.4,18.2,16.7c0,0,0,0,0,0
			c3.1,5.6,4.9,12.1,4.9,18.8v28.6c0,17.5,10.3,33.6,26.2,40.9c27,12.5,79.1,33.3,124.1,33.4c0.1,0,0.2,0,0.3,0c0.3,0,0.7,0,1,0
			c62.5-0.3,120.8-32.6,121.2-32.9l107.6-52.5v-19.7h-4.3v17l-105.2,51.4c-0.6,0.3-57.9,32-119.2,32.3c-0.3,0-0.7,0-1,0
			c-0.1,0-0.2,0-0.3,0c-44.3-0.1-95.7-20.7-122.4-33c-14.4-6.6-23.7-21.1-23.7-36.9v-28.6c0-5.6-1.1-11.1-3.2-16.1
			c-4.1-10.2-12.1-18.8-22.6-23.4l-234.7-104c-6.4-3-20.1-12.6-20-24.8v4.9L58.2,557.8z" class="st13"></path>
	</g>
</g>
</svg>
