<?xml version="1.0" standalone="no"?><!DOCTYPE svg PUBLIC "-//W3C//DTD SVG 1.1//EN" "http://www.w3.org/Graphics/SVG/1.1/DTD/svg11.dtd"><svg t="1757236671237" class="icon" viewBox="0 0 1024 1024" version="1.1" xmlns="http://www.w3.org/2000/svg" p-id="1823" xmlns:xlink="http://www.w3.org/1999/xlink" width="200" height="200"><path d="M0.895507 1.739843m409.374844 0l203.51047 0q409.374844 0 409.374843 409.374844l0 203.510469q0 409.374844-409.374843 409.374844l-203.51047 0q-409.374844 0-409.374844-409.374844l0-203.510469q0-409.374844 409.374844-409.374844Z" fill="#6CABFE" p-id="1824"></path><path d="M636.603468 189.335865h-1.023437a65.397631 65.397631 0 0 0-10.234371 2.251562C547.820299 214.358903 485.134776 369.614312 455.096897 458.499825a1411.831493 1411.831493 0 0 0-12.230074 37.867173v-0.972265-1.228125a180.841337 180.841337 0 0 0 3.479686-30.703113 258.827245 258.827245 0 0 0-5.117185-64.476538 10.234371 10.234371 0 0 0 0-1.228124l-0.869922-2.609765c-0.767578-3.530858-1.637499-7.010544-2.558592-10.234371l-0.614063-2.302734v-0.767577a179.357353 179.357353 0 0 0-7.419919-21.901555s0.767578 1.842187 1.739843 5.117186a95.793713 95.793713 0 0 0-20.468742-32.954675 44.570686 44.570686 0 0 0-25.585928-14.839838 78.753486 78.753486 0 0 1 8.443357 11.257808 81.874969 81.874969 0 0 0-8.494528-11.257808 34.694518 34.694518 0 0 0-14.072261 0.665234c-12.588276 3.070311-26.19999 12.69062-40.374594 30.958973-79.725751 102.701914-142.462446 276.32802-147.630803 312.813552-0.358203 2.558593-0.56289 5.117186-0.716406 7.16406s0 4.656639 0 6.857029c-0.665234 15.351557 5.117186 25.585928 14.276948 30.703113h0.81875a17.193743 17.193743 0 0 0 6.191794 2.712108c17.910149 5.884763 44.519514 1.535156 69.49138-6.34531 5.475389-1.688671 11.718355-3.58203 18.575383-5.52656 32.442956-7.010544 66.523412-13.714057 92.10934-11.206637 114.880816 11.257808 165.336265 64.015991 226.640148 68.467943 114.7273 8.341012 265.070211-43.547249 267.270601-101.166758S726.921793 178.282744 636.603468 189.335865z m-296.796762 170.811654a145.635101 145.635101 0 0 1 11.871871-13.407026 145.635101 145.635101 0 0 0-11.871871 13.25351zM363.601619 480.503723l1.023437-3.58203z m8.289841 13.355854l0.869921-3.223827c-0.511719 2.046874-0.81875 3.172655-0.818749 3.223827z m24.869521-160.577282c0.81875 1.535156 1.688671 3.070311 2.507421 4.656639-0.716406-1.535156-1.586328-3.121483-2.456249-4.656639zM444.657838 532.187297c0.869922-2.558593 1.637499-5.117186 2.353906-7.778122-0.716406 2.660936-1.535156 5.014842-2.353906 7.778122z m375.140873 124.910499a41.346859 41.346859 0 0 0 11.769526-25.585928 41.244516 41.244516 0 0 1-11.769526 25.381241z" fill="#4589F5" p-id="1825"></path><path d="M544.749988 773.616111v-0.56289a5.424217 5.424217 0 0 0-0.460547-1.279297v-0.409375a17.142572 17.142572 0 0 0-1.074609-1.842186 31.010144 31.010144 0 0 0-3.377343-3.991405l-0.716406-0.767578c-0.716406-0.665234-1.586328-1.535156-2.609764-2.405077l-0.358203-0.307031a96.356604 96.356604 0 0 0-11.513668-8.648044l-0.511718-0.307031c-1.38164-0.972265-2.814452-1.893359-4.247264-2.76328a298.587777 298.587777 0 0 0-162.624157-41.65389c-59.001149 3.121483-114.266753 37.918345-114.266753 37.918344a90.7277 90.7277 0 0 0 12.178901 5.117186c16.886712 6.242966 52.246464 16.067963 112.578082 17.961321 24.357803 0.767578 55.367948 14.021088 167.587827 9.36445a20.161711 20.161711 0 0 0 8.341013-1.586328 3.377342 3.377342 0 0 0 1.586327-1.94453v-0.358203a3.377342 3.377342 0 0 0 0-0.716406 5.117186 5.117186 0 0 0-0.511718-0.81875z m-186.98196-11.769527c23.43671 0.716406 51.171855 12.69062 153.515566 10.234371-100.706212 3.889061-130.1812-9.620309-153.515566-10.234371zM389.596922 231.910849l0.767578 0.869922c-0.81875-0.81875-1.535156-1.739843-2.302734-2.609765a71.640598 71.640598 0 0 0 14.123432 21.287492A64.52771 64.52771 0 0 0 448.598071 271.210834c36.69022 0 66.523412-31.368347 66.523412-70.003098a70.003098 70.003098 0 0 0-43.393733-65.653491A71.128879 71.128879 0 0 1 477.766029 143.281195a58.540603 58.540603 0 0 0-3.837889-4.810154c-0.665234-0.767578-1.279296-1.535156-1.944531-2.251562l-0.307031-0.358203a63.197242 63.197242 0 0 0-23.078507-4.400779c-36.69022 0-66.523412 31.368347-66.523412 70.05427A73.278097 73.278097 0 0 0 388.061766 230.27335z" fill="#4589F5" p-id="1826"></path><path d="M610.147619 206.785468h-1.074609c87.810904 81.874969 196.653441 370.740093 194.811254 416.692419-2.20039 54.293339-159.195642 93.132777-272.234271 76.246065S371.6356 654.99975 312.941482 654.43686c-43.086702-0.56289-110.58238 18.626555-152.543301 22.515616a26.967568 26.967568 0 0 0 13.099995 17.858978c22.771476 16.119134 127.213233-24.511319 185.651492-19.087102 114.215581 10.592574 164.312828 60.331618 225.156164 64.578881 114.010894 7.880466 263.432712-40.937484 265.633102-95.43551s-150.29174-448.367798-239.791315-438.082255z" fill="#B8D9FF" p-id="1827"></path><path d="M414.773475 506.140823c-2.609765 8.443356-3.991405 13.253511-3.991405 13.25351 1.279296-4.298436 2.558593-8.750387 3.991405-13.25351zM388.471141 491.249813c-2.609765 8.443356-3.991405 13.253511-3.991405 13.25351a122.812453 122.812453 0 0 0 3.991405-13.25351zM338.271551 483.420519c1.483984-4.298436 2.76328-8.750387 3.991404-13.253511-2.660936 8.443356-3.991405 13.253511-3.991404 13.253511z" fill="#F2F7FC" p-id="1828"></path><path d="M609.226525 206.938984a71.640598 71.640598 0 0 0-10.234371 2.149217c84.484733 98.710509 180.63665 356.667833 179.101494 399.856879-217.019839-22.873819-122.812453-33.466393-270.136225-34.848033-51.530058-0.511719-167.485483 33.415222-226.179601 32.698815-35.410924-0.460547-94.156214 34.131628-122.812453 52.144121a53.986308 53.986308 0 0 0 1.535156 18.012493c41.960921-3.889061 109.456599-23.078507 152.543301-22.515616 58.694118 0.716406 104.79996 29.526161 217.787417 46.361701s271.210834-22.873819 273.155364-77.167158c1.739843-45.952326-107.102694-334.766279-194.760082-416.692419z" fill="#DDEBFE" p-id="1829"></path><path d="M364.318025 498.106841c1.483984-4.298436 2.814452-8.750387 3.991405-13.25351-2.609765 8.443356-3.991405 13.253511-3.991405 13.25351zM414.773475 506.140823c-2.609765 8.443356-3.991405 13.253511-3.991405 13.25351 1.279296-4.298436 2.558593-8.750387 3.991405-13.25351zM373.119584 508.750587c1.535156-4.298436 2.814452-8.750387 3.991405-13.25351-2.609765 8.443356-3.991405 13.253511-3.991405 13.25351z" fill="#F2F7FC" p-id="1830"></path><path d="M355.260607 338.65534a38.174204 38.174204 0 0 1 13.458198-0.665235A84.94528 84.94528 0 0 0 360.428964 327.499875a36.997252 36.997252 0 0 0-13.969916 0.614062c-12.537105 2.916796-26.046474 11.974214-40.118735 29.21913-79.265204 96.868322-141.643696 260.515916-146.760882 295.005747-0.358203 2.353905-0.56289 4.605467-0.716406 6.703513l10.643746-1.842187c9.92734-44.007796 70.105442-196.9093 145.635101-289.223327 14.123432-17.347259 27.58163-26.404677 40.118735-29.321473z" fill="#FFFFFF" p-id="1831"></path><path d="M397.2727 502.098246c-2.609765 8.443356-3.991405 13.253511-3.991405 13.253511 1.535156-4.298436 2.814452-8.750387 3.991405-13.253511z" fill="#F2F7FC" p-id="1832"></path><path d="M423.319174 516.83574c19.957024-55.316776 89.755435-270.5456 184.21868-296.796761-2.916796-3.684374-5.833592-7.266403-8.699215-10.643746-76.757783 21.441007-139.340962 167.792514-169.225326 251.663185a207.553046 207.553046 0 0 1-6.294139 55.777322z" fill="#FFFFFF" p-id="1833"></path><path d="M423.319174 516.83574c-2.609765 8.443356-3.991405 13.253511-3.991404 13.253511 1.535156-4.349608 2.814452-8.801559 3.991404-13.253511zM397.2727 502.098246c4.349608-14.021088 12.230073-38.07186 22.976163-66.523412a231.040927 231.040927 0 0 0-3.274999-24.971866c-5.117186 12.639448-9.415621 24.613662-13.304682 35.820299a209.344061 209.344061 0 0 1-6.396482 55.674979zM347.07311 494.064265c1.483984-4.298436 2.814452-8.750387 3.991405-13.253511-2.814452 8.443356-3.991405 13.253511-3.991405 13.253511zM414.773475 506.140823c-2.609765 8.443356-3.991405 13.253511-3.991405 13.25351 1.279296-4.298436 2.558593-8.750387 3.991405-13.25351zM338.271551 483.420519c1.483984-4.298436 2.76328-8.750387 3.991404-13.253511-2.660936 8.443356-3.991405 13.253511-3.991404 13.253511zM388.471141 491.249813c3.223827-10.234371 8.392184-26.251162 15.351557-45.389436a213.796012 213.796012 0 0 0-13.253511-72.919894 106.693319 106.693319 0 0 0-21.185148-35.103893H368.718805a122.812453 122.812453 0 0 1 12.741792 24.562491A220.038979 220.038979 0 0 1 388.471141 491.249813zM388.471141 491.249813c-2.609765 8.443356-3.991405 13.253511-3.991405 13.25351a122.812453 122.812453 0 0 0 3.991405-13.25351zM364.318025 498.106841c1.483984-4.298436 2.814452-8.750387 3.991405-13.25351-2.609765 8.443356-3.991405 13.253511-3.991405 13.25351z" fill="#F2F7FC" p-id="1834"></path><path d="M368.30943 484.853331c-2.609765 8.443356-3.991405 13.253511-3.991405 13.25351 1.483984-4.298436 2.814452-8.750387 3.991405-13.25351z" fill="#F2F7FC" p-id="1835"></path><path d="M517.117186 761.539553c16.221478-8.903903-80.442157-70.412473-185.293289-65.0906-58.642946 2.967968-113.601519 35.820299-113.601519 35.820299a85.815202 85.815202 0 0 0 12.127729 5.117185 272.438959 272.438959 0 0 1 96.868323-20.98046c44.417171-1.074609 159.502674 29.372645 189.898756 45.133576z" fill="#FFFFFF" p-id="1836"></path><path d="M513.535156 750.179401c-0.972265 0-11.564839 5.117186-13.969917 5.424217-111.452301 5.680076-142.360102-8.085153-166.564389-8.852731a428.154915 428.154915 0 0 1-96.049573-12.12773c-2.558593 0.972265-4.758983 1.893359-6.549998 2.660937 16.784369 5.884763 51.939433 15.351557 111.861676 16.937884 24.255459 0.767578 55.060916 13.202339 166.615562 8.801559a19.649993 19.649993 0 0 0 8.28984-1.483984c4.042577-2.251562 0.511719-7.419919-3.633201-11.360152z" fill="#B8D9FF" p-id="1837"></path><path d="M497.723052 738.358703c-0.56289 0-10.797262 11.820699-11.462495 11.820698-111.554645 4.40078-142.360102-8.033981-166.615562-8.801559a483.676378 483.676378 0 0 1-78.855829-8.187497c-1.38164 0.460547-2.660936 0.972265-3.837889 1.432812A428.154915 428.154915 0 0 0 332.898506 746.750887c24.204288 0.767578 53.21873 12.946479 164.773374 9.10859a74.045675 74.045675 0 0 0 15.70976-5.680076 89.243716 89.243716 0 0 0-15.658588-11.820698z" fill="#DDEBFE" p-id="1838"></path><path d="M486.414072 750.179401c14.788666-0.716406 10.899605-11.820699 11.462496-11.87187-43.240218-28.042177-133.76323-27.530458-168.867123-26.660537-37.304283 0.921093-70.207786 14.942182-88.066763 21.543351a483.676378 483.676378 0 0 0 78.855829 8.187497c24.101944 0.614062 54.958573 14.276948 166.615561 8.801559z" fill="#F2F7FC" p-id="1839"></path><path d="M446.192994 156.38119a66.011694 66.011694 0 0 1-69.082005 109.098396 66.011694 66.011694 0 1 0 69.082005-109.098396z" fill="#B8D9FF" p-id="1840"></path><path d="M448.444555 158.632752a65.960522 65.960522 0 0 1-83.103093 89.039029c-0.767578-0.767578-1.483984-1.637499-2.251561-2.45625a66.523412 66.523412 0 0 0 14.021088 20.059368A65.960522 65.960522 0 0 0 448.444555 158.632752z" fill="#DDEBFE" p-id="1841"></path><path d="M441.485183 156.534706h5.117186s0-0.255859-0.307031-0.358203a66.932787 66.932787 0 0 0-22.924992-4.14492A65.960522 65.960522 0 0 0 363.089901 245.624906c0.511719 0.56289 1.023437 1.074609 1.483983 1.6375a72.25466 72.25466 0 0 1-1.842186-16.067963c0-41.346859 35.257408-74.659737 78.753485-74.659737z" fill="#FFFFFF" p-id="1842"></path><path d="M388.266453 252.021388A65.960522 65.960522 0 0 0 448.444555 158.632752c-0.665234-0.716406-1.279296-1.432812-1.94453-2.098046h-5.117186c-43.496077 0-78.753486 33.312878-78.753485 74.45505a72.25466 72.25466 0 0 0 1.842187 16.067962l0.767577 0.81875a65.551147 65.551147 0 0 0 23.027335 4.14492zM599.70856 208.934686c-76.246065 25.585928-159.042127 252.021388-176.389386 307.849882-1.176953 4.503123-2.456249 8.955075-3.991404 13.253511 0 0 1.38164-4.810154 3.991404-13.253511A207.553046 207.553046 0 0 0 429.715656 460.546699c-5.117186 14.89101-9.569137 27.786318-12.741792 37.662486 11.001949-41.602719 2.609765-125.780421-31.16366-156.995253a44.775374 44.775374 0 0 0-25.585927-14.021088 92.518715 92.518715 0 0 1 14.07226 20.008195c-1.791015-3.326171-3.684374-6.447654-5.680076-9.415621a38.174204 38.174204 0 0 0-13.560542 0.665234c-12.537105 2.916796-25.995303 11.974214-40.118734 29.21913-75.529659 92.10934-145.737444 246.443656-155.664785 290.451451-7.829294 49.432012 43.547249 46.87342 89.550747 33.159363 67.29099-20.059367 250.383889-60.280446 328.728-46.412873 105.874569 18.677727 200.49133 59.461696 204.687422-24.920694 3.684374-63.811304-139.596822-395.456099-182.530009-411.012343zM338.271551 483.420519s1.330468-4.810154 3.991404-13.253511c-1.228125 4.503123-2.507421 8.955075-3.991404 13.253511z m8.801559 10.643746s1.330468-4.810154 3.991405-13.253511c-1.176953 4.503123-2.507421 8.955075-3.991405 13.253511z m30.703113-140.006197l-1.842187-3.735545z m-0.81875 141.439009c-1.176953 4.503123-2.456249 8.955075-3.991404 13.25351 0.153516 0 1.535156-4.810154 4.14492-13.25351z m-8.801559-10.643746c-1.176953 4.503123-2.507421 8.955075-3.991404 13.25351 0.153516 0 1.535156-4.810154 4.14492-13.25351z m42.216781 34.541002s1.38164-4.810154 3.991405-13.25351c-1.023437 4.503123-2.302733 8.955075-3.837889 13.25351z" fill="#F2F7FC" p-id="1843"></path><path d="M404.539103 367.61861s18.012493 42.319124-3.889061 97.226525c-17.0914 42.830843-3.940233 71.180051 3.684374 83.973015a266.093648 266.093648 0 0 0 28.349208 41.500375s-24.408975-47.129279-14.89101-94.923792A228.942881 228.942881 0 0 0 404.539103 367.61861zM865.699865 745.778622c-25.585928 47.487482-101.524961 123.989406-204.278047 73.482784-12.230073-6.038279-23.078507-11.769527-32.647644-16.83554-59.666383-31.624207-77.730048-41.193344-207.501874 16.323822A204.175703 204.175703 0 0 1 338.015691 836.915696c-99.785118 0-171.374544-75.427315-175.110089-79.418719a24.767178 24.767178 0 0 1-5.117186-7.98281 25.585928 25.585928 0 0 0 5.117186 26.814052c3.735545 4.042577 75.324971 79.41872 175.110089 79.41872a204.175703 204.175703 0 0 0 83.512469-18.166009c129.771825-57.517166 147.83549-47.948029 207.501873-16.323821 9.569137 5.117186 20.468742 10.797262 32.647644 16.83554 102.753086 50.506621 178.538604-25.995303 204.278047-73.482784a25.278897 25.278897 0 0 0 1.176953-21.594523 18.677727 18.677727 0 0 1-1.432812 2.76328z" fill="#B8D9FF" p-id="1844"></path><path d="M338.015691 836.915696A204.175703 204.175703 0 0 0 421.2723 818.749688c129.771825-57.517166 147.83549-47.948029 207.501874-16.323822 9.569137 5.117186 20.468742 10.797262 32.647644 16.83554 102.753086 50.506621 178.538604-25.995303 204.278047-73.482784a18.677727 18.677727 0 0 0 1.176953-2.76328 25.585928 25.585928 0 0 0-46.05467-2.763281c-2.098046 3.837889-51.939433 93.542152-136.731198 51.888262-11.513667-5.628904-21.543351-10.950777-31.214832-16.067963C578.523412 736.874719 545.671081 726.640348 400.547699 790.809855c-107.460897 47.640997-196.755784-45.389436-200.49133-49.380841a25.585928 25.585928 0 0 0-35.820299-1.279296 25.023037 25.023037 0 0 0-6.294138 9.364449 24.767178 24.767178 0 0 0 5.117185 7.98281c3.326171 3.991405 74.915596 79.41872 174.956574 79.418719z" fill="#FFFFFF" p-id="1845"></path></svg>