<?xml version="1.0" standalone="no"?><!DOCTYPE svg PUBLIC "-//W3C//DTD SVG 1.1//EN" "http://www.w3.org/Graphics/SVG/1.1/DTD/svg11.dtd"><svg t="1757236700684" class="icon" viewBox="0 0 1024 1024" version="1.1" xmlns="http://www.w3.org/2000/svg" p-id="2012" xmlns:xlink="http://www.w3.org/1999/xlink" width="200" height="200"><path d="M0.435135 0m409.538569 0l204.154977 0q409.538569 0 409.538569 409.538569l0 204.154977q0 409.538569-409.538569 409.538569l-204.154977 0q-409.538569 0-409.538569-409.538569l0-204.154977q0-409.538569 409.538569-409.538569Z" fill="#FE5C4D" p-id="2013"></path><path d="M807.482078 858.239264c-64.758286 30.357046-75.969405 13.565965-105.814528-0.6655-16.637504-7.986002-27.439084-12.79808-39.110933-11.569465a217.311403 217.311403 0 0 0-43.820627 11.518273c-34.196471 11.46708-76.788482 25.596161-129.209419 3.890616-31.227316-13.054042-45.714743-8.241964-72.078788 0.511923a283.144728 283.144728 0 0 1-74.024097 16.074389c-3.634655 0.255962-7.115733 0.358346-10.59681 0.358346-83.59706 0-129.055842-73.256212-131.00115-76.481327a25.237814 25.237814 0 0 1-2.20127-4.607309 24.828276 24.828276 0 0 0 2.20127 20.988851c1.945308 3.276309 47.404089 76.53252 131.00115 76.53252 3.481078 0 6.962156 0 10.59681-0.409538a283.144728 283.144728 0 0 0 74.024097-16.074389c26.364045-8.753887 40.953857-13.565965 72.078788-0.511923 52.523322 21.859121 95.012948 7.576464 129.209419-3.890617a217.311403 217.311403 0 0 1 43.820627-11.518272c11.671849-1.228616 22.473429 3.583462 39.110933 11.569465 29.845123 14.231465 40.953857 31.022547 105.814528 0.6655a24.981853 24.981853 0 0 0 13.002849-30.715393 24.93066 24.93066 0 0 1-13.002849 14.33385z" fill="#FFB3B0" p-id="2014"></path><path d="M332.826876 878.357846c3.481078 0 6.962156 0 10.59681-0.358346a283.144728 283.144728 0 0 0 74.024097-16.074389c26.364045-8.753887 40.953857-13.565965 72.078788-0.511923 52.523322 21.859121 95.012948 7.576464 129.209419-3.890616a217.311403 217.311403 0 0 1 43.820627-11.518273c11.671849-1.228616 22.473429 3.583462 39.110933 11.569465 29.845123 14.231465 40.953857 31.022547 105.814528 0.6655a24.93066 24.93066 0 0 0 13.002849-14.33385 22.524621 22.524621 0 0 0-0.921462-2.610808 25.084237 25.084237 0 0 0-33.326201-12.081388c-43.257511 20.476928-36.500125 12.13258-62.966555-0.511923-18.634005-8.856272-39.725241-18.941159-66.038094-16.125581a251.251912 251.251912 0 0 0-54.46863 13.821926c-31.585662 10.59681-58.819977 19.760236-93.937909 5.119232-48.479128-20.476928-76.788482-10.80158-107.145528-0.819077a234.563216 234.563216 0 0 1-61.891516 13.719542c-59.229516 4.248963-93.528371-49.605359-95.166525-52.216167a25.033045 25.033045 0 0 0-34.350048-8.344349 24.674699 24.674699 0 0 0-10.545618 13.412389 25.237814 25.237814 0 0 0 2.20127 4.607309c1.842924 3.225116 47.301705 76.481328 130.898765 76.481327z" fill="#FFFFFF" p-id="2015"></path><path d="M695.217317 377.492176c0 51.704244-57.079438 133.560766-150.659001 135.864421-98.596411 2.406039-153.576963-84.160176-153.576963-135.864421H252.19897L284.39894 711.726841A105.097835 105.097835 0 0 0 389.138429 806.739789h298.348848A105.097835 105.097835 0 0 0 792.021997 711.726841l32.251162-334.234665z" fill="#E72F26" p-id="2016"></path><path d="M505.652152 197.090436m24.828276 0l31.380893 0q24.828276 0 24.828276 24.828276l0 235.177524q0 24.828276-24.828276 24.828275l-31.380893 0q-24.828276 0-24.828276-24.828275l0-235.177524q0-24.828276 24.828276-24.828276Z" fill="#E72F26" p-id="2017"></path><path d="M326.939759 357.475979h40.288357a20.476928 20.476928 0 0 0 20.476928-22.473429l-6.39904-67.369095a20.476928 20.476928 0 0 0-20.476928-18.582813h-40.339549a20.476928 20.476928 0 0 0-20.476929 22.473429l6.450233 67.369095a20.476928 20.476928 0 0 0 20.476928 18.582813zM712.673899 361.46898h29.691546a23.804429 23.804429 0 0 0 23.702045-21.60316l5.938309-64.860671a23.804429 23.804429 0 0 0-23.702045-25.954507h-29.845123a23.804429 23.804429 0 0 0-23.702044 21.60316l-5.93831 64.860671a23.804429 23.804429 0 0 0 23.855622 25.954507zM418.574014 408.770684A58.615208 58.615208 0 0 0 476.830875 460.884467a4.812078 4.812078 0 0 0 5.119232-5.119232V148.611308a19.40189 19.40189 0 0 0-19.401889-19.401889H409.615358a19.40189 19.40189 0 0 0-19.299505 21.500774zM613.053642 460.884467a47.404089 47.404089 0 0 0 47.096935-42.182472l28.565316-261.951108a24.777083 24.777083 0 0 0-24.674699-27.490276H624.623107a24.828276 24.828276 0 0 0-24.828276 24.777083v293.690347a13.258811 13.258811 0 0 0 13.258811 13.156426z" fill="#E72F26" p-id="2018"></path><path d="M742.365445 378.976753l-28.411738 295.328501a102.384642 102.384642 0 0 1-102.026296 92.658101H320.950257a101.923911 101.923911 0 0 1-42.13128-9.163425 102.384642 102.384642 0 0 0 80.883868 39.622857h290.772384A102.384642 102.384642 0 0 0 752.603909 704.662301L783.882418 378.976753z" fill="#FFB3B0" p-id="2019"></path><path d="M712.673899 378.976753l-27.3367 283.554267a102.384642 102.384642 0 0 1-101.975103 92.658102h-290.772384a100.900065 100.900065 0 0 1-16.791082-1.53577c0.972654 1.382193 1.945308 2.764385 3.020347 4.146578a101.923911 101.923911 0 0 0 42.13128 9.163425h290.772385a102.384642 102.384642 0 0 0 102.026296-92.658101L742.365445 378.976753z" fill="#FFCBC9" p-id="2020"></path><path d="M546.861971 532.553717c91.224716-2.252462 146.870769-81.907714 146.870769-132.434535h16.893466l2.047693-21.091236h-54.571014c0 50.373244-55.646053 130.182073-146.819577 132.434535a146.0005 146.0005 0 0 1-59.53667-10.852772 148.457731 148.457731 0 0 0 21.39839 14.333849 144.106384 144.106384 0 0 0 73.716943 17.610159z" fill="#FFFFFF" p-id="2021"></path><path d="M685.337199 662.428636l25.289007-262.463031h-16.893466c0 50.373244-55.646053 130.182073-146.870769 132.434535a144.106384 144.106384 0 0 1-73.716943-17.610158 148.457731 148.457731 0 0 1-21.39839-14.33385 134.379843 134.379843 0 0 1-14.231465-6.757387A152.041194 152.041194 0 0 1 364.412538 399.965605h-102.384642l31.380893 325.787932a101.616757 101.616757 0 0 0 7.371694 29.3332h282.683997a102.384642 102.384642 0 0 0 101.872719-92.658101z" fill="#FDF5F3" p-id="2022"></path><path d="M534.371044 203.950207a23.958006 23.958006 0 0 1 3.993001 13.258812v229.239214a24.213968 24.213968 0 0 1-24.213968 24.213968h-30.715392a22.371044 22.371044 0 0 1-6.194271-0.921462 24.060391 24.060391 0 0 0 20.476928 10.955157h30.715393a24.213968 24.213968 0 0 0 24.213968-24.213968V227.242714a24.111583 24.111583 0 0 0-18.275659-23.292507z" fill="#FFB3B0" p-id="2023"></path><path d="M534.371044 203.950207a23.958006 23.958006 0 0 0-5.835924-0.921461 23.343698 23.343698 0 0 1 1.535769 8.241963V440.407539a24.213968 24.213968 0 0 1-24.213968 24.213968h-30.715392a22.26866 22.26866 0 0 0 2.508424 5.119232 22.371044 22.371044 0 0 0 6.19427 0.921462h30.715393a24.213968 24.213968 0 0 0 24.213968-24.213968V217.209019a23.958006 23.958006 0 0 0-4.40254-13.258812z" fill="#FFCBC9" p-id="2024"></path><path d="M352.126381 271.780033a20.06739 20.06739 0 0 0-16.995851-17.86612 20.06739 20.06739 0 0 1 3.839425 10.238464l6.296655 65.679748a20.06739 20.06739 0 0 1-19.965005 21.910314h-39.315703a18.838774 18.838774 0 0 1-2.969155 0 20.016198 20.016198 0 0 0 16.125582 8.139579h39.315702a20.016198 20.016198 0 0 0 19.965006-22.422237z" fill="#FFB3B0" p-id="2025"></path><path d="M338.969955 263.896416a20.06739 20.06739 0 0 0-3.839425-10.238465 27.848623 27.848623 0 0 0-2.969154 0h-1.075039a18.634005 18.634005 0 0 1 1.740539 6.501425l6.245463 65.628556a20.06739 20.06739 0 0 1-19.965005 21.961506h-38.087087a21.193621 21.193621 0 0 0 1.9965 3.481077 18.838774 18.838774 0 0 0 2.969155 0h39.315703a20.06739 20.06739 0 0 0 19.965005-21.910313z" fill="#FFCBC9" p-id="2026"></path><path d="M718.970554 255.500875a23.138929 23.138929 0 0 1 3.07154 13.821927l-5.784733 63.222516a23.241314 23.241314 0 0 1-23.087736 21.091237h-29.128431a23.292506 23.292506 0 0 1-8.907464-1.842924 23.190121 23.190121 0 0 0 20.016198 11.46708h29.077238a23.138929 23.138929 0 0 0 23.087737-21.040044l5.835924-63.222517a23.241314 23.241314 0 0 0-14.180273-23.497275z" fill="#FFB3B0" p-id="2027"></path><path d="M718.970554 255.500875a23.190121 23.190121 0 0 0-6.552617-1.586962 22.780583 22.780583 0 0 1 2.047693 11.620657l-5.835924 63.273709a23.138929 23.138929 0 0 1-23.087737 21.040044h-29.077239a18.224466 18.224466 0 0 1-2.406039 0 17.507774 17.507774 0 0 0 1.075039 2.20127 23.292506 23.292506 0 0 0 8.907464 1.842923h29.128431a23.241314 23.241314 0 0 0 23.087736-21.091236l5.631156-63.478478a23.138929 23.138929 0 0 0-2.917963-13.821927z" fill="#FFCBC9" p-id="2028"></path><path d="M434.59721 137.348998a17.610158 17.610158 0 0 1 0.255962 2.303654v299.628656a4.760886 4.760886 0 0 1-4.760886 4.760886 56.925861 56.925861 0 0 1-33.377393-10.852772A57.079438 57.079438 0 0 0 445.449983 460.270159a4.709694 4.709694 0 0 0 4.760885-4.709693V155.93181a18.889967 18.889967 0 0 0-15.613658-18.582812z" fill="#FFB3B0" p-id="2029"></path><path d="M434.59721 137.348998a19.657851 19.657851 0 0 0-3.53227-0.358347h-2.610808v296.915463a4.760886 4.760886 0 0 1-4.760886 4.709694 56.925861 56.925861 0 0 1-27.951007-7.371695c0.307154 0.563116 0.614308 1.177423 0.972654 1.740539A56.925861 56.925861 0 0 0 430.092286 444.042194a4.760886 4.760886 0 0 0 4.760886-4.760886V139.652652a17.610158 17.610158 0 0 0-0.255962-2.303654z" fill="#FFCBC9" p-id="2030"></path><path d="M631.022147 137.348998a23.958006 23.958006 0 0 1 8.037194 20.476928l-27.848623 255.449683a46.073089 46.073089 0 0 1-44.025396 40.953857 12.849273 12.849273 0 0 0 10.852772 5.938309 46.073089 46.073089 0 0 0 46.073089-40.953857L651.806229 163.969005a24.111583 24.111583 0 0 0-20.784082-26.620007z" fill="#FFB3B0" p-id="2031"></path><path d="M631.022147 137.348998a22.93416 22.93416 0 0 0-3.276309-0.358347h-0.767885a23.804429 23.804429 0 0 1 5.835925 18.378044l-27.848623 255.347298a46.073089 46.073089 0 0 1-39.162125 40.59551 12.439734 12.439734 0 0 0 1.382192 3.020347 46.073089 46.073089 0 0 0 44.025396-40.953857l27.848623-255.347298a23.958006 23.958006 0 0 0-8.037194-20.681697z" fill="#FFCBC9" p-id="2032"></path><path d="M507.955807 213.216018h22.115082v-1.945309a23.343698 23.343698 0 0 0-1.535769-8.241963h-30.715393a24.213968 24.213968 0 0 0-24.213968 24.213968v229.239214a24.213968 24.213968 0 0 0 1.484577 8.190771h8.856272V237.429986a24.213968 24.213968 0 0 1 24.009199-24.213968z" fill="#FFFFFF" p-id="2033"></path><path d="M530.070889 440.407539V213.216018h-22.115082a24.213968 24.213968 0 0 0-24.213968 24.213968v227.293905h22.115082a24.213968 24.213968 0 0 0 24.213968-24.316352z" fill="#FDF5F3" p-id="2034"></path><path d="M302.111483 261.234415h30.715393v-1.279808a18.634005 18.634005 0 0 0-1.842924-6.501425H292.896865a20.06739 20.06739 0 0 0-19.965005 21.961506l6.245463 65.628556a18.634005 18.634005 0 0 0 1.842924 6.501424h7.218117l-6.143078-64.348747A20.06739 20.06739 0 0 1 302.111483 261.234415z" fill="#FFFFFF" p-id="2035"></path><path d="M339.174724 325.787932L332.826876 261.234415h-30.715393a20.06739 20.06739 0 0 0-19.965005 21.961506l6.143079 64.348747h30.971354a20.06739 20.06739 0 0 0 19.913813-21.756736z" fill="#FDF5F3" p-id="2036"></path><path d="M663.478078 284.629306a23.138929 23.138929 0 0 1 23.087737-21.040044h27.951007a22.831775 22.831775 0 0 0-2.098885-9.675349 17.354197 17.354197 0 0 0-2.406039 0H680.93466a23.138929 23.138929 0 0 0-23.087737 21.091236L652.010998 338.022897a23.343698 23.343698 0 0 0 2.047693 11.620656 18.224466 18.224466 0 0 0 2.406039 0h1.126231v-1.945308z" fill="#FFFFFF" p-id="2037"></path><path d="M708.629706 328.808279l5.835924-63.273709v-1.945308h-27.899815a23.138929 23.138929 0 0 0-23.087737 21.040044l-5.835924 63.273709v1.945308h27.951007a23.138929 23.138929 0 0 0 23.036545-21.040044z" fill="#FDF5F3" p-id="2038"></path><path d="M374.446233 171.80143a18.889967 18.889967 0 0 1 18.787582-20.93766h35.220317v-13.873119h-48.632705a18.889967 18.889967 0 0 0-18.787582 20.988852l27.439084 251.354297a56.977053 56.977053 0 0 0 7.26931 22.115083A55.441284 55.441284 0 0 0 404.496126 435.288307a56.311553 56.311553 0 0 1-2.764386-12.183773z" fill="#FFFFFF" p-id="2039"></path><path d="M428.454132 434.110883V150.86377H393.233815a18.889967 18.889967 0 0 0-18.787582 20.93766l27.439084 251.405489A56.311553 56.311553 0 0 0 404.496126 435.288307a56.311553 56.311553 0 0 0 19.043543 3.429885 4.760886 4.760886 0 0 0 4.914463-4.607309z" fill="#FDF5F3" p-id="2040"></path><path d="M599.794831 152.245963h33.019047a23.906814 23.906814 0 0 0-5.835925-15.357696h-37.677548a24.162776 24.162776 0 0 0-24.162776 24.162775v286.318653a12.746888 12.746888 0 0 0 0.665501 3.941808 48.06959 48.06959 0 0 0 9.828925-2.713193V176.408739a24.162776 24.162776 0 0 1 24.162776-24.162776z" fill="#FFFFFF" p-id="2041"></path><path d="M604.965255 410.715993l27.848623-255.347298a15.920812 15.920812 0 0 0 0-3.122732h-33.019047a24.162776 24.162776 0 0 0-24.162776 24.162776V448.59831a46.073089 46.073089 0 0 0 29.3332-37.882317z" fill="#FDF5F3" p-id="2042"></path><path d="M631.022147 706.607609h-251.86622a15.66485 15.66485 0 0 1 0-31.329701h251.86622a15.66485 15.66485 0 0 1 0 31.329701z" fill="#E72F26" p-id="2043"></path><path d="M261.925511 399.965605h102.384642a90.661601 90.661601 0 0 1-2.610808-20.988852H226.295656l31.432085 325.787932a102.742989 102.742989 0 0 0 48.683897 77.658751 94.910563 94.910563 0 0 0 38.291856 13.87312c-1.996501-4.709694-12.849273-15.972004-24.316352-29.486777a130.438034 130.438034 0 0 1-30.049893-71.66925z" fill="#FFFFFF" p-id="2044"></path></svg>