<?xml version="1.0" standalone="no"?><!DOCTYPE svg PUBLIC "-//W3C//DTD SVG 1.1//EN" "http://www.w3.org/Graphics/SVG/1.1/DTD/svg11.dtd"><svg t="1757236720579" class="icon" viewBox="0 0 1024 1024" version="1.1" xmlns="http://www.w3.org/2000/svg" p-id="2211" xmlns:xlink="http://www.w3.org/1999/xlink" width="200" height="200"><path d="M0.716478 1.074716m409.415762 0l204.093758 0q409.415763 0 409.415763 409.415763l0 204.093758q0 409.415763-409.415763 409.415763l-204.093758 0q-409.415763 0-409.415762-409.415763l0-204.093758q0-409.415763 409.415762-409.415763Z" fill="#AA8CFF" p-id="2212"></path><path d="M478.248788 344.93278c-0.51177-0.307062-1.074716-0.51177-1.586486-0.767654V154.093858a21.903743 21.903743 0 0 0-21.852566-21.903744H340.480384a21.903743 21.903743 0 0 0-21.903743 21.903744v189.35479a158.648608 158.648608 0 0 0-85.926134 141.094907v296.212305a69.856565 69.856565 0 0 0 69.856565 69.856564h189.35479a69.856565 69.856565 0 0 0 69.856565-69.856564V484.543555A158.648608 158.648608 0 0 0 478.248788 344.93278zM413.35639 133.520716a26.049078 26.049078 0 0 0-3.428857-0.921186 22.773752 22.773752 0 0 1 6.345944 2.20061 29.631466 29.631466 0 0 0-2.917087-1.279424z m63.305912 236.591134zM843.345295 525.792194v-127.942426a25.127892 25.127892 0 0 0-23.029637-24.974362h-221.084512a25.127892 25.127892 0 0 0-25.127892 25.179069v127.942426a134.186016 134.186016 0 0 0 16.069568 63.868859c0.614124 1.125893 1.279424 2.20061 1.893548 3.275327s1.791194 2.149433 2.71238 3.172972c-0.921185-1.023539-1.791194-2.098256-2.71238-3.172972A136.284272 136.284272 0 0 0 660.182918 651.380479a141.248438 141.248438 0 0 0 16.939577 5.117697v142.527862h-59.211755a9.46774 9.46774 0 0 0-9.467739 9.46774v32.650907a9.518916 9.518916 0 0 0 0 1.68884 9.416563 9.416563 0 0 0 9.263031 7.727722h181.575891a9.416563 9.416563 0 0 0 9.46774-9.416562V808.596132a9.46774 9.46774 0 0 0-9.46774-9.46774h-59.058224v-142.425508a134.697786 134.697786 0 0 0 103.121596-130.91069zM598.770553 592.885202c-0.51177-1.791194-1.17707-3.531211-1.637663-5.117697 0.358239 1.586486 1.023539 3.326503 1.637663 5.117697z" fill="#6A4EDB" p-id="2213"></path><path d="M451.329702 335.567395a149.027338 149.027338 0 0 1 44.575141 106.448098v278.914489a65.762407 65.762407 0 0 1-65.762407 65.762406H252.097756a66.069469 66.069469 0 0 1-20.214903-3.172972 65.71123 65.71123 0 0 0 53.940526 28.198511h178.095857a65.762407 65.762407 0 0 0 65.762407-65.762407v-278.914488a149.385576 149.385576 0 0 0-78.351941-131.473637z" fill="#D7CBFF" p-id="2214"></path><path d="M429.22125 135.31191H404.298066a20.470788 20.470788 0 0 1 20.470788 20.470788v281.473337h25.076715v-281.473337a20.470788 20.470788 0 0 0-20.624319-20.470788z" fill="#D7CBFF" p-id="2215"></path><path d="M404.298066 135.31191h-20.931381a20.470788 20.470788 0 0 1 20.470788 20.470788v281.473337H424.768854v-281.473337a20.470788 20.470788 0 0 0-20.470788-20.470788z" fill="#EEEAFF" p-id="2216"></path><path d="M339.098606 136.540157h51.17697a20.112549 20.112549 0 0 0-6.857714-1.228247H321.596082a20.470788 20.470788 0 0 0-20.470788 20.470788v281.473337h17.502523V157.164476a20.470788 20.470788 0 0 1 20.470789-20.624319z" fill="#FFFFFF" p-id="2217"></path><path d="M403.991004 155.936229a20.470788 20.470788 0 0 0-13.766605-19.396072h-51.17697a20.470788 20.470788 0 0 0-20.470788 20.470788v280.347444h85.414363z" fill="#FFF6FF" p-id="2218"></path><path d="M451.329702 335.567395a146.314958 146.314958 0 0 0-26.202609-11.054226 148.413214 148.413214 0 0 1 41.197461 102.916887V706.242191a65.762407 65.762407 0 0 1-65.762407 65.762407h-175.025239a70.726573 70.726573 0 0 0 6.345945 11.412464 66.069469 66.069469 0 0 0 20.214903 3.172972h178.04468a65.762407 65.762407 0 0 0 65.762407-65.660052v-278.914489a149.027338 149.027338 0 0 0-44.575141-106.448098z" fill="#EEEAFF" p-id="2219"></path><path d="M240.071168 472.875206A149.385576 149.385576 0 0 1 389.456744 323.438453h10.798341a146.468489 146.468489 0 0 1 26.100255 2.405317l-1.228247-1.330601a149.3344 149.3344 0 0 0-44.831026-6.908891H369.497726A149.436753 149.436753 0 0 0 220.060973 467.041032v278.914488a65.557699 65.557699 0 0 0 5.475935 26.151432h17.809586a64.994752 64.994752 0 0 1-3.275326-20.470788z" fill="#FFFFFF" p-id="2220"></path><path d="M697.951522 604.195312h-59.314109v0.870009h46.417512v160.235094h12.896597v-161.105103z" fill="#D7CBFF" p-id="2221"></path><path d="M466.324554 706.242191V427.430056a148.771453 148.771453 0 0 0-39.969214-101.586286 146.468489 146.468489 0 0 0-26.100255-2.405317H389.456744a149.385576 149.385576 0 0 0-149.385576 149.436753v278.914489a64.994752 64.994752 0 0 0 3.275326 20.470788h157.215653A65.762407 65.762407 0 0 0 466.324554 706.242191z" fill="#FFF6FF" p-id="2222"></path><path d="M773.386376 362.077065a13.203658 13.203658 0 0 0-1.995902 0h-0.409415a22.210805 22.210805 0 0 1 0.307061 3.224149v120.163527A126.765356 126.765356 0 0 1 598.770553 603.88825a128.351842 128.351842 0 0 1-24.513769-12.845419 126.663002 126.663002 0 0 0 220.675097-84.953771V385.516118a23.592583 23.592583 0 0 0-21.545505-23.439053z" fill="#D7CBFF" p-id="2223"></path><path d="M673.795992 580.807437h11.258933v184.544155h-11.258933z" fill="#EEEAFF" p-id="2224"></path><path d="M770.981059 361.872357h-12.998951v104.810436a126.611825 126.611825 0 0 1-172.364036 118.218801 123.234145 123.234145 0 0 1-24.564946-12.845419l-2.558848-2.968265a125.537108 125.537108 0 0 0 15.916037 21.750213A128.351842 128.351842 0 0 0 598.770553 603.88825a126.765356 126.765356 0 0 0 172.364036-118.218801V365.096507a22.210805 22.210805 0 0 0-0.15353-3.22415z" fill="#EEEAFF" p-id="2225"></path><path d="M650.51047 580.142136h23.285522v185.158279h-23.285522z" fill="#FFF6FF" p-id="2226"></path><path d="M673.795992 581.984507v-1.17707h-35.158579v184.492978h11.873057v-183.315908h23.285522zM558.340747 385.464941a27.482033 27.482033 0 0 1 13.51072-23.592584h-6.601829a23.64376 23.64376 0 0 0-23.694938 23.643761v120.368234a126.151232 126.151232 0 0 0 15.353091 60.13294c0.562947 1.023539 1.17707 2.047079 1.791194 3.070618l2.558849 2.968265c1.842371 1.228247 3.787096 2.456495 5.680644 3.582388a146.826728 146.826728 0 0 1-8.597731-48.515768z" fill="#FFFFFF" p-id="2227"></path><path d="M631.216752 593.652856a126.765356 126.765356 0 0 0 126.765356-126.765355V361.872357h-186.130641a27.482033 27.482033 0 0 0-13.51072 23.592584V527.122795a146.826728 146.826728 0 0 0 8.393023 48.771652 119.60058 119.60058 0 0 0 18.884302 9.263032 125.84417 125.84417 0 0 0 45.59868 8.495377z" fill="#FFF6FF" p-id="2228"></path><path d="M753.785596 763.150982H752.301464a8.4442 8.4442 0 0 1 0 1.637663v30.706182a8.904793 8.904793 0 0 1-8.904793 8.904793h-169.344594a8.95597 8.95597 0 0 0 8.751261 7.318307h170.982258a8.904793 8.904793 0 0 0 8.904793-8.904793v-30.706182a8.904793 8.904793 0 0 0-8.904793-8.95597z" fill="#D7CBFF" p-id="2229"></path><path d="M752.301464 763.150982h-6.499475v26.509671A8.904793 8.904793 0 0 1 736.948373 798.360738h-163.049827v5.834174h169.702833a8.904793 8.904793 0 0 0 8.904793-8.904793v-30.706182a8.4442 8.4442 0 0 0-0.204708-1.432955z" fill="#EEEAFF" p-id="2230"></path><path d="M582.803338 763.150982a8.904793 8.904793 0 0 0-8.904792 8.904793V798.360738h6.704183v-20.010196a8.904793 8.904793 0 0 1 8.904793-8.95597h156.294467v-6.448298z" fill="#FFFFFF" p-id="2231"></path><path d="M745.801989 789.660653v-20.061373h-156.294467a8.904793 8.904793 0 0 0-8.904793 8.95597V798.360738H736.948373a8.904793 8.904793 0 0 0 8.853616-8.700085z" fill="#FFF6FF" p-id="2232"></path><path d="M284.083362 418.269379m12.026589 0l5.373581 0q12.026588 0 12.026588 12.026588l0 118.269978q0 12.026588-12.026588 12.026588l-5.373581 0q-12.026588 0-12.026589-12.026588l0-118.269978q0-12.026588 12.026589-12.026588Z" fill="#6A4EDB" p-id="2233"></path><path d="M814.123245 872.516168H203.837873a25.025539 25.025539 0 0 1-23.592583-16.837224 25.588485 25.588485 0 0 0-1.484133 8.188316 25.127892 25.127892 0 0 0 25.076716 25.076715h610.285372a25.076715 25.076715 0 0 0 25.076715-25.076715 25.588485 25.588485 0 0 0-1.484132-8.188316 25.025539 25.025539 0 0 1-23.592583 16.837224z" fill="#D7CBFF" p-id="2234"></path><path d="M814.123245 838.790544H203.837873a25.076715 25.076715 0 0 0-23.592583 16.8884 25.025539 25.025539 0 0 0 23.592583 16.837224h610.285372a25.025539 25.025539 0 0 0 23.592583-16.837224 25.076715 25.076715 0 0 0-23.592583-16.8884z" fill="#FFFFFF" p-id="2235"></path></svg>