<?xml version="1.0" standalone="no"?><!DOCTYPE svg PUBLIC "-//W3C//DTD SVG 1.1//EN" "http://www.w3.org/Graphics/SVG/1.1/DTD/svg11.dtd"><svg t="1757236738955" class="icon" viewBox="0 0 1024 1024" version="1.1" xmlns="http://www.w3.org/2000/svg" p-id="2400" xmlns:xlink="http://www.w3.org/1999/xlink" width="200" height="200"><path d="M0.1536 0.1536m409.6 0l203.8784 0q409.6 0 409.6 409.6l0 203.8784q0 409.6-409.6 409.6l-203.8784 0q-409.6 0-409.6-409.6l0-203.8784q0-409.6 409.6-409.6Z" fill="#FCBA11" p-id="2401"></path><path d="M409.2928 698.3168a25.1904 25.1904 0 0 1-16.384 14.5408 25.6 25.6 0 0 1-31.6416-17.664c-1.1264-3.7376-12.4928-38.4512-45.5168-37.12-17.152 0.6656-25.1392 7.424-37.2224 17.6128-14.592 12.288-32.768 27.5456-65.8432 28.0064-50.5344 0.512-79.104-39.3728-88.7296-64.5632a25.6 25.6 0 0 0-0.768 18.944c8.8576 24.9856 37.632 67.072 89.4976 66.56 33.0752-0.4096 51.2-15.7184 65.8432-28.0064 12.0832-10.24 20.0704-16.896 37.2224-17.5616 33.024-1.3824 44.3904 33.3312 45.5168 37.12a25.6 25.6 0 0 0 49.3056-13.9264c-0.3584-1.28-0.9728-2.6112-1.28-3.9424z" fill="#FFCD9C" p-id="2402"></path><path d="M212.6848 703.6928c33.0752-0.4608 51.2-15.7184 65.8432-28.0064 12.0832-10.24 20.0704-16.9472 37.2224-17.6128 33.024-1.3312 44.3904 33.3824 45.5168 37.12a25.6 25.6 0 0 0 31.6416 17.664 25.1904 25.1904 0 0 0 16.384-14.5408c-8.96-26.7264-37.5808-70.5536-91.4944-70.5536h-4.096c-34.7136 1.4336-54.0672 17.7152-68.1472 29.5936-11.7248 9.8816-18.7392 15.8208-33.536 15.9744h-0.4608c-27.5456 0-39.5776-30.72-40.192-32.6144a25.6 25.6 0 0 0-47.4112-1.6384c9.6256 25.2416 38.1952 65.1264 88.7296 64.6144z" fill="#FFFFFF" p-id="2403"></path><path d="M826.368 851.4048a25.6 25.6 0 0 1-33.6896-13.312c-1.3312-2.8672-15.36-30.72-55.1936-29.5424-15.36 0.512-20.48 5.4784-30.72 16.2816-12.1344 12.6464-28.8256 29.9008-63.744 34.56a114.2784 114.2784 0 0 1-14.8992 0.9728c-48.384 0-86.4256-30.3104-88.1664-31.744a25.0368 25.0368 0 0 1-7.4752-10.24 25.6 25.6 0 0 0 7.4752 29.4912c1.7408 1.4336 39.7824 31.744 88.1664 31.744a114.2784 114.2784 0 0 0 14.8992-0.9728c34.9184-4.6592 51.6096-21.9648 63.744-34.56 10.24-10.8544 15.36-15.7696 30.72-16.2816 39.5776-1.3312 53.8624 26.624 55.1936 29.4912a25.6 25.6 0 0 0 47.2064-19.712 25.6 25.6 0 0 1-13.5168 13.824z" fill="#FFCD9C" p-id="2404"></path><path d="M539.904 828.6208c1.7408 1.4336 39.7824 31.744 88.1664 31.744a114.2784 114.2784 0 0 0 14.8992-0.9728c34.9184-4.6592 51.6096-21.9136 63.744-34.56 10.24-10.8032 15.36-15.7696 30.72-16.2816 39.5776-1.3312 53.8624 26.6752 55.1936 29.5424a25.6 25.6 0 0 0 47.2064-0.512v-0.6656a107.9808 107.9808 0 0 0-103.936-60.3136c-36.2496 1.2288-53.3504 18.944-65.8432 31.8976-9.9328 10.24-16.4864 17.1008-33.7408 19.3536-32.8704 4.4032-63.3344-19.2-64.1024-19.8144a25.6 25.6 0 0 0-35.84 3.84 24.1664 24.1664 0 0 0-3.6864 6.5024 25.0368 25.0368 0 0 0 7.2192 10.24z" fill="#FFFFFF" p-id="2405"></path><path d="M125.952 420.096a16.7936 16.7936 0 0 0 11.4688 29.0304 16.9472 16.9472 0 0 0 11.52-4.5568l40.96-38.4512a397.9264 397.9264 0 0 1-5.4272-40.96zM914.3808 421.3248l-61.44-57.4464q-1.536 21.0432-5.12 41.3184l43.3152 40.6528a16.7936 16.7936 0 0 0 22.9888-24.5248zM811.0592 293.0688h-44.1856a22.528 22.528 0 0 0-2.6112 0l-43.6736 0.3072a13.4656 13.4656 0 0 0-2.5088-0.3072l-101.5296 0.8192V206.336a28.672 28.672 0 0 0-28.6208-28.672H448.512a28.672 28.672 0 0 0-28.672 28.672v88.576h75.4176l-51.968 0.4608-54.1696 0.3584L225.28 296.96a30.0032 30.0032 0 0 0-29.7472 30.2592c0 10.752 0.6656 21.4016 1.536 31.9488a412.5696 412.5696 0 0 0 5.4272 40.96c16.9984 92.16 64.9728 170.9056 138.24 218.6752a288.5632 288.5632 0 0 0 52.8384 27.0848l-58.1632 125.1328a10.752 10.752 0 0 0 9.728 15.36h89.1904a15.36 15.36 0 0 0 13.3632-8.1408c7.8848-14.2848 36.4544-24.8832 70.4512-24.8832s62.5664 10.5472 70.656 24.8832a15.36 15.36 0 0 0 13.312 8.0896H691.2a10.7008 10.7008 0 0 0 9.728-15.36L643.0208 645.12a291.5328 291.5328 0 0 0 70.2464-38.912c64.6656-48.64 106.496-122.88 121.4976-208.384a402.944 402.944 0 0 0 5.12-41.3184c0.8192-11.0592 1.28-22.272 1.2288-33.6384a29.7472 29.7472 0 0 0-30.0544-29.7984z m-290.4576 374.8864v-0.9216c10.24 0 20.1728-0.4608 29.952-1.2288a221.7472 221.7472 0 0 1-29.952 2.1504z" fill="#FF7503" p-id="2406"></path><path d="M632.576 634.2144c-33.4336 12.6976-70.912 25.9072-112.128 25.9072v-6.2464A303.104 303.104 0 0 1 403.7632 634.88L348.16 755.3024a10.7008 10.7008 0 0 0 9.728 15.36h9.216l53.4528-95.3344a255.4368 255.4368 0 0 0 99.584 16.4352 266.24 266.24 0 0 0 95.6416-16.9472l53.504 95.8464h9.216a10.7008 10.7008 0 0 0 9.728-15.36z" fill="#FFCD9C" p-id="2407"></path><path d="M615.7824 649.472a265.2672 265.2672 0 0 1-95.6416 16.9472A254.464 254.464 0 0 1 420.5568 650.24L367.104 770.5088h22.6304L435.2 683.9296a205.1072 205.1072 0 0 0 84.6336 14.8992 213.248 213.248 0 0 0 81.3568-15.36l45.4656 87.04h22.6304z" fill="#FEE8D4" p-id="2408"></path><path d="M519.7824 675.1232c-34.56 0.5632-68.8128-4.3008-87.04-11.008l-43.264 106.3936H450.56c0-16.9984 30.3616-30.72 67.84-30.72s67.7888 13.7728 67.7888 30.72h60.4672l-43.5712-107.52a242.6368 242.6368 0 0 1-83.3024 12.1344z" fill="#FFFFFF" p-id="2409"></path><path d="M448.3072 202.752h139.8272a21.8112 21.8112 0 0 1 21.8112 21.8112V312.32H426.4448V224.5632a21.8112 21.8112 0 0 1 21.8624-21.8112z" fill="#FFCD9C" p-id="2410"></path><path d="M468.1216 202.752H568.32a21.8112 21.8112 0 0 1 21.8112 21.8112v77.824H446.3104v-77.824a21.8112 21.8112 0 0 1 21.8112-21.8112z" fill="#FEE8D4" p-id="2411"></path><path d="M479.6416 202.752h77.1072a21.8112 21.8112 0 0 1 21.8112 21.8112V296.96H457.8304V224.5632a21.8112 21.8112 0 0 1 21.8112-21.8112z" fill="#FFFFFF" p-id="2412"></path><path d="M152.2688 428.8512a15.6672 15.6672 0 0 0 21.4016 22.8864l38.2464-35.84q-3.4816-18.7392-5.12-38.1952zM887.808 430.08l-57.088-53.6064c-0.9728 13.056-2.5088 25.9072-4.7104 38.5024l40.3968 37.9392A15.6672 15.6672 0 0 0 887.808 430.08zM791.2448 310.3744l-546.304 3.4816a27.904 27.904 0 0 0-27.7504 28.16c0 10.24 0.6144 20.0192 1.4336 29.9008a372.4288 372.4288 0 0 0 5.12 38.1952c15.872 85.76 60.5696 159.488 128.7168 204.032a271.872 271.872 0 0 0 51.2 26.112 301.1584 301.1584 0 0 0 116.6848 18.9952 315.1872 315.1872 0 0 0 112.128-19.6096 272.0256 272.0256 0 0 0 67.6352-37.1712c60.3136-45.3632 99.328-114.5856 113.3056-194.56a378.3168 378.3168 0 0 0 4.7104-38.5024c0.768-10.24 1.2288-20.8384 1.1264-31.3856a27.9552 27.9552 0 0 0-28.0064-27.648z" fill="#FFCD9C" p-id="2413"></path><path d="M747.776 310.3744l-459.3152 3.2768c-12.9536 0-23.3984 12.032-23.3472 26.624 0 9.5232 0.5632 18.944 1.2288 28.2624 0.9216 12.2368 2.304 24.32 4.2496 36.1472C283.9552 485.7344 321.536 555.4176 378.88 597.504a219.5456 219.5456 0 0 0 43.2128 24.6784 228.096 228.096 0 0 0 97.9968 17.8176 238.4384 238.4384 0 0 0 94.3104-18.3808 223.4368 223.4368 0 0 0 56.8832-35.1232c50.7392-42.9056 83.5072-108.288 95.2832-183.7568q2.7648-17.92 3.9424-36.4544c0.6144-9.7792 1.024-19.6608 0.9728-29.6448a25.0368 25.0368 0 0 0-23.7056-26.2656z" fill="#FEE8D4" p-id="2414"></path><path d="M704.6656 310.3744L322.56 313.6c-10.8032 0-19.5072 11.6224-19.456 25.6 0 9.2672 0.4608 18.432 1.024 27.4944q1.1776 17.92 3.5328 35.1232c11.1104 78.7968 42.4448 146.5344 90.0608 187.4432a177.8688 177.8688 0 0 0 35.84 24.0128 166.5536 166.5536 0 0 0 81.6128 17.4592 174.3872 174.3872 0 0 0 78.7456-17.8176 184.0128 184.0128 0 0 0 47.3088-34.1504c42.24-41.728 69.5296-105.2672 79.3088-178.6368 1.536-11.5712 2.6624-23.3984 3.2768-35.3792 0.512-9.5232 0.8704-19.0976 0.8192-28.8768-0.3584-14.1824-9.1648-25.6-19.968-25.4976z" fill="#FFFFFF" p-id="2415"></path><path d="M421.4784 563.2a18.688 18.688 0 0 1-8.4992-2.5088c-58.3168-30.72-72.1408-94.1056-63.5392-118.6816 2.3552-6.7584 11.9808-12.3392 17.7664-10.24 7.936 3.2256 11.5712 10.24 11.7248 20.48 0 2.3552-5.12 45.3632 51.2 81.92a15.6672 15.6672 0 0 1-8.6528 29.0304z" fill="#FF7503" p-id="2416"></path></svg>