<svg xml:space="preserve" style="enable-background:new 0 0 1024 1024;" viewBox="0 0 1024 1024" y="0px" x="0px" xmlns:xlink="http://www.w3.org/1999/xlink" xmlns="http://www.w3.org/2000/svg" id="图层_1" version="1.1">
<style type="text/css">
	.st0{fill:url(#SVGID_1_);}
	.st1{fill:url(#SVGID_2_);}
	.st2{opacity:0.5;fill:#C2BDFC;}
	.st3{fill:url(#SVGID_3_);}
	.st4{fill:#C2BDFC;}
</style>
<g>
	<linearGradient y2="353.3358" x2="885.8723" y1="353.3358" x1="121.1372" gradientUnits="userSpaceOnUse" id="SVGID_1_">
		<stop style="stop-color:#C1B7FE" offset="5.154639e-03"></stop>
		<stop style="stop-color:#7D6FF8" offset="1"></stop>
	</linearGradient>
	<polygon points="503.5,178.3 121.1,342.1 503.5,528.4 885.9,342.1" class="st0"></polygon>
	<linearGradient y2="460.1387" x2="543.7557" y1="753.2777" x1="137.8709" gradientUnits="userSpaceOnUse" id="SVGID_2_">
		<stop style="stop-color:#6052E9" offset="5.154639e-03"></stop>
		<stop style="stop-color:#8071FE" offset="1"></stop>
	</linearGradient>
	<polygon points="503.5,528.4 503.5,912.5 349.7,837.5 256.1,792 121.1,726.2 121.1,342.1 256.1,407.8 349.7,453.4" class="st1"></polygon>
	<polygon points="349.7,453.4 349.7,837.5 256.1,792 256.1,407.8" class="st2"></polygon>
	<polygon points="372.1,462.6 372.1,846.7 278.6,801.2 278.6,417.1" class="st2"></polygon>
	<linearGradient y2="627.3018" x2="885.8723" y1="627.3018" x1="503.5047" gradientUnits="userSpaceOnUse" id="SVGID_3_">
		<stop style="stop-color:#6052E9" offset="5.154639e-03"></stop>
		<stop style="stop-color:#8071FE" offset="1"></stop>
	</linearGradient>
	<polygon points="885.9,342.1 885.9,726.2 503.5,912.5 503.5,528.4" class="st3"></polygon>
	<polygon points="852.1,608.6 852.1,630.3 795.9,657.7 795.9,636" class="st4"></polygon>
	<polygon points="256.1,407.8 636.3,235.2 728.8,274.8 349.7,453.4" class="st2"></polygon>
	<polygon points="278.6,417.1 658.8,244.4 751.3,284 372.1,462.6" class="st2"></polygon>
	<polygon points="638.5,362.6 711.4,327.5 762.6,349 690,385.9" class="st2"></polygon>
	<g>
		<path d="M601.2,581.6c0.4-0.2,0.8-0.5,1.4-1c1.2-0.8,2.3-1.3,3.3-1.3c1-0.1,1.8,0.2,2.3,0.9l1,1.3
			c-0.3,0.3-0.7,0.6-1.2,1c0,0-0.1,0-0.1,0.1c-0.5,0.4-1.2,0.9-2,1.6c-0.8,0.7-1.6,1.3-2.3,1.7c-1.2,0.8-2.6,1.7-4.2,2.7
			c-1.5,0.9-3.2,1.8-4.9,2.6c-3.1,1.5-5.8,2.5-8.1,2.9c-2.2,0.5-4,0.4-5.4-0.3c-1.4-0.7-2.2-1.9-2.7-3.7c-0.4-1.8-0.4-4.1,0.1-7
			c0.4-2.7,1.2-5.4,2.4-8c1.2-2.6,2.6-5,4.4-7.3c1.8-2.3,3.8-4.4,6.2-6.3c2.4-1.9,4.9-3.5,7.7-4.8c2.9-1.4,5.3-2.2,7.3-2.5
			c2-0.3,3.5-0.1,4.6,0.7c1.1,0.7,1.8,1.8,2.2,3.4c0.3,1.6,0.3,3.4-0.1,5.6l-0.2,1.4c-0.2,1.1-0.6,2-1.2,2.8
			c-0.6,0.8-1.4,1.4-2.3,1.8l-21.3,10.4c-0.2,1.3-0.3,2.5-0.1,3.3c0.2,0.9,0.6,1.6,1.2,2c0.6,0.4,1.6,0.5,2.7,0.2
			c1.2-0.2,2.6-0.7,4.3-1.5C598.3,583.3,599.8,582.4,601.2,581.6z M590.3,571.2c-0.5,1.1-0.8,2.2-1,3.3l14.7-7.2
			c0.5-2.5,0.2-4.2-0.8-5c-1-0.8-2.7-0.6-5.2,0.6c-1.2,0.6-2.4,1.3-3.3,2.2c-1,0.9-1.9,1.8-2.5,2.8
			C591.4,569,590.8,570.1,590.3,571.2z" class="st4"></path>
		<path d="M642,538.8c1.8-2.9,4.1-5,6.8-6.3l4.6-2.3l-12.7,22l7.9,12.9l-6.9,3.3c-1.7,0.8-2.9,0.7-3.7-0.3l-4.6-7.9
			l-8.8,15.3c-0.7,1.2-1.6,2-2.7,2.6l-7.3,3.6l13.8-23.3l-8.1-11.9l5.8-2.8c2.3-1.1,4-1,5.2,0.4l4.4,6.3L642,538.8z" class="st4"></path>
		<path d="M694.6,519.9c0.2,1.8,0.1,3.9-0.2,6.3c-0.5,2.8-1.2,5.4-2.2,8c-1,2.6-2.3,4.9-3.9,7.1
			c-1.5,2.2-3.3,4.1-5.4,5.9c-2.1,1.8-4.4,3.3-6.8,4.5c-1,0.5-2,0.9-2.8,1.1c-0.8,0.2-1.6,0.4-2.4,0.4c-0.7,0-1.5-0.1-2.2-0.2
			c-0.7-0.1-1.4-0.3-2.1-0.7l-2.9,18.4c-0.1,0.9-0.6,1.8-1.3,2.6c-0.7,0.9-1.6,1.5-2.6,2l-6.5,3.2l7.5-48.2c0.2-1.1,0.7-2.2,1.7-3.4
			c0.9-1.2,1.9-2,3.1-2.6l5.3-2.6l-0.9,5c0.5-0.6,0.8-1,1.1-1.3c0.3-0.3,0.6-0.7,0.9-1c0.2-0.1,0.3-0.3,0.5-0.5
			c1.1-1.2,2.2-2.3,3.3-3.3c1.1-1,2.2-1.9,3.3-2.6c1.1-0.8,2.3-1.5,3.6-2.1c2.6-1.3,4.7-1.9,6.4-1.8c1.7,0,3,0.5,3.9,1.5
			C693.9,516.6,694.4,518,694.6,519.9z M683.9,531.8c0.2-1.3,0.3-2.5,0.3-3.7c0-1.1-0.2-2-0.6-2.7c-0.4-0.7-1-1.1-1.8-1.2
			c-0.8-0.1-1.9,0.1-3.2,0.7c-0.7,0.3-1.3,0.7-2,1.2c-0.7,0.5-1.4,1.1-2.1,1.8c-0.7,0.7-1.5,1.6-2.3,2.6c-0.8,1-1.7,2.1-2.6,3.4
			l-1.7,10.3c1.2,0.9,2.3,1.4,3.5,1.7c1.1,0.2,2.4,0,3.7-0.7c1.3-0.6,2.5-1.5,3.5-2.5c1-1,1.9-2.1,2.6-3.3c0.7-1.2,1.3-2.5,1.8-3.9
			C683.4,534.2,683.7,533,683.9,531.8z" class="st4"></path>
		<path d="M725.4,495.4L725.4,495.4c0.3-0.2,0.9-0.4,1.7-0.6c0.8-0.3,1.9-0.4,3.3-0.6c-0.3,0.6-0.7,1.4-1.1,2.4
			c-0.4,1-0.9,2-1.4,3c-0.5,1-1,2.2-1.6,3.6c-0.4,0-0.8,0.1-1.1,0.2c-0.3,0.1-0.6,0.1-0.9,0.2c-0.4,0.1-1,0.4-1.7,0.7
			c-0.7,0.4-1.4,0.8-1.9,1.2c-0.6,0.5-1.2,1-1.8,1.7c-0.7,0.7-1.4,1.6-2.1,2.6c-0.8,1-1.6,2.2-2.5,3.6l-2.4,15.3
			c-0.3,1.8-1.2,3.5-2.6,5.2c-1.4,1.7-3.1,3.1-5.1,4l-3.2,1.5l4.7-30c0.2-1.2,0.8-2.4,1.8-3.6c1-1.2,2.2-2.1,3.5-2.8l3.8-1.9l-0.8,5
			c1.1-1.6,2.2-3,3.1-4.2c1-1.2,1.9-2.1,2.7-2.9c0.8-0.8,1.6-1.5,2.4-2c0.8-0.5,1.5-1,2.3-1.3C724.7,495.7,725,495.5,725.4,495.4z" class="st4"></path>
		<path d="M753.7,507.4c0.4-0.2,0.8-0.5,1.4-1c1.2-0.8,2.3-1.2,3.3-1.3c1-0.1,1.8,0.2,2.3,0.9l1,1.3
			c-0.3,0.3-0.7,0.6-1.2,1c0,0-0.1,0-0.1,0.1c-0.5,0.4-1.2,0.9-2,1.6c-0.9,0.7-1.6,1.2-2.3,1.7c-1.2,0.8-2.6,1.7-4.2,2.7
			c-1.5,0.9-3.2,1.8-4.9,2.6c-3.1,1.5-5.8,2.5-8,2.9c-2.2,0.5-4,0.4-5.4-0.3c-1.4-0.7-2.2-1.9-2.7-3.7c-0.4-1.8-0.4-4.1,0.1-7
			c0.4-2.7,1.2-5.4,2.4-8c1.2-2.6,2.6-5,4.4-7.3c1.8-2.3,3.8-4.4,6.2-6.3c2.4-1.9,4.9-3.5,7.7-4.8c2.9-1.4,5.3-2.3,7.3-2.5
			c2-0.3,3.5,0,4.6,0.7c1.1,0.7,1.9,1.8,2.2,3.4c0.3,1.6,0.3,3.4-0.1,5.6l-0.2,1.4c-0.2,1.1-0.6,2-1.2,2.8c-0.6,0.8-1.4,1.4-2.3,1.8
			L740.9,506c-0.2,1.3-0.2,2.4-0.1,3.3c0.2,0.9,0.6,1.6,1.2,2c0.7,0.4,1.6,0.5,2.7,0.2c1.2-0.2,2.6-0.7,4.3-1.5
			C750.8,509.2,752.3,508.3,753.7,507.4z M742.8,497.1c-0.5,1.1-0.8,2.2-1,3.3l14.7-7.2c0.5-2.5,0.2-4.2-0.8-5
			c-1-0.8-2.7-0.6-5.2,0.6c-1.2,0.6-2.4,1.3-3.4,2.2c-1,0.9-1.8,1.8-2.5,2.8C743.9,494.9,743.3,495.9,742.8,497.1z" class="st4"></path>
		<path d="M794.1,478c0.7,0.4,1.2,1,1.6,1.8c0.3,0.8,0.4,1.9,0.1,3.4c-0.3,1.8-0.9,3.6-1.9,5.4c-1,1.7-2.2,3.4-3.6,4.9
			c-1.5,1.6-3.1,3-4.9,4.3c-1.8,1.3-3.7,2.4-5.6,3.3c-1.3,0.6-2.5,1.1-3.6,1.5c-1.1,0.4-2,0.6-2.8,0.8c-0.9,0.2-1.6,0.2-2.2,0.2
			c-0.6,0-1.1-0.1-1.3-0.3l-0.4-0.3l0.9-2.1c0.6-1.4,1.5-2.6,2.7-3.8c1.3-1.2,2.6-1.9,4-2.3l0.2-0.1c0.1,0,0.2,0,0.4-0.1
			c0.8-0.2,1.9-0.6,3.1-1.2c0.8-0.4,1.5-0.8,2.1-1.2c0.6-0.5,1.2-0.9,1.6-1.4c0.4-0.4,0.7-0.8,0.9-1.3c0.2-0.5,0.4-1,0.5-1.5
			c0.1-0.5,0-0.8-0.2-0.9c-0.3-0.2-0.7-0.4-1.2-0.4c-0.5-0.1-1.2,0-2,0c-0.9,0.1-1.8,0.2-2.7,0.2c-0.9,0.1-1.8,0.1-2.7,0.1
			c-0.9-0.1-1.7-0.3-2.4-0.7c-0.7-0.4-1.2-1.1-1.5-1.9c-0.3-0.8-0.4-1.9-0.2-3.4c0.3-1.7,1-3.2,1.9-4.8c0.9-1.6,2-3.1,3.4-4.5
			c1.3-1.4,2.8-2.7,4.4-3.9c2.6-1.9,5.2-3.2,7.8-4.1c0.8-0.3,1.7-0.6,2.4-0.7c0.8-0.2,1.4-0.3,2-0.3l0.1,0c0.2,0,0.4,0,0.6,0
			c0.2,0,0.5,0,0.8,0l0.9,0l-1.4,3.3c-0.4,0.8-1,1.8-2,2.8c-1,1-2.5,1.8-4.4,2.3c-0.8,0.2-1.5,0.4-2.3,0.7c-0.7,0.3-1.3,0.7-1.8,1.1
			c-0.5,0.3-0.8,0.6-1.1,0.9c-0.3,0.4-0.6,0.8-0.7,1.1c-0.2,0.4-0.4,0.8-0.5,1.2c0,0.4,0,0.7,0.2,1c0.3,0.2,0.6,0.4,1.2,0.4
			c0.7,0.1,1.4,0.1,2.1-0.1c0.9-0.1,1.8-0.2,2.7-0.3c1-0.1,1.9-0.1,2.8,0C792.6,477.4,793.4,477.6,794.1,478z" class="st4"></path>
		<path d="M825.3,462.9c0.7,0.4,1.2,1,1.6,1.8c0.3,0.8,0.4,1.9,0.1,3.4c-0.3,1.8-0.9,3.6-1.9,5.4
			c-1,1.7-2.2,3.3-3.6,4.9c-1.5,1.6-3.1,3-4.9,4.3c-1.8,1.3-3.7,2.4-5.6,3.3c-1.3,0.6-2.5,1.1-3.6,1.5c-1.1,0.4-2,0.6-2.8,0.8
			c-0.9,0.2-1.6,0.2-2.1,0.2c-0.6,0-1.1-0.1-1.3-0.3l-0.4-0.3l0.9-2.1c0.6-1.4,1.5-2.6,2.6-3.8c1.3-1.2,2.6-1.9,4-2.3l0.2-0.1
			c0.1,0,0.2,0,0.4-0.1c0.8-0.2,1.9-0.6,3.1-1.2c0.8-0.4,1.5-0.8,2.1-1.2c0.6-0.5,1.2-0.9,1.6-1.4c0.4-0.4,0.6-0.8,0.9-1.3
			c0.2-0.5,0.4-1,0.5-1.5c0.1-0.5,0-0.8-0.2-0.9c-0.3-0.2-0.7-0.4-1.2-0.4c-0.5-0.1-1.2,0-2,0c-0.9,0.1-1.8,0.2-2.7,0.2
			c-0.9,0.1-1.8,0.1-2.7,0.1c-0.9-0.1-1.7-0.3-2.4-0.7c-0.7-0.4-1.2-1.1-1.5-1.9c-0.3-0.8-0.4-1.9-0.2-3.4c0.3-1.6,1-3.2,1.9-4.8
			c0.9-1.6,2-3.1,3.3-4.5c1.3-1.4,2.8-2.7,4.5-3.9c2.6-1.9,5.2-3.2,7.7-4.1c0.9-0.3,1.7-0.6,2.4-0.7c0.8-0.2,1.4-0.3,2-0.3l0.1,0
			c0.2,0,0.4,0,0.6,0c0.2,0,0.5,0,0.8,0l0.9,0l-1.4,3.3c-0.4,0.8-1,1.8-2,2.8c-1,1-2.5,1.8-4.4,2.3c-0.8,0.2-1.5,0.4-2.3,0.7
			c-0.7,0.3-1.3,0.7-1.8,1.1c-0.5,0.3-0.8,0.6-1.1,0.9c-0.4,0.4-0.6,0.8-0.8,1.1c-0.2,0.4-0.4,0.8-0.5,1.2c0,0.4,0,0.7,0.2,1
			c0.3,0.2,0.6,0.4,1.2,0.4c0.7,0.1,1.4,0.1,2.1-0.1c0.9-0.1,1.8-0.2,2.7-0.3c0.9-0.1,1.9-0.1,2.8,0
			C823.8,462.3,824.6,462.5,825.3,462.9z" class="st4"></path>
	</g>
</g>
</svg>
