<?xml version="1.0" standalone="no"?><!DOCTYPE svg PUBLIC "-//W3C//DTD SVG 1.1//EN" "http://www.w3.org/Graphics/SVG/1.1/DTD/svg11.dtd"><svg t="1757090790152" class="icon" viewBox="0 0 1024 1024" version="1.1" xmlns="http://www.w3.org/2000/svg" p-id="8771" xmlns:xlink="http://www.w3.org/1999/xlink" width="200" height="200"><path d="M923.43359375 200.94628906C832.17675781 131.78515625 691.74511719 90.49414062 547.78027344 90.49414062 369.69628906 90.49414062 224.59765625 152.66796875 149.66210937 261.06347656 114.46191406 311.97851562 95.00292969 372.25390625 91.8125 440.25488281c-2.84765625 60.5390625 7.33007813 127.48535156 30.21679688 199.52050782C200.20800781 405.45019531 418.50195312 221.93457031 670.203125 221.93457031c0 0-235.51171875 61.98925781-383.58984375 253.94238281-0.07910156 0.10546875-2.05664063 2.55761719-5.45800781 7.171875a555.16113281 555.16113281 0 0 0-75.04101563 136.21289063 811.34472656 811.34472656 0 0 0-63.28125 314.58691406h105.46875s-16.00488281-100.69628906 11.83886719-216.52734375c46.06347656 6.22265625 87.22265625 9.30761719 124.29492188 9.30761719 96.95214844 0 165.92871094-20.98828125 217.02832031-66.0234375 45.7734375-40.36816406 71.03320313-94.57910156 97.74316406-151.98046875 40.81640625-87.67089844 87.06445313-187.04882813 221.35253906-263.80371094a26.3671875 26.3671875 0 0 0 2.84765625-43.92773437z" fill="#13227a" p-id="8772"></path></svg>